<svg height="511pt" viewBox="0 -43 511.99918 511" width="511pt" xmlns="http://www.w3.org/2000/svg"><g fill-rule="evenodd"><path d="m355.199219 58.648438c15.953125-46.664063 51.660156-53.832032 84.847656-14.050782 13.746094 2.691406 25.054687 9.71875 33.1875 19.210938l.875 1.046875c8.363281 10.171875 13.152344 22.949219 13.632813 36.125 32.816406 39.355469 14.199218 76.128906-35.113282 83.527343l-29.644531 4.53125-78.953125-97.4375zm0 0" fill="#4bc6c0"/><path d="m409.808594 141.070312c31.457031 53.863282 13.292968 123.050782-40.582032 154.5-53.902343 31.480469-123.109374 13.289063-154.566406-40.570312-31.484375-53.890625-13.289062-123.050781 40.582032-154.527344 53.902343-31.453125 123.082031-13.289062 154.566406 40.597656zm0 0" fill="#9bdeda"/><path d="m344.625 89.816406c-28.933594-8.667968-61.242188-5.777344-89.382812 10.652344-19.382813 11.335938-34.148438 27.542969-43.644532 46.15625-7.054687 13.855469-11.21875 29.070312-12.15625 44.566406 4.675782 5.269532 10.882813 8.558594 17.542969 9.292969 2.71875-17.648437 9.578125-34.539063 20.175781-49.183594 8.929688-12.328125 20.519532-23.066406 34.546875-31.222656 27.035157-15.785156 57.898438-19.097656 85.953125-11.648437 17.996094 4.789062 34.832032 13.96875 48.71875 27.144531-2.355468-3.570313-4.902344-6.96875-7.597656-10.171875-3.910156-4.675782-8.160156-8.980469-12.667969-12.890625-4.988281-4.304688-10.285156-8.132813-15.871093-11.445313-7.820313-4.675781-16.125-8.359375-24.769532-10.996094zm0 0" fill="#4bc6c0"/><path d="m366.675781 35.8125c-4.476562 6.066406-8.359375 13.6875-11.476562 22.835938l-10.574219 31.167968c.285156.085938.566406.171875.851562.253906 8.644532 2.636719 16.949219 6.320313 24.769532 10.996094l7.625-22.523437c12.355468-36.097657 36.5-48.566407 62.175781-33.945313-26.667969-31.988281-55.007813-33.628906-73.371094-8.785156zm0 0" fill="#1ba188"/><path d="m401.535156 223.71875c41.769532-26.207031 74.050782-9.292969 74.757813 42.472656 9.011719 10.765625 13.347656 23.34375 13.6875 35.8125l.03125 1.386719c.082031 13.148437-4.25 26.121094-12.160157 36.632813.710938 51.226562-36.898437 68.113281-79.859374 42.8125l-25.90625-15.160157v-125.398437zm0 0" fill="#aeed93"/><path d="m392.066406 322.117188c-9.492187 61.65625-67.164062 103.984374-128.832031 94.492187-61.695313-9.464844-104.007813-67.121094-94.542969-128.800781 9.46875-61.652344 67.167969-103.984375 128.835938-94.492188 61.695312 9.464844 104.007812 67.121094 94.539062 128.800782zm0 0" fill="#aeed93"/><path d="m424.828125 213.207031c-7.28125 1.871094-15.105469 5.355469-23.292969 10.511719l-27.832031 17.566406c.171875.226563.339844.480469.511719.738282 5.015625 7.480468 9.152344 15.582031 12.300781 24.109374l20.121094-12.691406c32.304687-20.257812 58.917969-14.734375 69.660156 12.75-.570313-41.625-21.570313-60.71875-51.46875-52.984375zm0 0" fill="#82cc62"/><path d="m373.703125 241.285156c-17.03125-24.933594-43.953125-43.035156-76.175781-47.96875-22.191406-3.425781-43.871094-.113281-62.972656 8.359375 8.644531 3.371094 14.960937 10.851563 16.917968 19.75 14.710938-3.96875 30.464844-5.015625 46.503906-2.550781 30.949219 4.757812 57.019532 21.644531 74.109376 45.078125 10.996093 15.042969 18.28125 32.777344 20.773437 51.734375.425781-4.25.566406-8.472656.511719-12.664062-.085938-6.121094-.679688-12.128907-1.757813-17.992188-1.160156-6.488281-2.863281-12.808594-5.101562-18.898438-3.144531-8.527343-7.28125-16.632812-12.300781-24.113281zm0 0" fill="#82cc62"/><path d="m204.828125 246.925781c-4.734375-4.761719-7.453125-11.222656-7.796875-18.246093-4.761719 5.183593-9.039062 10.820312-12.78125 16.855468-4.902344 7.90625-8.867188 16.519532-11.730469 25.699219-1.671875 5.324219-2.949219 10.878906-3.828125 16.574219-.988281 6.429687-1.414062 12.804687-1.300781 19.09375.058594 4.367187.394531 8.671875.933594 12.894531.226562-2.125.480469-4.25.820312-6.402344 2.410157-15.78125 7.992188-30.261719 15.957031-42.953125 5.527344-8.757812 12.1875-16.660156 19.726563-23.515625zm0 0" fill="#82cc62"/><path d="m282.648438 409.726562c3.484374-22.808593-12.15625-44.117187-34.972657-47.628906-19.328125-2.976562-37.578125 7.820313-44.832031 25.046875 16.09375 15.214844 36.839844 25.867188 60.390625 29.464844 5.8125.90625 11.5625 1.332031 17.261719 1.332031.988281-2.605468 1.699218-5.355468 2.152344-8.214844zm0 0" fill="#ffb370"/><path d="m348.59375 343.539062c2.097656-13.742187-7.3125-26.578124-21.054688-28.703124-13.746093-2.097657-26.582031 7.339843-28.683593 21.050781-2.121094 13.742187 7.3125 26.578125 21.058593 28.703125 13.71875 2.097656 26.582032-7.3125 28.679688-21.050782zm0 0" fill="#ffb370"/><path d="m131.398438 65.933594c-7-48.820313 21.566406-71.429688 69.207031-51.085938 13.460937-3.851562 26.722656-2.71875 38.285156 2.011719l1.246094.539063c12.074219 5.269531 22.164062 14.476562 28.570312 25.980468 47.128907 20.144532 47.296875 61.371094 6.742188 90.355469l-24.371094 17.507813-114.636719-50.882813zm0 0" fill="#e04b84"/><path d="m34.957031 293.644531c-39.929687 28.957031-36.304687 65.195313 11.449219 85.253907 6.605469 12.351562 16.664062 21.078124 28.113281 26.066406l1.246094.535156c12.1875 4.988281 25.820313 5.839844 38.542969 2.410156 47.273437 19.832032 77-8.726562 69.574218-58.027344l-4.363281-29.691406-116.335937-46.863281zm0 0" fill="#e04b84"/><path d="m217.523438 114.496094c52.539062 33.6875 67.816406 103.554687 34.121093 156.085937-33.667969 52.527344-103.582031 67.800781-156.097656 34.113281-52.539063-33.6875-67.816406-103.558593-34.121094-156.085937 33.667969-52.503906 103.582031-67.773437 156.097657-34.113281zm0 0" fill="#f57e9c"/><path d="m131.257812 40.375c-1.25 7.425781-1.21875 15.980469.140626 25.558594l4.789062 32.554687c.285156-.058593.566406-.113281.878906-.171875 8.871094-1.558594 17.96875-2.039062 27.035156-1.445312l-3.457031-23.542969c-5.414062-37.738281 10.457031-59.839844 39.960938-58.480469-38.316407-16.375-64.277344-4.929687-69.347657 25.527344zm0 0" fill="#b7205a"/><path d="m34.957031 293.644531c-39.734375 28.816407-36.359375 64.824219 10.742188 84.941407-20.746094-20.171876-15.699219-46.609376 14.878906-68.765626l21.339844-15.355468c-7.226563-6.34375-13.460938-13.457032-18.734375-21.136719zm0 0" fill="#b7205a"/><path d="m136.1875 98.488281c-29.726562 5.4375-57.1875 22.722657-74.761719 50.121094-12.128906 18.898437-17.910156 40.0625-17.910156 60.941406 6.578125-6.515625 15.984375-9.261719 24.910156-7.449219 2.355469-15.046874 7.796875-29.863281 16.550781-43.519531 16.894532-26.320312 42.910157-43.320312 71.277344-49.441406 18.195313-3.910156 37.378906-3.371094 55.742188 2.039063-3.738282-2.125-7.535156-3.992188-11.390625-5.609376-5.613281-2.40625-11.363281-4.304687-17.175781-5.722656-6.375-1.558594-12.835938-2.550781-19.328126-2.972656-9.066406-.597656-18.164062-.113281-27.035156 1.441406zm0 0" fill="#ce4d78"/><path d="m72.820312 255.082031c-6.265624 2.378907-13.292968 2.265625-19.839843-.28125 2.808593 6.429688 6.207031 12.636719 10.203125 18.527344 5.273437 7.679687 11.507812 14.792969 18.734375 21.136719 4.222656 3.683594 8.753906 7.113281 13.628906 10.230468 5.472656 3.511719 11.136719 6.488282 16.921875 8.953126 3.996094 1.699218 8.074219 3.144531 12.15625 4.363281-1.839844-1.050781-3.710938-2.183594-5.527344-3.34375-13.433594-8.613281-24.429687-19.578125-32.789062-32.042969-5.78125-8.585938-10.285156-17.851562-13.488282-27.542969zm0 0" fill="#ce4d78"/><path d="m77.804688 205.925781c-11.078126-7.113281-25.304688-5.269531-34.289063 3.625.027344 15.554688 3.230469 30.996094 9.464844 45.246094 11.960937 4.675781 25.449219 1.191406 33.15625-10.820313 7.710937-12.011718 4.480469-29.835937-8.332031-38.050781zm0 0" fill="#9bdeda"/><path d="m253.230469 250.039062c-19.441407-12.464843-45.285157-6.800781-57.726563 12.609376-10.542968 16.460937-8.105468 37.511718 4.703125 51.140624 20.433594-8.527343 38.570313-23.148437 51.4375-43.207031 3.175781-4.957031 5.921875-10.058593 8.21875-15.242187-1.984375-1.957032-4.195312-3.742188-6.632812-5.300782zm0 0" fill="#9bdeda"/><path d="m219.476562 162.917969c-11.703124-7.507813-27.261718-4.109375-34.769531 7.59375-7.511719 11.699219-4.109375 27.253906 7.59375 34.761719 11.707031 7.507812 27.261719 4.109374 34.773438-7.59375 7.507812-11.703126 4.109375-27.253907-7.597657-34.761719zm0 0" fill="#9bdeda"/><path d="m68.425781 202.101562c-8.925781-1.8125-18.335937.933594-24.910156 7.449219.027344 15.554688 3.230469 30.996094 9.464844 45.246094 6.546875 2.550781 13.574219 2.664063 19.835937.285156-5.578125-16.941406-7.167968-35.132812-4.390625-52.980469zm0 0" fill="#4bc6c0"/></g><path d="m328.679688 307.371094c-17.835938-2.71875-34.566407 9.5625-37.289063 27.363281-2.757813 17.820313 9.523437 34.558594 27.382813 37.320313 1.675781.253906 3.347656.382812 5.011718.382812 6.910156 0 13.621094-2.183594 19.296875-6.347656 7.054688-5.171875 11.664063-12.777344 12.984375-21.414063 2.71875-17.8125-9.5625-34.546875-27.386718-37.304687zm12.445312 35.027344c-.710938 4.648437-3.191406 8.734374-6.984375 11.515624s-8.441406 3.921876-13.070313 3.214844c-9.613281-1.488281-16.226562-10.496094-14.742187-20.097656 1.328125-8.691406 8.851563-14.933594 17.390625-14.933594.878906 0 1.769531.066406 2.664062.203125 9.59375 1.480469 16.207032 10.5 14.742188 20.097657zm0 0"/><path d="m188.21875 211.628906c5.339844 3.425782 11.414062 5.195313 17.609375 5.191406 2.34375 0 4.703125-.25 7.046875-.761718 8.535156-1.867188 15.835938-6.945313 20.558594-14.300782 9.742187-15.179687 5.3125-35.453124-9.875-45.195312-7.359375-4.71875-16.113282-6.292969-24.65625-4.429688-8.535156 1.867188-15.839844 6.945313-20.558594 14.300782-9.742188 15.179687-5.3125 35.453125 9.875 45.195312zm2.847656-37.042968c2.542969-3.960938 6.472656-6.695313 11.066406-7.699219 1.257813-.277344 2.527344-.414063 3.789063-.414063 3.332031 0 6.597656.953125 9.472656 2.796875 8.175781 5.242188 10.5625 16.160157 5.316407 24.332031-2.542969 3.960938-6.472657 6.699219-11.066407 7.699219-4.589843 1.003907-9.300781.15625-13.261719-2.382812-8.175781-5.242188-10.5625-16.160157-5.316406-24.332031zm0 0"/><path d="m443.761719 38.046875c-17.558594-19.933594-36.949219-29.011719-54.800781-25.597656-18.085938 3.457031-32.722657 19.304687-41.21875 44.652343l-7.804688 23.582032c-9.117188-2.132813-18.558594-3.21875-28.175781-3.175782-3.710938-16.675781-16.925781-30.730468-37.792969-40.078124-15.410156-25.078126-44.800781-37.183594-73.074219-30.113282-24.6875-9.757812-46.074219-9.03125-60.417969 2.117188-14.542968 11.296875-20.371093 32.074218-16.410156 58.519531l3.769532 24.601563c-13.25 3.238281-26.070313 8.734374-37.847657 16.519531-3.480469 2.304687-4.433593 6.988281-2.132812 10.464843 2.304687 3.476563 6.996093 4.429688 10.476562 2.128907 12.042969-7.960938 25.328125-13.203125 39.011719-15.730469.0625-.007812.125-.007812.183594-.015625.117187-.019531.230468-.046875.34375-.070313 25.039062-4.488281 51.351562.136719 73.789062 13.902344.109375.074219.226563.140625.339844.210938.480469.296875.964844.578125 1.441406.882812 41.488282 26.601563 58.066406 77.605469 43.039063 122.332032-10.925781-6.714844-23.792969-8.914063-36.351563-6.167969-12.875 2.816406-23.878906 10.472656-30.992187 21.566406-10.199219 15.925781-10.277344 35.863281-1.011719 51.601563-2.972656.929687-6 1.738281-9.082031 2.414062-.203125.042969-.410157.082031-.613281.125-.003907 0-.003907 0-.007813 0-.277344.042969-.550781.097656-.816406.167969-15.558594 3.179687-31.308594 2.828125-46.3125-.886719-.425781-.148438-.867188-.261719-1.328125-.332031-4.765625-1.25-9.457032-2.835938-14.039063-4.757813-.175781-.089844-.351562-.179687-.539062-.257812-.117188-.050782-.242188-.085938-.363281-.128906-5.292969-2.285157-10.441407-5.011719-15.394532-8.1875-14.007812-8.980469-25.171875-20.746094-33.242187-34.109376 10.394531-.910156 19.945312-6.566406 26.113281-16.175781 10.269531-16.003906 5.410156-38.207031-10.609375-48.480469-9.179687-5.890624-20.097656-7.082031-29.851563-3.878906 1.957032-14.878906 7.125-29.566406 15.753907-43.015625 2.066406-3.230469 4.375-6.425781 6.855469-9.503906 2.621093-3.246094 2.113281-8-1.136719-10.617187-3.25-2.617188-8.007813-2.109376-10.628907 1.136718-2.824218 3.503906-5.457031 7.152344-7.820312 10.839844-11.011719 17.164062-17.542969 37.0625-18.800781 57.421875-1.113281 17.972656.976562 40.683594 10.179687 56.621094 1.9375 4.363281 4.132813 8.625 6.589844 12.753906l-22.511719 16.203125c-21.625 15.683594-32.371093 34.390625-30.257812 52.675781 2.085937 18.046875 16.542969 33.820313 40.804687 44.609375 14.78125 25.128906 44.011719 37.605469 72.679688 31.015625 10.195312 3.996094 19.929687 5.988281 28.902344 5.988281 11.464843 0 21.679687-3.25 30.003906-9.726562 8.390625-6.523438 14.25-15.9375 17.347656-27.386719 2.347656 2.660157 4.808594 5.207031 7.371094 7.640625.207031.21875.429687.425782.664062.617188 17.566406 16.433594 39.824219 27.40625 64.046875 31.105468 6.210938.957032 12.417969 1.429688 18.582031 1.429688 25.429688 0 50.125-8.039062 71.023438-23.371094 9.109375-6.683594 17.113281-14.476562 23.878906-23.148437l18.882813 10.898437c14.144531 8.203125 28.1875 12.355469 40.914062 12.355469 9.121094 0 17.570313-2.136719 24.894531-6.449219 16.207032-9.546875 25.09375-28.441406 25.171876-53.371094 16.664062-24.25 15.808593-56.011718-2.117188-78.976562-1.085938-26.542969-10.4375-45.800781-26.472656-54.378906-7.1875-3.84375-15.371094-5.371094-24.21875-4.640625.164062-2.941407.203125-5.867188.152344-8.789063l21.5625-3.4375c27.726562-4.335937 47.710937-17.75 54.832031-36.800781 6.582031-17.613281 1.597656-37.886719-14.03125-57.320313-2.335938-29.335937-23-53.472656-51.375-60.023437zm-392.5625 174.875c6.597656-4.808594 15.464843-5.171875 22.523437-.640625 8.976563 5.753906 11.804688 18.660156 6.054688 27.621094-4.8125 7.5-12.871094 10.746094-21.117188 8.769531-4.53125-11.386719-7.058594-23.496094-7.460937-35.75zm112.171875 187.253906c-10.84375 8.433594-27.230469 8.707031-46.136719.773438-1.546875-.648438-3.269531-.765625-4.894531-.328125-23.523438 6.339844-47.894532-4.058594-59.269532-25.289063-.820312-1.527343-2.136718-2.726562-3.734374-3.394531-20.464844-8.597656-32.558594-20.480469-34.058594-33.464844-1.460938-12.628906 7.105468-26.378906 24.097656-38.703125l22.183594-15.964843c6.527344 8.371093 14.257812 15.980468 23.128906 22.554687l-18.804688 18.84375c-2.945312 2.949219-2.9375 7.730469.015626 10.675781 1.476562 1.472656 3.40625 2.207032 5.335937 2.207032 1.9375 0 3.875-.742188 5.351563-2.222657l21.074218-21.113281c1.65625.929688 3.324219 1.835938 5.015625 2.683594l-18.402343 43.871094c-1.613282 3.84375.199218 8.269531 4.050781 9.882812.953125.398438 1.941406.585938 2.917969.585938 2.953124 0 5.757812-1.738282 6.972656-4.632813l18.371094-43.800781c1.484374.523437 2.972656 1.019531 4.472656 1.480468l-.753906 29.691407c-.105469 4.167969 3.191406 7.632812 7.363281 7.738281.0625.003906.128906.003906.195312.003906 4.082031 0 7.445313-3.257812 7.550781-7.359375l.671876-26.464843c6.660156 1.148437 13.417968 1.738281 20.21875 1.738281 5.609374 0 11.242187-.402344 16.871093-1.195313l3.238281 22.035156c3.339844 22.203126-1.410156 40.125-13.042968 49.167969zm149.125-307.574219c10.050781.019532 19.882812 1.441407 29.253906 4.15625.234375.105469.480469.203126.730469.285157.34375.113281.6875.191406 1.035156.253906 13.757813 4.246094 26.476563 11.277344 37.402344 20.683594.167969.160156.339843.3125.523437.457031 4.039063 3.523438 7.832032 7.367188 11.328125 11.523438.074219.09375.136719.1875.210938.277343.042969.054688.09375.097657.140625.148438 3.734375 4.488281 7.144531 9.324219 10.160156 14.492187 11.238281 19.234375 16.011719 40.878906 13.929688 62.875-6.640626 2.273438-13.507813 5.640625-20.492188 10.085938l-21.019531 13.445312c-18.261719-23.621094-45.25-40.558594-77.023438-45.429687-8.035156-1.242188-16.175781-1.652344-24.285156-1.257813-2.351563-11.078125-6.25-21.828125-11.621094-31.890625l17.683594-12.890625c18.800781-13.632812 30.039063-30.390625 32.042969-47.214844zm-57.683594 47.214844c-7.347656-10.375-16.449219-19.714844-27.195312-27.550781l18.570312-18.949219c2.921875-2.980468 2.871094-7.761718-.109375-10.679687-2.980469-2.914063-7.765625-2.867188-10.6875.113281l-20.808594 21.230469c-1.371093-.753907-2.753906-1.484375-4.148437-2.179688l18.6875-43.726562c1.636718-3.835938-.144532-8.269531-3.984375-9.910157-3.835938-1.636718-8.277344.144532-9.917969 3.980469l-18.707031 43.769531c-1.796875-.628906-3.609375-1.21875-5.429688-1.761718l.5-29.851563c.066407-4.167969-3.257812-7.605469-7.429687-7.675781-4.136719-.042969-7.613282 3.257812-7.683594 7.425781l-.445312 26.632813c-11.019532-1.804688-22.230469-2.078125-33.304688-.808594l-3.703125-24.183594c-3.117187-20.789062.699219-36.53125 10.738281-44.335937 10.316406-8.015625 27.265625-7.703125 47.726563.878906 1.601562.671875 3.386719.773437 5.054687.285156 23.101563-6.765625 47.605469 3.332031 59.589844 24.566407.824219 1.460937 2.105469 2.605468 3.652344 3.253906 18.894531 7.933594 30.167968 19.816406 31.746094 33.464844 1.691406 14.640624-7.761719 30.601562-25.960938 43.800781zm-52.945312 126.902344c4.929687-7.691406 12.5625-13 21.488281-14.953125 8.9375-1.949219 18.09375-.308594 25.804687 4.636719.464844.296875.925782.609375 1.378906.933594-1.582031 3.109374-3.335937 6.175781-5.257812 9.171874-10.671875 16.652344-25.457031 29.671876-42.84375 38.035157-7.6875-11.191407-8.09375-26.078125-.570312-37.824219zm10.359374 118.664062c7.117188-11.550781 20.539063-17.941406 34.296876-15.824218 18.648437 2.871094 31.503906 20.378906 28.660156 38.984375-.089844.574219-.195313 1.136719-.308594 1.695312-3.492188-.191406-6.996094-.554687-10.496094-1.09375-19.449218-2.972656-37.445312-11.296875-52.152344-23.761719zm155.410157-21.160156c-.269531.324219-.515625.664063-.734375 1.039063-.011719.019531-.019532.042969-.03125.0625-6.542969 9.355469-14.648438 17.679687-24.125 24.632812-15.632813 11.46875-33.695313 18.269531-52.511719 19.996094 3.554687-26.523437-14.839844-51.226563-41.40625-55.320313-18.6875-2.878906-36.9375 5.128907-47.574219 19.980469-3.132812-3.558593-6.046875-7.34375-8.703125-11.34375-.046875-4.65625-.4375-9.492187-1.191406-14.480469l-3.355469-22.839843c28.996094-7.800781 53.695313-25.851563 70.003906-51.292969 3.402344-5.300781 6.332032-10.773438 8.804688-16.359375.03125-.074219.0625-.144531.089844-.214844 8.261718-18.769531 11.359375-38.871093 9.707031-58.460937 6.605469-.230469 13.226563.152344 19.769531 1.160156 51.332032 7.871094 88.382813 51.738281 89.421875 101.96875-.003906.125-.015625.25-.015625.378906.003906.121094.015625.238282.023438.359375.078125 5.761719-.308594 11.601563-1.210938 17.480469-2.425781 15.761719-8.25 30.453125-16.960937 43.253906zm82.066406-141.851562c11.53125 6.171875 18.132813 21.796875 18.582031 44 .03125 1.734375.664063 3.402344 1.785156 4.726562 15.554688 18.367188 16.261719 44.859375 1.714844 64.425782-1 1.34375-1.523437 2.980468-1.488281 4.65625.417969 20.496093-5.871094 35.621093-17.714844 42.597656-12.695312 7.476562-31.117187 5.304687-50.558593-5.96875l-17.914063-10.335938c6.566406-11.070312 11.335937-23.207031 14.101563-36.054687l24.847656 9.285156c.871094.324219 1.765625.480469 2.648437.480469 3.058594 0 5.941407-1.875 7.078125-4.90625 1.460938-3.90625-.523437-8.257813-4.433594-9.71875l-27.847656-10.410156c.132813-1.5625.230469-3.121094.304688-4.679688l47.53125-.660156c4.175781-.058594 7.511718-3.488282 7.453125-7.65625-.058594-4.132813-3.429688-7.445313-7.554688-7.445313-.035156 0-.070312 0-.105469 0l-47.578124.664063c-.152344-1.902344-.347657-3.796875-.589844-5.679688l27.449218-11.648437c3.839844-1.632813 5.632813-6.066407 4-9.902344-1.632812-3.839844-6.070312-5.628906-9.910156-4l-24.492187 10.394531c-2.851563-10.859375-7.195313-21.195312-12.835938-30.742187l20.679688-13.226563c17.71875-11.277344 33.644531-14.1875 44.847656-8.195312zm45.308594-72.265625c-5.15625 13.792969-20.835938 23.695312-43.035157 27.171875l-20.421874 3.253906c-1.859376-12.761719-5.808594-25.160156-11.761719-36.878906l25.175781-8.425782c3.957031-1.324218 6.089844-5.605468 4.765625-9.558593s-5.609375-6.085938-9.566406-4.761719l-28.195313 9.4375c-.882812-1.304688-1.78125-2.585938-2.707031-3.84375l36.5-30.433594c3.207031-2.671875 3.636719-7.433594.960937-10.636718-2.675781-3.203126-7.4375-3.628907-10.644531-.957032l-36.511719 30.441406c-1.3125-1.386718-2.644531-2.746093-4.015624-4.0625l13.984374-26.304687c1.957032-3.683594.558594-8.253906-3.128906-10.210937-3.683594-1.953126-8.261718-.554688-10.21875 3.128906l-12.460937 23.4375c-8.988281-6.632813-18.847657-11.972656-29.316407-15.867188l7.667969-23.164062c6.675781-19.917969 17.230469-32.203125 29.71875-34.585938 12.839844-2.453125 27.800781 5.535156 42.132813 22.496094 1.117187 1.324219 2.660156 2.226562 4.367187 2.546875 23.632813 4.46875 40.859375 24.609375 41.890625 48.972656.074219 1.667969.695313 3.269531 1.773438 4.546875 13.222656 15.667969 17.859375 31.386719 13.046875 44.257813zm0 0"/></svg>