<?xml version="1.0" encoding="UTF-8" standalone="no"?>
<!-- Created with Inkscape (http://www.inkscape.org/) -->

<svg
   version="1.1"
   id="svg9"
   xml:space="preserve"
   width="682.66669"
   height="682.66669"
   viewBox="0 0 682.66669 682.66669"
   xmlns="http://www.w3.org/2000/svg"
   xmlns:svg="http://www.w3.org/2000/svg"><defs
     id="defs13"><clipPath
       clipPathUnits="userSpaceOnUse"
       id="clipPath23"><path
         d="M 0,512 H 512 V 0 H 0 Z"
         id="path21" /></clipPath></defs><g
     id="g15"
     transform="matrix(1.3333333,0,0,-1.3333333,0,682.66667)"><g
       id="g17"><g
         id="g19"
         clip-path="url(#clipPath23)"><g
           id="g25"
           transform="translate(446.3369,213.2476)"><path
             d="m 0,0 c -19.753,5.124 -40.23,-5.261 -47.768,-24.225 l -8.282,-20.836 -73.036,-33.907 v -67.775 l 6.852,-0.563 c 7.995,-0.656 15.999,1.154 22.933,5.187 l 83.77,48.725 c 8.457,4.92 14.771,12.823 17.702,22.158 l 13.496,42.991 C 19.485,-16.082 12.34,-3.201 0,0"
             style="fill:#f89f8e;fill-opacity:1;fill-rule:nonzero;stroke:none"
             id="path27" /></g><g
           id="g29"
           transform="translate(446.3369,213.2476)"><path
             d="m 0,0 c -19.753,5.124 -40.23,-5.261 -47.768,-24.225 l -8.282,-20.836 -73.036,-33.907 v -67.775 l 6.852,-0.563 c 7.995,-0.656 15.999,1.154 22.933,5.187 l 83.77,48.725 c 8.457,4.92 14.771,12.823 17.702,22.158 l 13.496,42.991 C 19.485,-16.082 12.34,-3.201 0,0 Z"
             style="fill:none;stroke:#000000;stroke-width:15;stroke-linecap:round;stroke-linejoin:round;stroke-miterlimit:10;stroke-dasharray:none;stroke-opacity:1"
             id="path31" /></g><g
           id="g33"
           transform="translate(284.4678,289.0952)"><path
             d="M 0,0 -2.218,27.016 H -36.767 L -38.985,0 c -0.815,-9.928 -8.161,-18.153 -17.967,-19.904 -50.109,-8.948 -88.146,-52.742 -88.146,-105.424 v -63.479 h 251.211 v 63.479 c 0,52.682 -38.037,96.476 -88.146,105.424 C 8.161,-18.153 0.815,-9.928 0,0"
             style="fill:#fcc16d;fill-opacity:1;fill-rule:nonzero;stroke:none"
             id="path35" /></g><g
           id="g37"
           transform="translate(390.5786,163.7686)"><path
             d="M 0,0 V -63.48 H -26.19 V 0 c 0,52.68 -38.04,96.47 -88.15,105.42 -9.8,1.75 -17.15,9.98 -17.97,19.91 l -2.21,27.01 h 26.19 l 2.22,-27.01 c 0.81,-9.93 8.16,-18.16 17.97,-19.91 C -38.04,96.47 0,52.68 0,0"
             style="fill:#fcb44d;fill-opacity:1;fill-rule:nonzero;stroke:none"
             id="path39" /></g><g
           id="g41"
           transform="translate(338.9453,255.3984)"><path
             d="m 0,0 -1.12,-1.96 c -14.88,-26.13 -42.8,-42.37 -72.85,-42.37 -30.05,0 -57.97,16.24 -72.85,42.37 L -147.94,0 c 11.02,6.69 23.35,11.44 36.51,13.79 9.81,1.75 17.15,9.98 17.97,19.91 l 2.22,27.01 h 34.54 l 2.22,-27.01 c 0.82,-9.93 8.16,-18.16 17.97,-19.91 C -23.35,11.44 -11.02,6.69 0,0"
             style="fill:#f2eff2;fill-opacity:1;fill-rule:nonzero;stroke:none"
             id="path43" /></g><g
           id="g45"
           transform="translate(338.9487,255.3984)"><path
             d="m 0,0 -1.12,-1.96 c -2.26,-3.97 -4.83,-7.72 -7.66,-11.21 -14.73,13.69 -33.3,23.28 -53.93,26.96 -9.8,1.75 -17.15,9.98 -17.97,19.91 l -2.21,27.01 h 26.19 l 2.22,-27.01 c 0.82,-9.93 8.16,-18.16 17.97,-19.91 C -23.35,11.44 -11.02,6.69 0,0"
             style="fill:#e1dde1;fill-opacity:1;fill-rule:nonzero;stroke:none"
             id="path47" /></g><g
           id="g49"
           transform="translate(337.8252,253.4385)"><path
             d="m 0,0 c -14.88,-26.13 -42.8,-42.37 -72.85,-42.37 -30.05,0 -57.97,16.24 -72.85,42.37"
             style="fill:none;stroke:#000000;stroke-width:15;stroke-linecap:round;stroke-linejoin:round;stroke-miterlimit:10;stroke-dasharray:none;stroke-opacity:1"
             id="path51" /></g><g
           id="g53"
           transform="translate(316.0952,265.8086)"><path
             d="m 0,0 c -10.11,-17.76 -29.22,-29.74 -51.12,-29.74 -21.9,0 -41.01,11.98 -51.12,29.74 4.44,1.41 9,2.55 13.66,3.38 9.81,1.75 17.15,9.98 17.97,19.91 l 2.22,27.01 h 34.54 l 2.22,-27.01 C -30.81,13.36 -23.47,5.13 -13.66,3.38 -9,2.55 -4.44,1.41 0,0"
             style="fill:#fdb0a0;fill-opacity:1;fill-rule:nonzero;stroke:none"
             id="path55" /></g><g
           id="g57"
           transform="translate(288.0386,278.7388)"><path
             d="m 0,0 c -7,-1.73 -14.32,-2.65 -21.85,-2.65 -8.28,0 -16.3,1.11 -23.93,3.18 1.8,2.91 2.93,6.26 3.23,9.83 l 2.22,27.01 H -5.79 L -3.57,10.36 C -3.26,6.57 -1.99,3.03 0,0"
             style="fill:#f89f8e;fill-opacity:1;fill-rule:nonzero;stroke:none"
             id="path59" /></g><g
           id="g61"
           transform="translate(316.0986,265.8086)"><path
             d="m 0,0 c -3.27,-5.74 -7.47,-10.87 -12.41,-15.18 -4.01,1.08 -8.09,2 -12.23,2.74 -13.42,2.39 -23.47,13.66 -24.59,27.25 l -2.92,35.49 h 18.3 l 2.22,-27.01 C -30.81,13.36 -23.47,5.13 -13.66,3.38 -9,2.55 -4.44,1.41 0,0"
             style="fill:#f89f8e;fill-opacity:1;fill-rule:nonzero;stroke:none"
             id="path63" /></g><g
           id="g65"
           transform="translate(316.0952,265.8086)"><path
             d="m 0,0 c -10.11,-17.76 -29.22,-29.74 -51.12,-29.74 -21.9,0 -41.01,11.98 -51.12,29.74"
             style="fill:none;stroke:#000000;stroke-width:15;stroke-linecap:round;stroke-linejoin:round;stroke-miterlimit:10;stroke-dasharray:none;stroke-opacity:1"
             id="path67" /></g><g
           id="g69"
           transform="translate(284.4678,289.0952)"><path
             d="M 0,0 -2.218,27.016 H -36.767 L -38.985,0 c -0.815,-9.928 -8.161,-18.153 -17.967,-19.904 -50.109,-8.948 -88.146,-52.742 -88.146,-105.424 v -63.479 h 251.211 v 63.479 c 0,52.682 -38.037,96.476 -88.146,105.424 C 8.161,-18.153 0.815,-9.928 0,0 Z"
             style="fill:none;stroke:#000000;stroke-width:15;stroke-linecap:round;stroke-linejoin:round;stroke-miterlimit:10;stroke-dasharray:none;stroke-opacity:1"
             id="path71" /></g><g
           id="g73"
           transform="translate(119.3359,370.7012)"><path
             d="m 0,0 c 0,-5.427 1.013,-10.619 2.854,-15.407 4.787,-1.84 9.98,-2.854 15.407,-2.854 23.718,0 42.946,19.228 42.946,42.962 0,5.427 -1.014,10.62 -2.854,15.407 -4.772,1.841 -9.964,2.854 -15.407,2.854 C 19.228,42.962 0,23.734 0,0"
             style="fill:#554e55;fill-opacity:1;fill-rule:nonzero;stroke:none"
             id="path75" /></g><g
           id="g77"
           transform="translate(180.5464,395.4043)"><path
             d="m 0,0 c 0,-23.739 -19.231,-42.958 -42.947,-42.958 -5.43,0 -10.618,1.003 -15.415,2.848 -1.291,3.378 -2.179,6.964 -2.594,10.687 1.291,-0.115 2.583,-0.173 3.897,-0.173 23.716,0 42.947,19.231 42.947,42.97 0,1.591 -0.093,3.159 -0.254,4.716 4.024,-0.369 7.887,-1.292 11.507,-2.687 C -1.015,10.619 0,5.431 0,0"
             style="fill:#433f43;fill-opacity:1;fill-rule:nonzero;stroke:none"
             id="path79" /></g><g
           id="g81"
           transform="translate(119.3359,370.7012)"><path
             d="m 0,0 c 0,-5.427 1.013,-10.619 2.854,-15.407 4.787,-1.84 9.98,-2.854 15.407,-2.854 23.718,0 42.946,19.228 42.946,42.962 0,5.427 -1.014,10.62 -2.854,15.407 -4.772,1.841 -9.964,2.854 -15.407,2.854 C 19.228,42.962 0,23.734 0,0 Z"
             style="fill:none;stroke:#000000;stroke-width:15;stroke-linecap:round;stroke-linejoin:round;stroke-miterlimit:10;stroke-dasharray:none;stroke-opacity:1"
             id="path83" /></g><g
           id="g85"
           transform="translate(410.6152,370.7012)"><path
             d="m 0,0 c 0,-5.427 -1.014,-10.619 -2.854,-15.407 -4.787,-1.84 -9.98,-2.854 -15.407,-2.854 -23.718,0 -42.946,19.228 -42.946,42.962 0,5.427 1.013,10.62 2.853,15.407 4.772,1.841 9.965,2.854 15.407,2.854 C -19.228,42.962 0,23.734 0,0"
             style="fill:#554e55;fill-opacity:1;fill-rule:nonzero;stroke:none"
             id="path87" /></g><g
           id="g89"
           transform="translate(410.6138,370.6968)"><path
             d="m 0,0 c 0,-5.418 -1.015,-10.618 -2.848,-15.403 -4.796,-1.845 -9.984,-2.847 -15.414,-2.847 -0.877,0 -1.741,0.022 -2.606,0.08 0.531,2.687 0.807,5.465 0.807,8.301 0,22.863 -17.824,41.529 -40.33,42.878 0.473,2.444 1.165,4.83 2.041,7.102 4.773,1.845 9.962,2.859 15.403,2.859 C -19.231,42.97 0,23.739 0,0"
             style="fill:#433f43;fill-opacity:1;fill-rule:nonzero;stroke:none"
             id="path91" /></g><g
           id="g93"
           transform="translate(410.6152,370.7012)"><path
             d="m 0,0 c 0,-5.427 -1.014,-10.619 -2.854,-15.407 -4.787,-1.84 -9.98,-2.854 -15.407,-2.854 -23.718,0 -42.946,19.228 -42.946,42.962 0,5.427 1.013,10.62 2.853,15.407 4.772,1.841 9.965,2.854 15.407,2.854 C -19.228,42.962 0,23.734 0,0 Z"
             style="fill:none;stroke:#000000;stroke-width:15;stroke-linecap:round;stroke-linejoin:round;stroke-miterlimit:10;stroke-dasharray:none;stroke-opacity:1"
             id="path95" /></g><g
           id="g97"
           transform="translate(355.7817,385.5127)"><path
             d="m 0,0 c 0,-50.151 -40.655,-90.807 -90.806,-90.807 -50.152,0 -90.807,40.656 -90.807,90.807 0,50.151 40.655,90.806 90.807,90.806 C -40.655,90.806 0,50.151 0,0"
             style="fill:#ffcec0;fill-opacity:1;fill-rule:nonzero;stroke:none"
             id="path99" /></g><g
           id="g101"
           transform="translate(224.1816,362.8105)"><path
             d="m 0,0 c 0,-5.727 -4.643,-10.37 -10.37,-10.37 -5.727,0 -10.37,4.643 -10.37,10.37 0,5.727 4.643,10.37 10.37,10.37 C -4.643,10.37 0,5.727 0,0"
             style="fill:#fc9aa1;fill-opacity:1;fill-rule:nonzero;stroke:none"
             id="path103" /></g><g
           id="g105"
           transform="translate(326.5093,362.8105)"><path
             d="m 0,0 c 0,-5.727 -4.643,-10.37 -10.37,-10.37 -5.727,0 -10.37,4.643 -10.37,10.37 0,5.727 4.643,10.37 10.37,10.37 C -4.643,10.37 0,5.727 0,0"
             style="fill:#fc9aa1;fill-opacity:1;fill-rule:nonzero;stroke:none"
             id="path107" /></g><g
           id="g109"
           transform="translate(213.9868,310.3657)"><path
             d="m 0,0 c 14.536,-9.882 32.087,-15.66 50.989,-15.66 50.151,0 90.806,40.656 90.806,90.807 0,50.151 -40.655,90.806 -90.806,90.806 -50.152,0 -90.807,-40.655 -90.807,-90.806 0,-18.125 5.313,-35.008 14.463,-49.182"
             style="fill:none;stroke:#000000;stroke-width:15;stroke-linecap:round;stroke-linejoin:round;stroke-miterlimit:10;stroke-dasharray:none;stroke-opacity:1"
             id="path111" /></g><g
           id="g113"
           transform="translate(172.7212,433.4448)"><path
             d="m 0,0 c 0,-8.976 1.676,-17.564 4.72,-25.482 7.917,-3.043 16.506,-4.72 25.482,-4.72 39.228,0 71.029,31.801 71.029,71.056 0,8.975 -1.676,17.563 -4.72,25.481 -7.892,3.044 -16.48,4.72 -25.482,4.72 C 31.801,71.055 0,39.254 0,0"
             style="fill:#554e55;fill-opacity:1;fill-rule:nonzero;stroke:none"
             id="path115" /></g><g
           id="g117"
           transform="translate(273.957,474.2998)"><path
             d="m 0,0 c 0,-39.257 -31.81,-71.056 -71.033,-71.056 -8.981,0 -17.57,1.672 -25.479,4.716 -2.052,5.35 -3.494,11.01 -4.209,16.879 6.538,-2.352 13.571,-3.643 20.915,-3.643 34.161,0 61.843,27.693 61.843,61.866 0,7.344 -1.28,14.388 -3.632,20.926 5.88,-0.715 11.541,-2.156 16.868,-4.209 C -1.684,17.559 0,8.97 0,0"
             style="fill:#433f43;fill-opacity:1;fill-rule:nonzero;stroke:none"
             id="path119" /></g><g
           id="g121"
           transform="translate(172.7212,433.4448)"><path
             d="m 0,0 c 0,-8.976 1.676,-17.564 4.72,-25.482 7.917,-3.043 16.506,-4.72 25.482,-4.72 39.228,0 71.029,31.801 71.029,71.056 0,8.975 -1.676,17.563 -4.72,25.481 -7.892,3.044 -16.48,4.72 -25.482,4.72 C 31.801,71.055 0,39.254 0,0 Z"
             style="fill:none;stroke:#000000;stroke-width:15;stroke-linecap:round;stroke-linejoin:round;stroke-miterlimit:10;stroke-dasharray:none;stroke-opacity:1"
             id="path123" /></g><g
           id="g125"
           transform="translate(357.23,433.4448)"><path
             d="m 0,0 c 0,-8.976 -1.676,-17.564 -4.72,-25.482 -7.918,-3.043 -16.507,-4.72 -25.482,-4.72 -39.228,0 -71.029,31.801 -71.029,71.056 0,8.975 1.676,17.563 4.72,25.481 7.892,3.044 16.48,4.72 25.481,4.72 C -31.801,71.055 0,39.254 0,0"
             style="fill:#685e67;fill-opacity:1;fill-rule:nonzero;stroke:none"
             id="path127" /></g><g
           id="g129"
           transform="translate(357.2329,433.4395)"><path
             d="m 0,0 c 0,-8.97 -1.683,-17.559 -4.727,-25.479 -6.721,-2.583 -13.939,-4.186 -21.456,-4.601 2.721,6.987 4.37,14.538 4.75,22.436 1.822,39.211 -28.466,72.462 -67.654,74.284 -2.213,0.104 -4.415,0.104 -6.595,0.011 7.656,2.848 15.957,4.405 24.65,4.405 C -31.809,71.056 0,39.257 0,0"
             style="fill:#554e55;fill-opacity:1;fill-rule:nonzero;stroke:none"
             id="path131" /></g><g
           id="g133"
           transform="translate(336.9722,483.1196)"><path
             d="m 0,0 c -12.895,13.188 -30.873,21.38 -50.772,21.38 -9.001,0 -17.589,-1.676 -25.481,-4.719 -3.044,-7.918 -4.721,-16.507 -4.721,-25.482 0,-39.255 31.802,-71.055 71.03,-71.055 8.975,0 17.564,1.676 25.482,4.72 3.044,7.917 4.72,16.506 4.72,25.481 0,6.261 -0.817,12.33 -2.337,18.113"
             style="fill:none;stroke:#000000;stroke-width:15;stroke-linecap:round;stroke-linejoin:round;stroke-miterlimit:10;stroke-dasharray:none;stroke-opacity:1"
             id="path135" /></g><g
           id="g137"
           transform="translate(248.9824,342.9883)"><path
             d="m 0,0 c 4.107,-4.067 9.756,-6.581 15.993,-6.581 6.237,0 11.886,2.514 15.993,6.581"
             style="fill:none;stroke:#000000;stroke-width:15;stroke-linecap:round;stroke-linejoin:round;stroke-miterlimit:10;stroke-dasharray:none;stroke-opacity:1"
             id="path139" /></g><g
           id="g141"
           transform="translate(224.1816,376.2197)"><path
             d="M 0,0 V 0.119"
             style="fill:none;stroke:#000000;stroke-width:15;stroke-linecap:round;stroke-linejoin:round;stroke-miterlimit:10;stroke-dasharray:none;stroke-opacity:1"
             id="path143" /></g><g
           id="g145"
           transform="translate(305.7695,376.2197)"><path
             d="M 0,0 V 0.119"
             style="fill:none;stroke:#000000;stroke-width:15;stroke-linecap:round;stroke-linejoin:round;stroke-miterlimit:10;stroke-dasharray:none;stroke-opacity:1"
             id="path147" /></g><g
           id="g149"
           transform="translate(16.689,7.502)"><path
             d="M 0,0 81.811,58.498 339.689,37.314 c 7.995,-0.656 15.999,1.154 22.933,5.187 l 83.77,48.725 c 8.457,4.92 14.771,12.823 17.702,22.158 l 13.495,42.991 c 3.819,12.163 -3.326,25.044 -15.666,28.245 -19.753,5.123 -40.231,-5.262 -47.768,-24.225 l -8.281,-20.836 -73.805,-34.264 -37.995,11.7 -82.733,53.674 L 0,117.958 Z"
             style="fill:#ffcec0;fill-opacity:1;fill-rule:nonzero;stroke:none"
             id="path151" /></g><g
           id="g153"
           transform="translate(494.2822,163.8726)"><path
             d="m 0,0 -13.501,-42.981 c -2.928,-9.339 -9.247,-17.248 -17.697,-22.16 l -83.772,-48.723 c -6.929,-4.035 -14.943,-5.845 -22.932,-5.188 l -257.877,21.179 -81.812,-58.5 v 32.986 l 66.848,47.804 c 4.467,3.194 9.94,4.659 15.405,4.124 l 245.053,-24.016 c 7.494,-0.61 15.012,1.084 21.514,4.866 l 78.572,45.702 c 7.932,4.612 13.847,12.025 16.603,20.787 l 12.659,40.319 c 1.395,4.45 1.222,8.992 -0.173,13.074 1.81,-0.208 3.631,-0.554 5.442,-1.026 C -3.332,25.053 3.816,12.163 0,0"
             style="fill:#fdb0a0;fill-opacity:1;fill-rule:nonzero;stroke:none"
             id="path155" /></g><g
           id="g157"
           transform="translate(237.5869,54.5742)"><path
             d="m 0,0 118.791,-9.758 c 7.995,-0.657 15.999,1.154 22.933,5.187 l 83.77,48.725 c 8.457,4.92 14.771,12.823 17.702,22.158 l 13.495,42.991 c 3.819,12.163 -3.326,25.044 -15.666,28.245 v 0 c -19.753,5.123 -40.231,-5.262 -47.768,-24.226 L 184.976,92.486 111.171,58.224 73.176,69.923 -9.557,123.597"
             style="fill:none;stroke:#000000;stroke-width:15;stroke-linecap:round;stroke-linejoin:round;stroke-miterlimit:10;stroke-dasharray:none;stroke-opacity:1"
             id="path159" /></g><g
           id="g161"
           transform="translate(16.689,7.502)"><path
             d="m 0,0 81.811,58.498 103.104,-8.47"
             style="fill:none;stroke:#000000;stroke-width:15;stroke-linecap:round;stroke-linejoin:round;stroke-miterlimit:10;stroke-dasharray:none;stroke-opacity:1"
             id="path163" /></g><g
           id="g165"
           transform="translate(16.689,139.9932)"><path
             d="m 0,0 63.122,38.931 c 10.7,6.6 22.501,11.221 34.837,13.644 l 58.446,11.474 c 15.569,3.057 31.703,1.185 46.159,-5.353 l 54.537,-24.669 c 21.52,-9.734 30.551,-35.468 19.832,-56.516 -3.928,-7.713 -12.963,-11.32 -21.123,-8.433 l -72.164,25.535 c -9.82,3.475 -20.562,3.306 -30.268,-0.476 L 0,-65.637 Z"
             style="fill:#ffcec0;fill-opacity:1;fill-rule:nonzero;stroke:none"
             id="path167" /></g><g
           id="g169"
           transform="translate(16.689,139.9932)"><path
             d="m 0,0 63.122,38.931 c 10.7,6.6 22.501,11.221 34.837,13.644 l 58.446,11.474 c 15.569,3.057 31.703,1.185 46.159,-5.353 l 54.537,-24.669 c 21.52,-9.734 30.551,-35.468 19.832,-56.516 -3.928,-7.713 -12.963,-11.32 -21.123,-8.433 l -72.164,25.535 c -9.82,3.475 -20.562,3.306 -30.268,-0.476 l -19.287,-7.517"
             style="fill:none;stroke:#000000;stroke-width:15;stroke-linecap:round;stroke-linejoin:round;stroke-miterlimit:10;stroke-dasharray:none;stroke-opacity:1"
             id="path171" /></g></g></g></g></svg>
