<svg width="152" height="152" viewBox="0 0 152 152" fill="none" xmlns="http://www.w3.org/2000/svg">
<g clip-path="url(#clip0_1_5668)">
<g clip-path="url(#clip1_1_5668)">
<rect width="38" height="38" fill="#55ACEE"/>
<g opacity="0.5">
<path opacity="0.3" d="M0 0L38 38" stroke="white" stroke-width="3"/>
<path opacity="0.3" d="M-2 36L1 39" stroke="white" stroke-width="3"/>
<path opacity="0.3" d="M37 -1L40 2" stroke="white" stroke-width="3"/>
</g>
<g opacity="0.5">
<path opacity="0.3" d="M38 0L-1.66103e-06 38" stroke="white" stroke-width="3"/>
<path opacity="0.3" d="M2 -2L-1 1" stroke="white" stroke-width="3"/>
<path opacity="0.3" d="M39 37L36 40" stroke="white" stroke-width="3"/>
</g>
<rect opacity="0.1" x="0.0710449" y="12" width="10" height="10" rx="2" transform="rotate(45 0.0710449 12)" fill="white" fill-opacity="0.3" stroke="white" stroke-width="3"/>
<rect opacity="0.1" x="38.071" y="12" width="10" height="10" rx="2" transform="rotate(45 38.071 12)" fill="white" fill-opacity="0.3" stroke="white" stroke-width="3"/>
<rect opacity="0.1" x="19" y="-7" width="10" height="10" rx="2" transform="rotate(45 19 -7)" fill="white" fill-opacity="0.3" stroke="white" stroke-width="3"/>
<rect opacity="0.1" x="19" y="31" width="10" height="10" rx="2" transform="rotate(45 19 31)" fill="white" fill-opacity="0.3" stroke="white" stroke-width="3"/>
<circle opacity="0.3" cx="19" cy="19" r="6" stroke="white"/>
</g>
<g clip-path="url(#clip2_1_5668)">
<rect y="38" width="38" height="38" fill="#55ACEE"/>
<g opacity="0.5">
<path opacity="0.3" d="M0 38L38 76" stroke="white" stroke-width="3"/>
<path opacity="0.3" d="M-2 74L1 77" stroke="white" stroke-width="3"/>
<path opacity="0.3" d="M37 37L40 40" stroke="white" stroke-width="3"/>
</g>
<g opacity="0.5">
<path opacity="0.3" d="M38 38L-1.66103e-06 76" stroke="white" stroke-width="3"/>
<path opacity="0.3" d="M2 36L-1 39" stroke="white" stroke-width="3"/>
<path opacity="0.3" d="M39 75L36 78" stroke="white" stroke-width="3"/>
</g>
<rect opacity="0.1" x="0.0710449" y="50" width="10" height="10" rx="2" transform="rotate(45 0.0710449 50)" fill="white" fill-opacity="0.3" stroke="white" stroke-width="3"/>
<rect opacity="0.1" x="38.071" y="50" width="10" height="10" rx="2" transform="rotate(45 38.071 50)" fill="white" fill-opacity="0.3" stroke="white" stroke-width="3"/>
<rect opacity="0.1" x="19" y="31" width="10" height="10" rx="2" transform="rotate(45 19 31)" fill="white" fill-opacity="0.3" stroke="white" stroke-width="3"/>
<rect opacity="0.1" x="19" y="69" width="10" height="10" rx="2" transform="rotate(45 19 69)" fill="white" fill-opacity="0.3" stroke="white" stroke-width="3"/>
<circle opacity="0.3" cx="19" cy="57" r="6" stroke="white"/>
</g>
<g clip-path="url(#clip3_1_5668)">
<rect y="76" width="38" height="38" fill="#55ACEE"/>
<g opacity="0.5">
<path opacity="0.3" d="M0 76L38 114" stroke="white" stroke-width="3"/>
<path opacity="0.3" d="M-2 112L1 115" stroke="white" stroke-width="3"/>
<path opacity="0.3" d="M37 75L40 78" stroke="white" stroke-width="3"/>
</g>
<g opacity="0.5">
<path opacity="0.3" d="M38 76L-1.66103e-06 114" stroke="white" stroke-width="3"/>
<path opacity="0.3" d="M2 74L-1 77" stroke="white" stroke-width="3"/>
<path opacity="0.3" d="M39 113L36 116" stroke="white" stroke-width="3"/>
</g>
<rect opacity="0.1" x="0.0710449" y="88" width="10" height="10" rx="2" transform="rotate(45 0.0710449 88)" fill="white" fill-opacity="0.3" stroke="white" stroke-width="3"/>
<rect opacity="0.1" x="38.071" y="88" width="10" height="10" rx="2" transform="rotate(45 38.071 88)" fill="white" fill-opacity="0.3" stroke="white" stroke-width="3"/>
<rect opacity="0.1" x="19" y="69" width="10" height="10" rx="2" transform="rotate(45 19 69)" fill="white" fill-opacity="0.3" stroke="white" stroke-width="3"/>
<rect opacity="0.1" x="19" y="107" width="10" height="10" rx="2" transform="rotate(45 19 107)" fill="white" fill-opacity="0.3" stroke="white" stroke-width="3"/>
<circle opacity="0.3" cx="19" cy="95" r="6" stroke="white"/>
</g>
<g clip-path="url(#clip4_1_5668)">
<rect y="114" width="38" height="38" fill="#55ACEE"/>
<g opacity="0.5">
<path opacity="0.3" d="M0 114L38 152" stroke="white" stroke-width="3"/>
<path opacity="0.3" d="M-2 150L1 153" stroke="white" stroke-width="3"/>
<path opacity="0.3" d="M37 113L40 116" stroke="white" stroke-width="3"/>
</g>
<g opacity="0.5">
<path opacity="0.3" d="M38 114L-1.66103e-06 152" stroke="white" stroke-width="3"/>
<path opacity="0.3" d="M2 112L-1 115" stroke="white" stroke-width="3"/>
<path opacity="0.3" d="M39 151L36 154" stroke="white" stroke-width="3"/>
</g>
<rect opacity="0.1" x="0.0710449" y="126" width="10" height="10" rx="2" transform="rotate(45 0.0710449 126)" fill="white" fill-opacity="0.3" stroke="white" stroke-width="3"/>
<rect opacity="0.1" x="38.071" y="126" width="10" height="10" rx="2" transform="rotate(45 38.071 126)" fill="white" fill-opacity="0.3" stroke="white" stroke-width="3"/>
<rect opacity="0.1" x="19" y="107" width="10" height="10" rx="2" transform="rotate(45 19 107)" fill="white" fill-opacity="0.3" stroke="white" stroke-width="3"/>
<rect opacity="0.1" x="19" y="145" width="10" height="10" rx="2" transform="rotate(45 19 145)" fill="white" fill-opacity="0.3" stroke="white" stroke-width="3"/>
<circle opacity="0.3" cx="19" cy="133" r="6" stroke="white"/>
</g>
<g clip-path="url(#clip5_1_5668)">
<rect x="38" width="38" height="38" fill="#55ACEE"/>
<g opacity="0.5">
<path opacity="0.3" d="M38 0L76 38" stroke="white" stroke-width="3"/>
<path opacity="0.3" d="M36 36L39 39" stroke="white" stroke-width="3"/>
<path opacity="0.3" d="M75 -1L78 2" stroke="white" stroke-width="3"/>
</g>
<g opacity="0.5">
<path opacity="0.3" d="M76 0L38 38" stroke="white" stroke-width="3"/>
<path opacity="0.3" d="M40 -2L37 1" stroke="white" stroke-width="3"/>
<path opacity="0.3" d="M77 37L74 40" stroke="white" stroke-width="3"/>
</g>
<rect opacity="0.1" x="38.071" y="12" width="10" height="10" rx="2" transform="rotate(45 38.071 12)" fill="white" fill-opacity="0.3" stroke="white" stroke-width="3"/>
<rect opacity="0.1" x="76.071" y="12" width="10" height="10" rx="2" transform="rotate(45 76.071 12)" fill="white" fill-opacity="0.3" stroke="white" stroke-width="3"/>
<rect opacity="0.1" x="57" y="-7" width="10" height="10" rx="2" transform="rotate(45 57 -7)" fill="white" fill-opacity="0.3" stroke="white" stroke-width="3"/>
<rect opacity="0.1" x="57" y="31" width="10" height="10" rx="2" transform="rotate(45 57 31)" fill="white" fill-opacity="0.3" stroke="white" stroke-width="3"/>
<circle opacity="0.3" cx="57" cy="19" r="6" stroke="white"/>
</g>
<g clip-path="url(#clip6_1_5668)">
<rect x="38" y="38" width="38" height="38" fill="#55ACEE"/>
<g opacity="0.5">
<path opacity="0.3" d="M38 38L76 76" stroke="white" stroke-width="3"/>
<path opacity="0.3" d="M36 74L39 77" stroke="white" stroke-width="3"/>
<path opacity="0.3" d="M75 37L78 40" stroke="white" stroke-width="3"/>
</g>
<g opacity="0.5">
<path opacity="0.3" d="M76 38L38 76" stroke="white" stroke-width="3"/>
<path opacity="0.3" d="M40 36L37 39" stroke="white" stroke-width="3"/>
<path opacity="0.3" d="M77 75L74 78" stroke="white" stroke-width="3"/>
</g>
<rect opacity="0.1" x="38.071" y="50" width="10" height="10" rx="2" transform="rotate(45 38.071 50)" fill="white" fill-opacity="0.3" stroke="white" stroke-width="3"/>
<rect opacity="0.1" x="76.071" y="50" width="10" height="10" rx="2" transform="rotate(45 76.071 50)" fill="white" fill-opacity="0.3" stroke="white" stroke-width="3"/>
<rect opacity="0.1" x="57" y="31" width="10" height="10" rx="2" transform="rotate(45 57 31)" fill="white" fill-opacity="0.3" stroke="white" stroke-width="3"/>
<rect opacity="0.1" x="57" y="69" width="10" height="10" rx="2" transform="rotate(45 57 69)" fill="white" fill-opacity="0.3" stroke="white" stroke-width="3"/>
<circle opacity="0.3" cx="57" cy="57" r="6" stroke="white"/>
</g>
<g clip-path="url(#clip7_1_5668)">
<rect x="38" y="76" width="38" height="38" fill="#55ACEE"/>
<g opacity="0.5">
<path opacity="0.3" d="M38 76L76 114" stroke="white" stroke-width="3"/>
<path opacity="0.3" d="M36 112L39 115" stroke="white" stroke-width="3"/>
<path opacity="0.3" d="M75 75L78 78" stroke="white" stroke-width="3"/>
</g>
<g opacity="0.5">
<path opacity="0.3" d="M76 76L38 114" stroke="white" stroke-width="3"/>
<path opacity="0.3" d="M40 74L37 77" stroke="white" stroke-width="3"/>
<path opacity="0.3" d="M77 113L74 116" stroke="white" stroke-width="3"/>
</g>
<rect opacity="0.1" x="38.071" y="88" width="10" height="10" rx="2" transform="rotate(45 38.071 88)" fill="white" fill-opacity="0.3" stroke="white" stroke-width="3"/>
<rect opacity="0.1" x="76.071" y="88" width="10" height="10" rx="2" transform="rotate(45 76.071 88)" fill="white" fill-opacity="0.3" stroke="white" stroke-width="3"/>
<rect opacity="0.1" x="57" y="69" width="10" height="10" rx="2" transform="rotate(45 57 69)" fill="white" fill-opacity="0.3" stroke="white" stroke-width="3"/>
<rect opacity="0.1" x="57" y="107" width="10" height="10" rx="2" transform="rotate(45 57 107)" fill="white" fill-opacity="0.3" stroke="white" stroke-width="3"/>
<circle opacity="0.3" cx="57" cy="95" r="6" stroke="white"/>
</g>
<g clip-path="url(#clip8_1_5668)">
<rect x="38" y="114" width="38" height="38" fill="#55ACEE"/>
<g opacity="0.5">
<path opacity="0.3" d="M38 114L76 152" stroke="white" stroke-width="3"/>
<path opacity="0.3" d="M36 150L39 153" stroke="white" stroke-width="3"/>
<path opacity="0.3" d="M75 113L78 116" stroke="white" stroke-width="3"/>
</g>
<g opacity="0.5">
<path opacity="0.3" d="M76 114L38 152" stroke="white" stroke-width="3"/>
<path opacity="0.3" d="M40 112L37 115" stroke="white" stroke-width="3"/>
<path opacity="0.3" d="M77 151L74 154" stroke="white" stroke-width="3"/>
</g>
<rect opacity="0.1" x="38.071" y="126" width="10" height="10" rx="2" transform="rotate(45 38.071 126)" fill="white" fill-opacity="0.3" stroke="white" stroke-width="3"/>
<rect opacity="0.1" x="76.071" y="126" width="10" height="10" rx="2" transform="rotate(45 76.071 126)" fill="white" fill-opacity="0.3" stroke="white" stroke-width="3"/>
<rect opacity="0.1" x="57" y="107" width="10" height="10" rx="2" transform="rotate(45 57 107)" fill="white" fill-opacity="0.3" stroke="white" stroke-width="3"/>
<rect opacity="0.1" x="57" y="145" width="10" height="10" rx="2" transform="rotate(45 57 145)" fill="white" fill-opacity="0.3" stroke="white" stroke-width="3"/>
<circle opacity="0.3" cx="57" cy="133" r="6" stroke="white"/>
</g>
<g clip-path="url(#clip9_1_5668)">
<rect x="76" width="38" height="38" fill="#55ACEE"/>
<g opacity="0.5">
<path opacity="0.3" d="M76 0L114 38" stroke="white" stroke-width="3"/>
<path opacity="0.3" d="M74 36L77 39" stroke="white" stroke-width="3"/>
<path opacity="0.3" d="M113 -1L116 2" stroke="white" stroke-width="3"/>
</g>
<g opacity="0.5">
<path opacity="0.3" d="M114 0L76 38" stroke="white" stroke-width="3"/>
<path opacity="0.3" d="M78 -2L75 1" stroke="white" stroke-width="3"/>
<path opacity="0.3" d="M115 37L112 40" stroke="white" stroke-width="3"/>
</g>
<rect opacity="0.1" x="76.071" y="12" width="10" height="10" rx="2" transform="rotate(45 76.071 12)" fill="white" fill-opacity="0.3" stroke="white" stroke-width="3"/>
<rect opacity="0.1" x="114.071" y="12" width="10" height="10" rx="2" transform="rotate(45 114.071 12)" fill="white" fill-opacity="0.3" stroke="white" stroke-width="3"/>
<rect opacity="0.1" x="95" y="-7" width="10" height="10" rx="2" transform="rotate(45 95 -7)" fill="white" fill-opacity="0.3" stroke="white" stroke-width="3"/>
<rect opacity="0.1" x="95" y="31" width="10" height="10" rx="2" transform="rotate(45 95 31)" fill="white" fill-opacity="0.3" stroke="white" stroke-width="3"/>
<circle opacity="0.3" cx="95" cy="19" r="6" stroke="white"/>
</g>
<g clip-path="url(#clip10_1_5668)">
<rect x="76" y="38" width="38" height="38" fill="#55ACEE"/>
<g opacity="0.5">
<path opacity="0.3" d="M76 38L114 76" stroke="white" stroke-width="3"/>
<path opacity="0.3" d="M74 74L77 77" stroke="white" stroke-width="3"/>
<path opacity="0.3" d="M113 37L116 40" stroke="white" stroke-width="3"/>
</g>
<g opacity="0.5">
<path opacity="0.3" d="M114 38L76 76" stroke="white" stroke-width="3"/>
<path opacity="0.3" d="M78 36L75 39" stroke="white" stroke-width="3"/>
<path opacity="0.3" d="M115 75L112 78" stroke="white" stroke-width="3"/>
</g>
<rect opacity="0.1" x="76.071" y="50" width="10" height="10" rx="2" transform="rotate(45 76.071 50)" fill="white" fill-opacity="0.3" stroke="white" stroke-width="3"/>
<rect opacity="0.1" x="114.071" y="50" width="10" height="10" rx="2" transform="rotate(45 114.071 50)" fill="white" fill-opacity="0.3" stroke="white" stroke-width="3"/>
<rect opacity="0.1" x="95" y="31" width="10" height="10" rx="2" transform="rotate(45 95 31)" fill="white" fill-opacity="0.3" stroke="white" stroke-width="3"/>
<rect opacity="0.1" x="95" y="69" width="10" height="10" rx="2" transform="rotate(45 95 69)" fill="white" fill-opacity="0.3" stroke="white" stroke-width="3"/>
<circle opacity="0.3" cx="95" cy="57" r="6" stroke="white"/>
</g>
<g clip-path="url(#clip11_1_5668)">
<rect x="76" y="76" width="38" height="38" fill="#55ACEE"/>
<g opacity="0.5">
<path opacity="0.3" d="M76 76L114 114" stroke="white" stroke-width="3"/>
<path opacity="0.3" d="M74 112L77 115" stroke="white" stroke-width="3"/>
<path opacity="0.3" d="M113 75L116 78" stroke="white" stroke-width="3"/>
</g>
<g opacity="0.5">
<path opacity="0.3" d="M114 76L76 114" stroke="white" stroke-width="3"/>
<path opacity="0.3" d="M78 74L75 77" stroke="white" stroke-width="3"/>
<path opacity="0.3" d="M115 113L112 116" stroke="white" stroke-width="3"/>
</g>
<rect opacity="0.1" x="76.071" y="88" width="10" height="10" rx="2" transform="rotate(45 76.071 88)" fill="white" fill-opacity="0.3" stroke="white" stroke-width="3"/>
<rect opacity="0.1" x="114.071" y="88" width="10" height="10" rx="2" transform="rotate(45 114.071 88)" fill="white" fill-opacity="0.3" stroke="white" stroke-width="3"/>
<rect opacity="0.1" x="95" y="69" width="10" height="10" rx="2" transform="rotate(45 95 69)" fill="white" fill-opacity="0.3" stroke="white" stroke-width="3"/>
<rect opacity="0.1" x="95" y="107" width="10" height="10" rx="2" transform="rotate(45 95 107)" fill="white" fill-opacity="0.3" stroke="white" stroke-width="3"/>
<circle opacity="0.3" cx="95" cy="95" r="6" stroke="white"/>
</g>
<g clip-path="url(#clip12_1_5668)">
<rect x="76" y="114" width="38" height="38" fill="#55ACEE"/>
<g opacity="0.5">
<path opacity="0.3" d="M76 114L114 152" stroke="white" stroke-width="3"/>
<path opacity="0.3" d="M74 150L77 153" stroke="white" stroke-width="3"/>
<path opacity="0.3" d="M113 113L116 116" stroke="white" stroke-width="3"/>
</g>
<g opacity="0.5">
<path opacity="0.3" d="M114 114L76 152" stroke="white" stroke-width="3"/>
<path opacity="0.3" d="M78 112L75 115" stroke="white" stroke-width="3"/>
<path opacity="0.3" d="M115 151L112 154" stroke="white" stroke-width="3"/>
</g>
<rect opacity="0.1" x="76.071" y="126" width="10" height="10" rx="2" transform="rotate(45 76.071 126)" fill="white" fill-opacity="0.3" stroke="white" stroke-width="3"/>
<rect opacity="0.1" x="114.071" y="126" width="10" height="10" rx="2" transform="rotate(45 114.071 126)" fill="white" fill-opacity="0.3" stroke="white" stroke-width="3"/>
<rect opacity="0.1" x="95" y="107" width="10" height="10" rx="2" transform="rotate(45 95 107)" fill="white" fill-opacity="0.3" stroke="white" stroke-width="3"/>
<rect opacity="0.1" x="95" y="145" width="10" height="10" rx="2" transform="rotate(45 95 145)" fill="white" fill-opacity="0.3" stroke="white" stroke-width="3"/>
<circle opacity="0.3" cx="95" cy="133" r="6" stroke="white"/>
</g>
<g clip-path="url(#clip13_1_5668)">
<rect x="114" width="38" height="38" fill="#55ACEE"/>
<g opacity="0.5">
<path opacity="0.3" d="M114 0L152 38" stroke="white" stroke-width="3"/>
<path opacity="0.3" d="M112 36L115 39" stroke="white" stroke-width="3"/>
<path opacity="0.3" d="M151 -1L154 2" stroke="white" stroke-width="3"/>
</g>
<g opacity="0.5">
<path opacity="0.3" d="M152 0L114 38" stroke="white" stroke-width="3"/>
<path opacity="0.3" d="M116 -2L113 1" stroke="white" stroke-width="3"/>
<path opacity="0.3" d="M153 37L150 40" stroke="white" stroke-width="3"/>
</g>
<rect opacity="0.1" x="114.071" y="12" width="10" height="10" rx="2" transform="rotate(45 114.071 12)" fill="white" fill-opacity="0.3" stroke="white" stroke-width="3"/>
<rect opacity="0.1" x="152.071" y="12" width="10" height="10" rx="2" transform="rotate(45 152.071 12)" fill="white" fill-opacity="0.3" stroke="white" stroke-width="3"/>
<rect opacity="0.1" x="133" y="-7" width="10" height="10" rx="2" transform="rotate(45 133 -7)" fill="white" fill-opacity="0.3" stroke="white" stroke-width="3"/>
<rect opacity="0.1" x="133" y="31" width="10" height="10" rx="2" transform="rotate(45 133 31)" fill="white" fill-opacity="0.3" stroke="white" stroke-width="3"/>
<circle opacity="0.3" cx="133" cy="19" r="6" stroke="white"/>
</g>
<g clip-path="url(#clip14_1_5668)">
<rect x="114" y="38" width="38" height="38" fill="#55ACEE"/>
<g opacity="0.5">
<path opacity="0.3" d="M114 38L152 76" stroke="white" stroke-width="3"/>
<path opacity="0.3" d="M112 74L115 77" stroke="white" stroke-width="3"/>
<path opacity="0.3" d="M151 37L154 40" stroke="white" stroke-width="3"/>
</g>
<g opacity="0.5">
<path opacity="0.3" d="M152 38L114 76" stroke="white" stroke-width="3"/>
<path opacity="0.3" d="M116 36L113 39" stroke="white" stroke-width="3"/>
<path opacity="0.3" d="M153 75L150 78" stroke="white" stroke-width="3"/>
</g>
<rect opacity="0.1" x="114.071" y="50" width="10" height="10" rx="2" transform="rotate(45 114.071 50)" fill="white" fill-opacity="0.3" stroke="white" stroke-width="3"/>
<rect opacity="0.1" x="152.071" y="50" width="10" height="10" rx="2" transform="rotate(45 152.071 50)" fill="white" fill-opacity="0.3" stroke="white" stroke-width="3"/>
<rect opacity="0.1" x="133" y="31" width="10" height="10" rx="2" transform="rotate(45 133 31)" fill="white" fill-opacity="0.3" stroke="white" stroke-width="3"/>
<rect opacity="0.1" x="133" y="69" width="10" height="10" rx="2" transform="rotate(45 133 69)" fill="white" fill-opacity="0.3" stroke="white" stroke-width="3"/>
<circle opacity="0.3" cx="133" cy="57" r="6" stroke="white"/>
</g>
<g clip-path="url(#clip15_1_5668)">
<rect x="114" y="76" width="38" height="38" fill="#55ACEE"/>
<g opacity="0.5">
<path opacity="0.3" d="M114 76L152 114" stroke="white" stroke-width="3"/>
<path opacity="0.3" d="M112 112L115 115" stroke="white" stroke-width="3"/>
<path opacity="0.3" d="M151 75L154 78" stroke="white" stroke-width="3"/>
</g>
<g opacity="0.5">
<path opacity="0.3" d="M152 76L114 114" stroke="white" stroke-width="3"/>
<path opacity="0.3" d="M116 74L113 77" stroke="white" stroke-width="3"/>
<path opacity="0.3" d="M153 113L150 116" stroke="white" stroke-width="3"/>
</g>
<rect opacity="0.1" x="114.071" y="88" width="10" height="10" rx="2" transform="rotate(45 114.071 88)" fill="white" fill-opacity="0.3" stroke="white" stroke-width="3"/>
<rect opacity="0.1" x="152.071" y="88" width="10" height="10" rx="2" transform="rotate(45 152.071 88)" fill="white" fill-opacity="0.3" stroke="white" stroke-width="3"/>
<rect opacity="0.1" x="133" y="69" width="10" height="10" rx="2" transform="rotate(45 133 69)" fill="white" fill-opacity="0.3" stroke="white" stroke-width="3"/>
<rect opacity="0.1" x="133" y="107" width="10" height="10" rx="2" transform="rotate(45 133 107)" fill="white" fill-opacity="0.3" stroke="white" stroke-width="3"/>
<circle opacity="0.3" cx="133" cy="95" r="6" stroke="white"/>
</g>
<g clip-path="url(#clip16_1_5668)">
<rect x="114" y="114" width="38" height="38" fill="#55ACEE"/>
<g opacity="0.5">
<path opacity="0.3" d="M114 114L152 152" stroke="white" stroke-width="3"/>
<path opacity="0.3" d="M112 150L115 153" stroke="white" stroke-width="3"/>
<path opacity="0.3" d="M151 113L154 116" stroke="white" stroke-width="3"/>
</g>
<g opacity="0.5">
<path opacity="0.3" d="M152 114L114 152" stroke="white" stroke-width="3"/>
<path opacity="0.3" d="M116 112L113 115" stroke="white" stroke-width="3"/>
<path opacity="0.3" d="M153 151L150 154" stroke="white" stroke-width="3"/>
</g>
<rect opacity="0.1" x="114.071" y="126" width="10" height="10" rx="2" transform="rotate(45 114.071 126)" fill="white" fill-opacity="0.3" stroke="white" stroke-width="3"/>
<rect opacity="0.1" x="152.071" y="126" width="10" height="10" rx="2" transform="rotate(45 152.071 126)" fill="white" fill-opacity="0.3" stroke="white" stroke-width="3"/>
<rect opacity="0.1" x="133" y="107" width="10" height="10" rx="2" transform="rotate(45 133 107)" fill="white" fill-opacity="0.3" stroke="white" stroke-width="3"/>
<rect opacity="0.1" x="133" y="145" width="10" height="10" rx="2" transform="rotate(45 133 145)" fill="white" fill-opacity="0.3" stroke="white" stroke-width="3"/>
<circle opacity="0.3" cx="133" cy="133" r="6" stroke="white"/>
</g>
<rect x="8.5" y="8.5" width="135" height="135" rx="4.5" stroke="white"/>
</g>
<defs>
<clipPath id="clip0_1_5668">
<rect width="152" height="152" rx="8" fill="white"/>
</clipPath>
<clipPath id="clip1_1_5668">
<rect width="38" height="38" fill="white"/>
</clipPath>
<clipPath id="clip2_1_5668">
<rect width="38" height="38" fill="white" transform="translate(0 38)"/>
</clipPath>
<clipPath id="clip3_1_5668">
<rect width="38" height="38" fill="white" transform="translate(0 76)"/>
</clipPath>
<clipPath id="clip4_1_5668">
<rect width="38" height="38" fill="white" transform="translate(0 114)"/>
</clipPath>
<clipPath id="clip5_1_5668">
<rect width="38" height="38" fill="white" transform="translate(38)"/>
</clipPath>
<clipPath id="clip6_1_5668">
<rect width="38" height="38" fill="white" transform="translate(38 38)"/>
</clipPath>
<clipPath id="clip7_1_5668">
<rect width="38" height="38" fill="white" transform="translate(38 76)"/>
</clipPath>
<clipPath id="clip8_1_5668">
<rect width="38" height="38" fill="white" transform="translate(38 114)"/>
</clipPath>
<clipPath id="clip9_1_5668">
<rect width="38" height="38" fill="white" transform="translate(76)"/>
</clipPath>
<clipPath id="clip10_1_5668">
<rect width="38" height="38" fill="white" transform="translate(76 38)"/>
</clipPath>
<clipPath id="clip11_1_5668">
<rect width="38" height="38" fill="white" transform="translate(76 76)"/>
</clipPath>
<clipPath id="clip12_1_5668">
<rect width="38" height="38" fill="white" transform="translate(76 114)"/>
</clipPath>
<clipPath id="clip13_1_5668">
<rect width="38" height="38" fill="white" transform="translate(114)"/>
</clipPath>
<clipPath id="clip14_1_5668">
<rect width="38" height="38" fill="white" transform="translate(114 38)"/>
</clipPath>
<clipPath id="clip15_1_5668">
<rect width="38" height="38" fill="white" transform="translate(114 76)"/>
</clipPath>
<clipPath id="clip16_1_5668">
<rect width="38" height="38" fill="white" transform="translate(114 114)"/>
</clipPath>
</defs>
</svg>
