<svg version="1.1" id="Capa_1" xmlns="http://www.w3.org/2000/svg" xmlns:xlink="http://www.w3.org/1999/xlink" x="0px" y="0px" viewBox="0 0 512 512" style="enable-background:new 0 0 512 512;" xml:space="preserve">
<g>
	<g>
		<g>
			<path style="fill:#FD8087;" d="M316.61,161.045v-46.468c0-7.811-6.332-14.142-14.142-14.142h-92.935&#10;&#9;&#9;&#9;&#9;c-7.811,0-14.142,6.332-14.142,14.142v46.468l30.603,153.89L195.39,443.89v46.468c0,7.811,6.332,14.142,14.142,14.142h92.935&#10;&#9;&#9;&#9;&#9;c7.811,0,14.142-6.332,14.142-14.142V443.89l-18.183-128.393L316.61,161.045z"/>
			<path style="fill:#FE646F;" d="M316.61,161.045v-46.468c0-7.811-6.332-14.142-14.142-14.142h-30.305&#10;&#9;&#9;&#9;&#9;c7.811,0,14.142,6.332,14.142,14.142v375.781c0,7.811-6.332,14.142-14.142,14.142h30.305c7.811,0,14.142-6.332,14.142-14.142&#10;&#9;&#9;&#9;&#9;V443.89l-18.183-128.393L316.61,161.045z"/>
			<path style="fill:#FD4755;" d="M298.427,100.435l-19.999-83.632c-1.304-5.455-6.181-9.303-11.79-9.303h-21.277&#10;&#9;&#9;&#9;&#9;c-5.609,0-10.485,3.848-11.79,9.303l-19.999,83.632H298.427z"/>
			<rect x="195.39" y="161.045" style="fill:#EAF6FF;" width="121.22" height="282.846"/>
			<path style="fill:#FD4755;" d="M247.919,403.484h16.163c4.463,0,8.081-3.618,8.081-8.081v-185.87&#10;&#9;&#9;&#9;&#9;c0-4.463-3.618-8.081-8.081-8.081h-16.163c-4.463,0-8.081,3.618-8.081,8.081v185.87&#10;&#9;&#9;&#9;&#9;C239.837,399.866,243.456,403.484,247.919,403.484z"/>
			<rect x="286.305" y="161.045" style="fill:#D8ECFE;" width="30.305" height="282.846"/>
		</g>
		<g>
			<path style="fill:#FFE177;" d="M470.154,161.045v-46.468c0-7.811-6.332-14.142-14.142-14.142h-92.935&#10;&#9;&#9;&#9;&#9;c-7.811,0-14.142,6.332-14.142,14.142v46.468l26.285,116.161L348.935,443.89v46.468c0,7.811,6.332,14.142,14.142,14.142h92.935&#10;&#9;&#9;&#9;&#9;c7.811,0,14.142-6.332,14.142-14.142V443.89l-22.224-171.753L470.154,161.045z"/>
			<path style="fill:#FFD15B;" d="M470.154,161.045v-46.468c0-7.811-6.332-14.142-14.142-14.142h-30.305&#10;&#9;&#9;&#9;&#9;c7.811,0,14.142,6.332,14.142,14.142v375.781c0,7.811-6.332,14.142-14.142,14.142h30.305c7.811,0,14.142-6.332,14.142-14.142&#10;&#9;&#9;&#9;&#9;V443.89l-22.224-171.753L470.154,161.045z"/>
			<path style="fill:#FFC344;" d="M451.972,100.435l-19.999-83.632c-1.304-5.455-6.181-9.303-11.79-9.303h-21.277&#10;&#9;&#9;&#9;&#9;c-5.609,0-10.485,3.848-11.79,9.303l-19.999,83.632H451.972z"/>
			<rect x="348.935" y="161.045" style="fill:#EAF6FF;" width="121.22" height="282.846"/>
			<path style="fill:#FFC344;" d="M401.463,403.484h16.163c4.463,0,8.081-3.618,8.081-8.081v-185.87&#10;&#9;&#9;&#9;&#9;c0-4.463-3.618-8.081-8.081-8.081h-16.163c-4.463,0-8.081,3.618-8.081,8.081v185.87C393.382,399.866,397,403.484,401.463,403.484&#10;&#9;&#9;&#9;&#9;z"/>
			<rect x="439.85" y="161.045" style="fill:#D8ECFE;" width="30.305" height="282.846"/>
		</g>
		<g>
			<path style="fill:#BBEC6C;" d="M163.065,161.045v-46.468c0-7.811-6.332-14.142-14.142-14.142H55.988&#10;&#9;&#9;&#9;&#9;c-7.811,0-14.142,6.332-14.142,14.142v46.468L72,302.468L41.846,443.89v46.468c0,7.811,6.332,14.142,14.142,14.142h92.935&#10;&#9;&#9;&#9;&#9;c7.811,0,14.142-6.332,14.142-14.142V443.89l-18.183-111.499L163.065,161.045z"/>
			<path style="fill:#A2E62E;" d="M163.065,161.045v-46.468c0-7.811-6.332-14.142-14.142-14.142h-30.305&#10;&#9;&#9;&#9;&#9;c7.811,0,14.142,6.332,14.142,14.142v375.781c0,7.811-6.332,14.142-14.142,14.142h30.305c7.811,0,14.142-6.332,14.142-14.142&#10;&#9;&#9;&#9;&#9;V443.89l-18.183-111.499L163.065,161.045z"/>
			<path style="fill:#97D729;" d="M144.882,100.435l-19.999-83.632c-1.304-5.455-6.181-9.303-11.79-9.303H91.817&#10;&#9;&#9;&#9;&#9;c-5.609,0-10.485,3.848-11.79,9.303l-19.999,83.632H144.882z"/>
			<rect x="41.846" y="161.045" style="fill:#EAF6FF;" width="121.22" height="282.846"/>
			<path style="fill:#97D729;" d="M94.374,403.484h16.163c4.463,0,8.081-3.618,8.081-8.081v-185.87c0-4.463-3.618-8.081-8.081-8.081&#10;&#9;&#9;&#9;&#9;H94.374c-4.463,0-8.081,3.618-8.081,8.081v185.87C86.293,399.866,89.911,403.484,94.374,403.484z"/>
			<rect x="132.76" y="161.045" style="fill:#D8ECFE;" width="30.305" height="282.846"/>
		</g>
	</g>
	<g>
		<path style="fill:none;stroke:#000000;stroke-width:15;stroke-linecap:round;stroke-linejoin:round;stroke-miterlimit:10;" d="&#10;&#9;&#9;&#9;M247.919,403.484h16.163c4.463,0,8.081-3.618,8.081-8.081v-185.87c0-4.463-3.618-8.081-8.081-8.081h-16.163&#10;&#9;&#9;&#9;c-4.463,0-8.081,3.618-8.081,8.081v185.87C239.837,399.866,243.456,403.484,247.919,403.484z"/>
		
			<line style="fill:none;stroke:#000000;stroke-width:15;stroke-linecap:round;stroke-linejoin:round;stroke-miterlimit:10;" x1="195.39" y1="443.89" x2="316.61" y2="443.89"/>
		
			<line style="fill:none;stroke:#000000;stroke-width:15;stroke-linecap:round;stroke-linejoin:round;stroke-miterlimit:10;" x1="316.61" y1="161.045" x2="195.39" y2="161.045"/>
		<path style="fill:none;stroke:#000000;stroke-width:15;stroke-linecap:round;stroke-linejoin:round;stroke-miterlimit:10;" d="&#10;&#9;&#9;&#9;M195.39,337.47v152.89c0,7.81,6.33,14.14,14.14,14.14h92.94c7.81,0,14.14-6.33,14.14-14.14V114.58c0-7.81-6.33-14.15-14.14-14.15&#10;&#9;&#9;&#9;h-92.94c-7.81,0-14.14,6.34-14.14,14.15v187.89"/>
		<path style="fill:none;stroke:#000000;stroke-width:15;stroke-linecap:round;stroke-linejoin:round;stroke-miterlimit:10;" d="&#10;&#9;&#9;&#9;M298.427,100.435l-19.999-83.632c-1.304-5.455-6.181-9.303-11.79-9.303h-21.277c-5.609,0-10.485,3.848-11.79,9.303l-19.999,83.632&#10;&#9;&#9;&#9;H298.427z"/>
		<path style="fill:none;stroke:#000000;stroke-width:15;stroke-linecap:round;stroke-linejoin:round;stroke-miterlimit:10;" d="&#10;&#9;&#9;&#9;M401.463,403.484h16.163c4.463,0,8.081-3.618,8.081-8.081v-185.87c0-4.463-3.618-8.081-8.081-8.081h-16.163&#10;&#9;&#9;&#9;c-4.463,0-8.081,3.618-8.081,8.081v185.87C393.382,399.866,397,403.484,401.463,403.484z"/>
		
			<line style="fill:none;stroke:#000000;stroke-width:15;stroke-linecap:round;stroke-linejoin:round;stroke-miterlimit:10;" x1="348.935" y1="443.89" x2="470.154" y2="443.89"/>
		
			<line style="fill:none;stroke:#000000;stroke-width:15;stroke-linecap:round;stroke-linejoin:round;stroke-miterlimit:10;" x1="470.154" y1="161.045" x2="348.935" y2="161.045"/>
		<path style="fill:none;stroke:#000000;stroke-width:15;stroke-linecap:round;stroke-linejoin:round;stroke-miterlimit:10;" d="&#10;&#9;&#9;&#9;M470.15,230.55v259.81c0,7.81-6.33,14.14-14.14,14.14h-92.93c-7.81,0-14.15-6.33-14.15-14.14V114.58&#10;&#9;&#9;&#9;c0-7.81,6.34-14.15,14.15-14.15h92.93c7.81,0,14.14,6.34,14.14,14.15v80.97"/>
		<path style="fill:none;stroke:#000000;stroke-width:15;stroke-linecap:round;stroke-linejoin:round;stroke-miterlimit:10;" d="&#10;&#9;&#9;&#9;M451.972,100.435l-19.999-83.632c-1.304-5.455-6.181-9.303-11.79-9.303h-21.277c-5.609,0-10.485,3.848-11.79,9.303l-19.999,83.632&#10;&#9;&#9;&#9;H451.972z"/>
		<path style="fill:none;stroke:#000000;stroke-width:15;stroke-linecap:round;stroke-linejoin:round;stroke-miterlimit:10;" d="&#10;&#9;&#9;&#9;M94.374,403.484h16.163c4.463,0,8.081-3.618,8.081-8.081v-185.87c0-4.463-3.618-8.081-8.081-8.081H94.374&#10;&#9;&#9;&#9;c-4.463,0-8.081,3.618-8.081,8.081v185.87C86.293,399.866,89.911,403.484,94.374,403.484z"/>
		
			<line style="fill:none;stroke:#000000;stroke-width:15;stroke-linecap:round;stroke-linejoin:round;stroke-miterlimit:10;" x1="41.846" y1="443.89" x2="163.065" y2="443.89"/>
		
			<line style="fill:none;stroke:#000000;stroke-width:15;stroke-linecap:round;stroke-linejoin:round;stroke-miterlimit:10;" x1="163.065" y1="161.045" x2="41.846" y2="161.045"/>
		<path style="fill:none;stroke:#000000;stroke-width:15;stroke-linecap:round;stroke-linejoin:round;stroke-miterlimit:10;" d="&#10;&#9;&#9;&#9;M41.85,236.45v253.91c0,7.81,6.33,14.14,14.14,14.14h92.93c7.81,0,14.15-6.33,14.15-14.14V114.58c0-7.81-6.34-14.15-14.15-14.15&#10;&#9;&#9;&#9;H55.99c-7.81,0-14.14,6.34-14.14,14.15v86.87"/>
		<path style="fill:none;stroke:#000000;stroke-width:15;stroke-linecap:round;stroke-linejoin:round;stroke-miterlimit:10;" d="&#10;&#9;&#9;&#9;M144.882,100.435l-19.999-83.632c-1.304-5.455-6.181-9.303-11.79-9.303H91.817c-5.609,0-10.485,3.848-11.79,9.303l-19.999,83.632&#10;&#9;&#9;&#9;H144.882z"/>
	</g>
</g>
<g>
</g>
<g>
</g>
<g>
</g>
<g>
</g>
<g>
</g>
<g>
</g>
<g>
</g>
<g>
</g>
<g>
</g>
<g>
</g>
<g>
</g>
<g>
</g>
<g>
</g>
<g>
</g>
<g>
</g>
</svg>