<?xml version="1.0" encoding="UTF-8"?>
<svg xmlns="http://www.w3.org/2000/svg" xmlns:xlink="http://www.w3.org/1999/xlink" version="1.1" id="Capa_1" x="0px" y="0px" viewBox="0 0 512.001 512.001" style="enable-background:new 0 0 512.001 512.001;" xml:space="preserve" width="512" height="512">
<g>
	<path style="fill-rule:evenodd;clip-rule:evenodd;fill:#FFE177;" d="M388.769,351.448v35.511c0,21.41-29.718,38.965-51.068,39.454&#10;&#9;&#9;l-12.724,37.814l33.382,6.158c9.377,1.727,15.609,10.792,13.878,20.144c-1.731,9.353-10.675,13.813-20.196,13.842l-43.566,0.115&#10;&#9;&#9;c-4.991,0.029-6.809,0.259-10.56-3.079l-21.322-18.849c-5.309-4.691-5.568-11.712-2.51-19.482l23.168-71.541v-40.087&#10;&#9;&#9;C297.25,286.065,388.769,286.065,388.769,351.448L388.769,351.448z"/>
	<path style="fill-rule:evenodd;clip-rule:evenodd;fill:#FFD15B;" d="M324.977,464.227l12.724-37.814&#10;&#9;&#9;c18.956-0.432,44.519-14.331,50-32.432c0.664-2.389,1.068-4.547,1.068-7.022v-35.511c0-25.612-14.051-41.18-31.131-46.734&#10;&#9;&#9;c5.107,7.626,8.28,17.439,8.194,29.526l-0.289,46.936c-3.203,19.281-12.608,23.339-31.824,24.317&#10;&#9;&#9;c-7.04,0.374-7.386,4.029-9.723,10.705l-12.435,35.799c-4.472,13.468-8.742,25.036,5.713,27.713l20.745,3.827&#10;&#9;&#9;c12.002,2.216,28.794,6.446,14.022,20.835c9.521-0.029,18.465-4.489,20.196-13.842c1.731-9.353-4.501-18.418-13.878-20.144&#10;&#9;&#9;L324.977,464.227z"/>
	<path style="fill:none;stroke:#000000;stroke-width:15;stroke-linecap:round;stroke-linejoin:round;stroke-miterlimit:10;" d="&#10;&#9;&#9;M388.77,364.67v22.29c0,21.41-29.72,38.96-51.07,39.45l-12.72,37.82l33.38,6.15c9.38,1.73,15.61,10.8,13.88,20.15&#10;&#9;&#9;c-1.73,9.35-10.68,13.81-20.2,13.84l-43.57,0.12c-4.99,0.02-6.81,0.26-10.56-3.08l-21.32-18.85c-5.31-4.69-5.57-11.71-2.51-19.48&#10;&#9;&#9;l2.74-8.44"/>
	
		<line style="fill:none;stroke:#000000;stroke-width:15;stroke-linecap:round;stroke-linejoin:round;stroke-miterlimit:10;" x1="296.91" y1="392.57" x2="287.82" y2="420.69"/>
	<path style="fill-rule:evenodd;clip-rule:evenodd;fill:#FFE177;" d="M391.625,180.855h87.162c12.781,0,23.428-9.497,25.044-21.669&#10;&#9;&#9;c0.144-1.007,0.202-2.043,0.202-3.079v-0.144v-24.864l-86.383-10.705c-17.773,0-36.757,20.173-36.757,33.554L391.625,180.855z"/>
	<path style="fill-rule:evenodd;clip-rule:evenodd;fill:#FFD15B;" d="M504.032,131.099l-17.571-13.641l-12.204,13.641v25.008&#10;&#9;&#9;c0,1.036-0.058,2.072-0.202,3.079c-0.606,4.576-2.481,8.748-5.251,12.202c-4.645,5.755-11.8,9.468-19.792,9.468h29.775&#10;&#9;&#9;c12.781,0,23.428-9.497,25.044-21.669c0.144-1.007,0.202-2.043,0.202-3.079V131.099z"/>
	<path style="fill-rule:evenodd;clip-rule:evenodd;fill:#FFE177;" d="M264.417,232.223v-28.029c0-11.022-9.06-20.058-20.139-20.058&#10;&#9;&#9;c-11.05,0-20.11,9.036-20.11,20.058v29.669C236.055,231.878,249.356,231.244,264.417,232.223L264.417,232.223z"/>
	<path style="fill-rule:evenodd;clip-rule:evenodd;fill:#FFE177;" d="M112.828,335.361c7.675-11.252,14.888-22.677,22.274-33.641&#10;&#9;&#9;l-19.042-18.993c-7.819-7.827-20.629-7.799-28.477,0c-7.819,7.799-7.819,20.576,0.029,28.403l21.206,21.123&#10;&#9;&#9;C110.03,333.491,111.386,334.498,112.828,335.361L112.828,335.361z"/>
	<path style="fill-rule:evenodd;clip-rule:evenodd;fill:#FFE177;" d="M191.075,245.259L174.6,219.302&#10;&#9;&#9;c-5.915-9.324-18.408-12.144-27.756-6.245c-9.377,5.899-12.176,18.36-6.261,27.713c3.491,5.496,14.888,25.065,19.187,29.382&#10;&#9;&#9;C168.859,260.454,198.432,256.885,191.075,245.259L191.075,245.259z"/>
	<path style="fill:none;stroke:#000000;stroke-width:15;stroke-linecap:round;stroke-linejoin:round;stroke-miterlimit:10;" d="&#10;&#9;&#9;M391.625,180.855h87.162c13.878,0,25.245-11.194,25.245-24.893v-24.864"/>
	<path style="fill-rule:evenodd;clip-rule:evenodd;fill:#FFE177;" d="M399.877,276.022l69.822,18.561&#10;&#9;&#9;c27.669,8.029,18.667,47.224-9.175,40.029l-86.325-22.331c-10.935-2.849-15.465-13.007-15.465-24.576v-31.339&#10;&#9;&#9;c0-11.31,9.261-20.518,20.571-20.518c11.31,0,20.571,9.209,20.571,20.518V276.022z"/>
	<path style="fill-rule:evenodd;clip-rule:evenodd;fill:#FFE177;" d="M333.188,169.574V129.43h-30.196&#10;&#9;&#9;c-11.079,0-20.139,9.036-20.139,20.058c0,11.051,9.06,20.087,20.139,20.087H333.188z"/>
	<path style="fill-rule:evenodd;clip-rule:evenodd;fill:#FFE177;" d="M333.188,96.739V56.566h-30.196&#10;&#9;&#9;c-11.079,0-20.139,9.036-20.139,20.087s9.06,20.087,20.139,20.087H333.188z"/>
	<path style="fill-rule:evenodd;clip-rule:evenodd;fill:#9BE69D;" d="M264.619,392.571h38.95h16.561&#10;&#9;&#9;c35.113,0,59.897-14.964,75.736-36.403c2.683-3.626,5.107-7.425,7.3-11.396l13.128-39.022c1.818-11.281,2.193-22.705,1.212-33.612&#10;&#9;&#9;c-2.222-24.691-11.079-46.648-25.88-58.159v-60.03c0-13.381,8.252-22.849,26.024-22.849h86.383V92.077&#10;&#9;&#9;c0-28.116-23.053-51.109-51.212-51.109c-52.107,0-70.889,0-113.994,0c-8.598,0-15.638,7.022-15.638,15.597v40.173v32.691v40.145&#10;&#9;&#9;v11.281v17.266c0,15.022-13.618,29.67-30.237,26.821c-109.06-18.648-140.48,32.691-175.795,86.879&#10;&#9;&#9;c-22.966,35.224-47.577,71.656-96.25,90.822c-19.504,7.425-16.59,32.634,6.261,31.425c68.033-6.935,96.741-29.094,110.763-58.504&#10;&#9;&#9;c10.675,11.453,22.591,15.367,35.546,16.633L264.619,392.571z"/>
	<path style="fill-rule:evenodd;clip-rule:evenodd;fill:#6FD7A3;" d="M504.032,131.099V92.077c0-28.116-23.053-51.109-51.212-51.109&#10;&#9;&#9;h-29.775c28.16,0,51.212,22.993,51.212,51.109v39.022H504.032z"/>
	<path style="fill-rule:evenodd;clip-rule:evenodd;fill:#6FD7A3;" d="M173.475,392.197l91.143,0.374h38.95h16.561&#10;&#9;&#9;c35.113,0,59.897-14.964,75.736-36.403c2.683-3.626,5.107-7.425,7.3-11.396l13.128-39.022c1.818-11.281,2.193-22.705,1.212-33.612&#10;&#9;&#9;c-2.02,20.576-37.796,100.174-116.245,100.174c-48.875,0-67.312-0.173-116.187-0.374c-11.195-1.065-32.199-8.432-44.605-17.813&#10;&#9;&#9;c-7.011-5.295-8.829-2.504-13.791,5.784C93.526,415.19,6.538,418.01,8.846,424.226c2.135,5.871,8.309,10.389,18.321,9.842&#10;&#9;&#9;c68.033-6.935,96.741-29.094,110.763-58.504C148.605,387.017,160.521,390.93,173.475,392.197L173.475,392.197z"/>
	<path style="fill:none;stroke:#000000;stroke-width:15;stroke-linecap:round;stroke-linejoin:round;stroke-miterlimit:10;" d="&#10;&#9;&#9;M302.992,129.43h20.196v40.145h-20.196c-11.079,0-20.139-9.036-20.139-20.087l0,0C282.853,138.466,291.913,129.43,302.992,129.43&#10;&#9;&#9;L302.992,129.43z"/>
	<path style="fill:none;stroke:#000000;stroke-width:15;stroke-linecap:round;stroke-linejoin:round;stroke-miterlimit:10;" d="&#10;&#9;&#9;M302.992,56.566h20.196v40.173h-20.196c-11.079,0-20.139-9.036-20.139-20.087l0,0C282.853,65.602,291.913,56.566,302.992,56.566&#10;&#9;&#9;L302.992,56.566z"/>
	<path style="fill:none;stroke:#000000;stroke-width:15;stroke-linecap:round;stroke-linejoin:round;stroke-miterlimit:10;" d="&#10;&#9;&#9;M417.996,280.828l51.703,13.756c27.496,8,18.754,46.763-8.684,40.145c-1.5-7.079-6.694-13.64-16.301-16.432l-29.285-7.799&#10;&#9;&#9;C417.39,300.656,418.227,290.612,417.996,280.828L417.996,280.828z"/>
	<path style="fill:none;stroke:#000000;stroke-width:15;stroke-linecap:round;stroke-linejoin:round;stroke-miterlimit:10;" d="&#10;&#9;&#9;M259.24,392.55l5.38,0.02h38.95h16.56c35.11,0,59.9-14.96,75.74-36.4c1.65-2.24,3.2-4.54,4.67-6.91"/>
	<path style="fill:none;stroke:#000000;stroke-width:15;stroke-linecap:round;stroke-linejoin:round;stroke-miterlimit:10;" d="&#10;&#9;&#9;M430.76,40.97c6.69,0,13.98,0,22.06,0c28.16,0,51.21,22.99,51.21,51.11v39.02H480h-62.35c-17.77,0-26.02,9.47-26.02,22.85v60.03&#10;&#9;&#9;c14.8,11.51,23.65,33.47,25.88,58.16c0.98,10.9,0.6,22.33-1.22,33.61l-1.54,4.58"/>
	<path style="fill:none;stroke:#000000;stroke-width:15;stroke-linecap:round;stroke-linejoin:round;stroke-miterlimit:10;" d="&#10;&#9;&#9;M56.08,429.78c-8.75,1.78-18.35,3.22-28.91,4.29c-22.85,1.21-25.77-24-6.26-31.43c48.67-19.16,73.28-55.6,96.25-90.82&#10;&#9;&#9;c35.31-54.19,66.73-105.53,175.79-86.88c16.62,2.85,30.24-11.8,30.24-26.82c0-47.19,0-94.36,0-141.55c0-8.58,7.04-15.6,15.64-15.6&#10;&#9;&#9;c6.72,0,12.85,0,18.6,0"/>
	<path style="fill:none;stroke:#000000;stroke-width:15;stroke-linecap:round;stroke-linejoin:round;stroke-miterlimit:10;" d="&#10;&#9;&#9;M90.04,419.59c25.21-10.73,39.32-26.04,47.89-44.03c9.26,9.95,19.46,14.21,30.47,15.98"/>
	<path style="fill:none;stroke:#000000;stroke-width:15;stroke-linecap:round;stroke-linejoin:round;stroke-miterlimit:10;" d="&#10;&#9;&#9;M105.673,329.116l-18.061-17.986c-7.848-7.827-7.848-20.605-0.029-28.403c7.848-7.799,20.658-7.827,28.477,0l12.233,12.173"/>
	<path style="fill:none;stroke:#000000;stroke-width:15;stroke-linecap:round;stroke-linejoin:round;stroke-miterlimit:10;" d="&#10;&#9;&#9;M153.51,261.835c-4.876-7.568-10.618-17.439-12.926-21.065c-5.886-9.295-3.058-21.813,6.261-27.713&#10;&#9;&#9;c9.348-5.899,21.899-3.108,27.756,6.245l10.646,16.979"/>
	<path style="fill:none;stroke:#000000;stroke-width:15;stroke-linecap:round;stroke-linejoin:round;stroke-miterlimit:10;" d="&#10;&#9;&#9;M224.168,223.072v-18.878c0-11.022,9.06-20.058,20.11-20.058c11.079,0,20.139,9.036,20.139,20.058v17.295"/>
	<path style="fill-rule:evenodd;clip-rule:evenodd;fill:#EAF6FF;" d="M394.106,87.242c20.514,0,37.133-17.842,37.133-39.857&#10;&#9;&#9;c0-4.489-0.692-8.806-1.962-12.835C424.314,18.81,410.436,7.5,394.106,7.5c-16.359,0-30.208,11.31-35.199,27.051&#10;&#9;&#9;c-1.27,4.029-1.962,8.345-1.962,12.835C356.945,69.4,373.593,87.242,394.106,87.242L394.106,87.242z"/>
	<path style="fill-rule:evenodd;clip-rule:evenodd;fill:#D8ECFE;" d="M394.106,87.242c20.514,0,37.133-17.842,37.133-39.857&#10;&#9;&#9;c0-4.489-0.692-8.806-1.962-12.835C424.314,18.81,410.436,7.5,394.106,7.5c-0.404,0-0.808,0-1.212,0&#10;&#9;&#9;c30.756,14.331,20.168,75.311-13.56,76.49C383.864,86.091,388.855,87.242,394.106,87.242L394.106,87.242z"/>
	<path style="fill:none;stroke:#000000;stroke-width:15;stroke-linecap:round;stroke-linejoin:round;stroke-miterlimit:10;" d="&#10;&#9;&#9;M394.106,87.242c20.456,0,37.133-17.9,37.133-39.857c0-21.986-16.676-39.886-37.133-39.886c-20.456,0-37.161,17.9-37.161,39.886&#10;&#9;&#9;C356.945,69.343,373.65,87.242,394.106,87.242L394.106,87.242z"/>
	
		<line style="fill:none;stroke:#000000;stroke-width:15;stroke-linecap:round;stroke-linejoin:round;stroke-miterlimit:10;" x1="398.319" y1="39.558" x2="398.319" y2="52.824"/>
	<path style="fill-rule:evenodd;clip-rule:evenodd;fill:#FFE177;" d="M259.916,351.448v35.511c0,21.41-29.718,38.965-51.068,39.454&#10;&#9;&#9;l-12.695,37.814l33.353,6.158c9.377,1.727,15.638,10.792,13.907,20.144c-1.76,9.353-10.675,13.813-20.196,13.842l-43.566,0.115&#10;&#9;&#9;c-5.02,0.029-6.809,0.259-10.589-3.079l-21.293-18.849c-5.309-4.691-5.568-11.712-2.51-19.482l23.139-71.541v-40.087&#10;&#9;&#9;C168.397,286.065,259.916,286.065,259.916,351.448L259.916,351.448z"/>
	<path style="fill-rule:evenodd;clip-rule:evenodd;fill:#FFD15B;" d="M196.153,464.227l12.695-37.814&#10;&#9;&#9;c18.956-0.432,44.519-14.331,50-32.432c0.692-2.389,1.068-4.547,1.068-7.022v-35.511c0-25.612-14.022-41.18-31.102-46.734&#10;&#9;&#9;c5.078,7.626,8.281,17.439,8.194,29.526l-0.317,46.936c-3.174,19.281-12.579,23.339-31.824,24.317&#10;&#9;&#9;c-7.04,0.374-7.357,4.029-9.694,10.705l-12.464,35.799c-4.443,13.468-8.742,25.036,5.742,27.713l20.716,3.827&#10;&#9;&#9;c12.031,2.216,28.823,6.446,14.051,20.835c9.521-0.029,18.436-4.489,20.196-13.842c1.731-9.353-4.53-18.418-13.907-20.144&#10;&#9;&#9;L196.153,464.227z"/>
	<path style="fill-rule:evenodd;clip-rule:evenodd;fill:#FFE177;" d="M374.891,299.735l69.822,18.561&#10;&#9;&#9;c27.669,8.029,18.667,47.224-9.175,40.029l-86.296-22.36c-10.964-2.82-15.493-12.979-15.493-24.547v-31.367&#10;&#9;&#9;c0-11.281,9.261-20.518,20.571-20.518c11.31,0,20.571,9.238,20.571,20.518V299.735z"/>
	<path style="fill-rule:evenodd;clip-rule:evenodd;fill:#FFD15B;" d="M374.891,299.735v-19.684c0-9.756-6.953-18.015-16.157-20.029&#10;&#9;&#9;c-1.414-0.317-2.885-0.489-4.414-0.489c-8.136,0-15.205,4.777-18.523,11.655c10.3-6.187,25.274-5.238,25.274,12.921v21.295&#10;&#9;&#9;c0,5.755,2.626,6.676,7.761,8.086c21.552,5.842,41.46,13.094,63.474,18.964c15.522,4.489,18.783,18.274,9.117,26.734&#10;&#9;&#9;c14.397,0.432,22.101-12.72,19.59-24.461c-1.5-7.079-6.665-13.64-16.301-16.432C421.429,312.109,398.174,305.922,374.891,299.735&#10;&#9;&#9;L374.891,299.735z"/>
	<path style="fill:none;stroke:#000000;stroke-width:15;stroke-linecap:round;stroke-linejoin:round;stroke-miterlimit:10;" d="&#10;&#9;&#9;M374.891,299.735l69.822,18.561c27.669,8.029,18.667,47.224-9.175,40.029l-86.296-22.36c-10.964-2.82-15.493-12.979-15.493-24.547&#10;&#9;&#9;v-31.367c0-11.281,9.261-20.518,20.571-20.518c11.31,0,20.571,9.238,20.571,20.518V299.735z"/>
	<path style="fill:none;stroke:#000000;stroke-width:15;stroke-linecap:round;stroke-linejoin:round;stroke-miterlimit:10;" d="&#10;&#9;&#9;M259.916,351.448v35.511c0,21.41-29.718,38.965-51.068,39.454l-12.695,37.814l33.353,6.158&#10;&#9;&#9;c9.377,1.727,15.638,10.792,13.907,20.144c-1.76,9.353-10.675,13.813-20.196,13.842l-43.566,0.115&#10;&#9;&#9;c-5.02,0.029-6.809,0.259-10.589-3.079l-21.293-18.849c-5.309-4.691-5.568-11.712-2.51-19.482l23.139-71.541v-40.087&#10;&#9;&#9;C168.397,286.065,259.916,286.065,259.916,351.448L259.916,351.448z"/>
</g>















</svg>
