<?xml version="1.0" encoding="UTF-8" standalone="no"?>
<!-- Created with Inkscape (http://www.inkscape.org/) -->

<svg
   version="1.1"
   id="svg2763"
   width="682.66669"
   height="682.66669"
   viewBox="0 0 682.66669 682.66669"
   xmlns="http://www.w3.org/2000/svg"
   xmlns:svg="http://www.w3.org/2000/svg">
  <defs
     id="defs2767">
    <clipPath
       clipPathUnits="userSpaceOnUse"
       id="clipPath2777">
      <path
         d="M 0,512 H 512 V 0 H 0 Z"
         id="path2775" />
    </clipPath>
  </defs>
  <g
     id="g2769"
     transform="matrix(1.3333333,0,0,-1.3333333,0,682.66667)">
    <g
       id="g2771">
      <g
         id="g2773"
         clip-path="url(#clipPath2777)">
        <g
           id="g2779"
           transform="translate(471.7783,70.5039)">
          <path
             d="m 0,0 c -1.231,-18.649 -2.766,-37.299 -4.575,-55.949 -142.933,-9.399 -285.857,-9.399 -428.781,0 -1.81,18.65 -3.344,37.3 -4.576,55.949 -6.568,98.844 -5.043,197.679 4.576,296.523 142.924,9.398 285.848,9.398 428.781,0 C 5.044,197.679 6.568,98.844 0,0"
             style="fill:#f7f9f9;fill-opacity:1;fill-rule:nonzero;stroke:none"
             id="path2781" />
        </g>
        <g
           id="g2783"
           transform="translate(471.7783,70.5039)">
          <path
             d="m 0,0 c -1.231,-18.649 -2.766,-37.299 -4.575,-55.949 -142.933,-9.399 -285.857,-9.399 -428.781,0 -1.81,18.65 -3.344,37.3 -4.576,55.949 z"
             style="fill:#bcdf95;fill-opacity:1;fill-rule:nonzero;stroke:none"
             id="path2785" />
        </g>
        <g
           id="g2787"
           transform="translate(177.5537,280.0903)">
          <path
             d="m 0,0 c 9.094,-16.685 -1.359,-44.076 -25.701,-44.076 -24.343,0 -44.076,19.734 -44.076,44.076 0,24.343 19.733,44.076 44.076,44.076 24.342,0 44.075,-19.733 44.075,-44.076"
             style="fill:#80b4fb;fill-opacity:1;fill-rule:nonzero;stroke:none"
             id="path2789" />
        </g>
        <g
           id="g2791"
           transform="translate(291.2119,233.7295)">
          <path
             d="m 0,0 c 13.583,-1.059 25.957,-18.053 16.438,-32.683 -9.519,-14.629 -29.096,-18.772 -43.725,-9.252 -14.63,9.519 -18.773,29.096 -9.253,43.725 9.519,14.63 31.602,22.623 46.23,13.103"
             style="fill:#dd636e;fill-opacity:1;fill-rule:nonzero;stroke:none"
             id="path2793" />
        </g>
        <g
           id="g2795"
           transform="translate(30.9805,126.8398)">
          <path
             d="m 0,0 c -2.83,80.07 -0.351,160.13 7.439,240.18 43.84,2.88 87.68,4.88 131.531,5.99"
             style="fill:none;stroke:#000000;stroke-width:15;stroke-linecap:round;stroke-linejoin:round;stroke-miterlimit:10;stroke-dasharray:none;stroke-opacity:1"
             id="path2797" />
        </g>
        <g
           id="g2799"
           transform="translate(240.1504,374.04)">
          <path
             d="m 0,0 c 75.68,0.3 151.359,-2.04 227.05,-7.02 11.429,-117.48 11.429,-234.97 0,-352.47 -142.931,-9.4 -285.851,-9.4 -428.78,0 -2.68,27.51 -4.73,55.03 -6.14,82.54"
             style="fill:none;stroke:#000000;stroke-width:15;stroke-linecap:round;stroke-linejoin:round;stroke-miterlimit:10;stroke-dasharray:none;stroke-opacity:1"
             id="path2801" />
        </g>
        <g
           id="g2803"
           transform="translate(177.5537,280.0903)">
          <path
             d="m 0,0 c 9.094,-16.685 -1.359,-44.076 -25.701,-44.076 -24.343,0 -44.076,19.734 -44.076,44.076 0,24.343 19.733,44.076 44.076,44.076 24.342,0 44.075,-19.733 44.075,-44.076"
             style="fill:none;stroke:#000000;stroke-width:15;stroke-linecap:round;stroke-linejoin:round;stroke-miterlimit:10;stroke-dasharray:none;stroke-opacity:1"
             id="path2805" />
        </g>
        <g
           id="g2807"
           transform="translate(151.8525,236.0142)">
          <path
             d="M 0,0 V -82.868"
             style="fill:none;stroke:#000000;stroke-width:15;stroke-linecap:round;stroke-linejoin:round;stroke-miterlimit:10;stroke-dasharray:none;stroke-opacity:1"
             id="path2809" />
        </g>
        <g
           id="g2811"
           transform="translate(195.7588,60.3657)">
          <path
             d="M 0,0 -43.906,92.781 -87.813,0"
             style="fill:none;stroke:#000000;stroke-width:15;stroke-linecap:round;stroke-linejoin:round;stroke-miterlimit:10;stroke-dasharray:none;stroke-opacity:1"
             id="path2813" />
        </g>
        <g
           id="g2815"
           transform="translate(219.6729,166.6455)">
          <path
             d="M 0,0 -67.317,41.941 -127.049,9.749"
             style="fill:none;stroke:#000000;stroke-width:15;stroke-linecap:round;stroke-linejoin:round;stroke-miterlimit:10;stroke-dasharray:none;stroke-opacity:1"
             id="path2817" />
        </g>
        <g
           id="g2819"
           transform="translate(291.2119,233.7295)">
          <path
             d="m 0,0 c 13.583,-1.059 25.957,-18.053 16.438,-32.683 -9.519,-14.629 -29.096,-18.772 -43.725,-9.252 -14.63,9.519 -18.773,29.096 -9.253,43.725 9.519,14.63 31.602,22.623 46.23,13.103"
             style="fill:none;stroke:#000000;stroke-width:15;stroke-linecap:round;stroke-linejoin:round;stroke-miterlimit:10;stroke-dasharray:none;stroke-opacity:1"
             id="path2821" />
        </g>
        <g
           id="g2823"
           transform="translate(280.1172,186.3086)">
          <path
             d="M 0,0 V -59.417"
             style="fill:none;stroke:#000000;stroke-width:15;stroke-linecap:round;stroke-linejoin:round;stroke-miterlimit:10;stroke-dasharray:none;stroke-opacity:1"
             id="path2825" />
        </g>
        <g
           id="g2827"
           transform="translate(311.5986,60.3657)">
          <path
             d="M 0,0 -31.481,66.525 -62.964,0"
             style="fill:none;stroke:#000000;stroke-width:15;stroke-linecap:round;stroke-linejoin:round;stroke-miterlimit:10;stroke-dasharray:none;stroke-opacity:1"
             id="path2829" />
        </g>
        <g
           id="g2831"
           transform="translate(328.7451,136.5698)">
          <path
             d="m 0,0 -48.268,30.072 -60.804,0.004"
             style="fill:none;stroke:#000000;stroke-width:15;stroke-linecap:round;stroke-linejoin:round;stroke-miterlimit:10;stroke-dasharray:none;stroke-opacity:1"
             id="path2833" />
        </g>
        <g
           id="g2835"
           transform="translate(439.5352,283.5874)">
          <path
             d="m 0,0 c 0,-22.411 -18.168,-40.579 -40.579,-40.579 -22.411,0 -40.579,18.168 -40.579,40.579 0,22.411 18.168,40.579 40.579,40.579 C -18.168,40.579 0,22.411 0,0"
             style="fill:#f6e266;fill-opacity:1;fill-rule:nonzero;stroke:none"
             id="path2837" />
        </g>
        <g
           id="g2839"
           transform="translate(439.5352,283.5874)">
          <path
             d="m 0,0 c 0,-22.411 -18.168,-40.579 -40.579,-40.579 -22.411,0 -40.579,18.168 -40.579,40.579 0,22.411 18.168,40.579 40.579,40.579 C -18.168,40.579 0,22.411 0,0 Z"
             style="fill:none;stroke:#000000;stroke-width:15;stroke-linecap:round;stroke-linejoin:round;stroke-miterlimit:10;stroke-dasharray:none;stroke-opacity:1"
             id="path2841" />
        </g>
        <g
           id="g2843"
           transform="translate(341.377,324.1665)">
          <path
             d="M 0,0 -29.778,9.757"
             style="fill:none;stroke:#000000;stroke-width:15;stroke-linecap:round;stroke-linejoin:round;stroke-miterlimit:10;stroke-dasharray:none;stroke-opacity:1"
             id="path2845" />
        </g>
        <g
           id="g2847"
           transform="translate(328.7451,280.0903)">
          <path
             d="M 0,0 H -21.972"
             style="fill:none;stroke:#000000;stroke-width:15;stroke-linecap:round;stroke-linejoin:round;stroke-miterlimit:10;stroke-dasharray:none;stroke-opacity:1"
             id="path2849" />
        </g>
        <g
           id="g2851"
           transform="translate(364.3506,222.5142)">
          <path
             d="M 0,0 -12.967,-27.934"
             style="fill:none;stroke:#000000;stroke-width:15;stroke-linecap:round;stroke-linejoin:round;stroke-miterlimit:10;stroke-dasharray:none;stroke-opacity:1"
             id="path2853" />
        </g>
        <g
           id="g2855"
           transform="translate(422.4844,222.5142)">
          <path
             d="M 0,0 5.828,-34.898"
             style="fill:none;stroke:#000000;stroke-width:15;stroke-linecap:round;stroke-linejoin:round;stroke-miterlimit:10;stroke-dasharray:none;stroke-opacity:1"
             id="path2857" />
        </g>
        <g
           id="g2859"
           transform="translate(132.2539,284.4814)">
          <path
             d="M 0,0 V -0.459"
             style="fill:none;stroke:#000000;stroke-width:15;stroke-linecap:round;stroke-linejoin:round;stroke-miterlimit:10;stroke-dasharray:none;stroke-opacity:1"
             id="path2861" />
        </g>
        <g
           id="g2863"
           transform="translate(151.8525,293.1284)">
          <path
             d="M 0,0 V -0.459"
             style="fill:none;stroke:#000000;stroke-width:15;stroke-linecap:round;stroke-linejoin:round;stroke-miterlimit:10;stroke-dasharray:none;stroke-opacity:1"
             id="path2865" />
        </g>
        <g
           id="g2867"
           transform="translate(269.8721,217.2676)">
          <path
             d="M 0,0 -0.258,-0.38"
             style="fill:none;stroke:#000000;stroke-width:15;stroke-linecap:round;stroke-linejoin:round;stroke-miterlimit:10;stroke-dasharray:none;stroke-opacity:1"
             id="path2869" />
        </g>
        <g
           id="g2871"
           transform="translate(290.9482,213.438)">
          <path
             d="M 0,0 -0.258,-0.38"
             style="fill:none;stroke:#000000;stroke-width:15;stroke-linecap:round;stroke-linejoin:round;stroke-miterlimit:10;stroke-dasharray:none;stroke-opacity:1"
             id="path2873" />
        </g>
        <g
           id="g2875"
           transform="translate(57.0732,76.9121)">
          <path
             d="M 0,0 V -12.821"
             style="fill:none;stroke:#000000;stroke-width:15;stroke-linecap:round;stroke-linejoin:round;stroke-miterlimit:10;stroke-dasharray:none;stroke-opacity:1"
             id="path2877" />
        </g>
        <g
           id="g2879"
           transform="translate(76.8877,76.9121)">
          <path
             d="M 0,0 V -12.821"
             style="fill:none;stroke:#000000;stroke-width:15;stroke-linecap:round;stroke-linejoin:round;stroke-miterlimit:10;stroke-dasharray:none;stroke-opacity:1"
             id="path2881" />
        </g>
        <g
           id="g2883"
           transform="translate(341.4766,76.9121)">
          <path
             d="M 0,0 V -12.821"
             style="fill:none;stroke:#000000;stroke-width:15;stroke-linecap:round;stroke-linejoin:round;stroke-miterlimit:10;stroke-dasharray:none;stroke-opacity:1"
             id="path2885" />
        </g>
        <g
           id="g2887"
           transform="translate(361.291,76.9121)">
          <path
             d="M 0,0 V -12.821"
             style="fill:none;stroke:#000000;stroke-width:15;stroke-linecap:round;stroke-linejoin:round;stroke-miterlimit:10;stroke-dasharray:none;stroke-opacity:1"
             id="path2889" />
        </g>
        <g
           id="g2891"
           transform="translate(402.6699,76.9121)">
          <path
             d="M 0,0 V -12.821"
             style="fill:none;stroke:#000000;stroke-width:15;stroke-linecap:round;stroke-linejoin:round;stroke-miterlimit:10;stroke-dasharray:none;stroke-opacity:1"
             id="path2893" />
        </g>
        <g
           id="g2895"
           transform="translate(422.4844,76.9121)">
          <path
             d="M 0,0 V -12.821"
             style="fill:none;stroke:#000000;stroke-width:15;stroke-linecap:round;stroke-linejoin:round;stroke-miterlimit:10;stroke-dasharray:none;stroke-opacity:1"
             id="path2897" />
        </g>
        <g
           id="g2899"
           transform="translate(445.7959,76.9121)">
          <path
             d="M 0,0 V -12.821"
             style="fill:none;stroke:#000000;stroke-width:15;stroke-linecap:round;stroke-linejoin:round;stroke-miterlimit:10;stroke-dasharray:none;stroke-opacity:1"
             id="path2901" />
        </g>
        <g
           id="g2903"
           transform="translate(328.2314,446.1606)">
          <path
             d="M 0,0 C 0,0 -20.406,-12.979 -22.558,-42.103 0.627,-59.859 23.89,-53.247 23.89,-53.247 l 6.575,34.933 z"
             style="fill:#f6e266;fill-opacity:1;fill-rule:nonzero;stroke:none"
             id="path2905" />
        </g>
        <g
           id="g2907"
           transform="translate(335.9307,428.9995)">
          <path
             d="m 0,0 c 0,0 -21.325,-10.927 -30.261,-24.942 2.157,29.124 22.562,42.103 22.562,42.103 L 22.766,-1.152 Z"
             style="fill:#ecbe6b;fill-opacity:1;fill-rule:nonzero;stroke:none"
             id="path2909" />
        </g>
        <g
           id="g2911"
           transform="translate(328.2314,446.1606)">
          <path
             d="M 0,0 C 42.706,20.866 86.05,40.313 130.031,58.339 141.461,42.146 149.425,24.397 153.92,5.093 111.214,-15.774 67.87,-35.22 23.889,-53.246 Z"
             style="fill:#80b4fb;fill-opacity:1;fill-rule:nonzero;stroke:none"
             id="path2913" />
        </g>
        <g
           id="g2915"
           transform="translate(335.9307,428.9995)">
          <path
             d="M 0,0 -7.699,17.161 C 35.008,38.032 78.346,57.476 122.33,75.5 126.006,70.288 129.329,64.907 132.293,59.376 87.973,40.072 43.883,20.28 0,0"
             style="fill:#61a2f9;fill-opacity:1;fill-rule:nonzero;stroke:none"
             id="path2917" />
        </g>
        <g
           id="g2919"
           transform="translate(412.3701,485.0698)">
          <path
             d="M 0,0 C 15.22,6.65 30.51,13.12 45.89,19.43 57.32,3.24 65.29,-14.51 69.78,-33.82 27.08,-54.68 -16.271,-74.13 -60.25,-92.16 l -23.89,53.25 c 18.81,9.2 37.75,18.11 56.81,26.75"
             style="fill:none;stroke:#000000;stroke-width:15;stroke-linecap:round;stroke-linejoin:round;stroke-miterlimit:10;stroke-dasharray:none;stroke-opacity:1"
             id="path2921" />
        </g>
        <g
           id="g2923"
           transform="translate(352.1211,392.9141)">
          <path
             d="m 0,0 c 0,0 -23.263,-6.612 -46.447,11.144 2.151,29.123 22.557,42.103 22.557,42.103"
             style="fill:none;stroke:#000000;stroke-width:15;stroke-linecap:round;stroke-linejoin:round;stroke-miterlimit:10;stroke-dasharray:none;stroke-opacity:1"
             id="path2925" />
        </g>
        <g
           id="g2927"
           transform="translate(305.6738,404.0581)">
          <path
             d="M 0,0 -5.368,-2.409"
             style="fill:none;stroke:#000000;stroke-width:15;stroke-linecap:round;stroke-linejoin:round;stroke-miterlimit:10;stroke-dasharray:none;stroke-opacity:1"
             id="path2929" />
        </g>
        <g
           id="g2931"
           transform="translate(191.0059,353.0137)">
          <path
             d="m 0,0 c 0,0 19.389,-14.454 47.373,-6.105 8.349,27.983 -6.105,47.372 -6.105,47.372 L 6.28,34.987 Z"
             style="fill:#f6e266;fill-opacity:1;fill-rule:nonzero;stroke:none"
             id="path2933" />
        </g>
        <g
           id="g2935"
           transform="translate(204.3066,366.314)">
          <path
             d="M 0,0 C 0,0 17.797,-16.043 34.074,-19.409 6.088,-27.753 -13.301,-13.3 -13.301,-13.3 l 6.28,34.987 z"
             style="fill:#ecbe6b;fill-opacity:1;fill-rule:nonzero;stroke:none"
             id="path2937" />
        </g>
        <g
           id="g2939"
           transform="translate(191.0059,353.0137)">
          <path
             d="m 0,0 c -34.692,32.492 -68.284,66.084 -100.775,100.776 11.068,16.443 24.823,30.198 41.266,41.267 C -24.816,109.551 8.775,75.959 41.267,41.267 Z"
             style="fill:#dd636e;fill-opacity:1;fill-rule:nonzero;stroke:none"
             id="path2941" />
        </g>
        <g
           id="g2943"
           transform="translate(204.3066,366.314)">
          <path
             d="m 0,0 -13.301,-13.3 c -34.697,32.491 -68.284,66.078 -100.774,100.775 3.563,5.289 7.41,10.309 11.525,15.046 C -68.744,67.966 -34.563,33.799 0,0"
             style="fill:#da4a54;fill-opacity:1;fill-rule:nonzero;stroke:none"
             id="path2945" />
        </g>
        <g
           id="g2947"
           transform="translate(191.0059,353.0137)">
          <path
             d="m 0,0 c -34.692,32.492 -68.284,66.084 -100.775,100.776 11.068,16.443 24.823,30.198 41.266,41.267 C -24.816,109.551 8.775,75.959 41.267,41.267 Z"
             style="fill:none;stroke:#000000;stroke-width:15;stroke-linecap:round;stroke-linejoin:round;stroke-miterlimit:10;stroke-dasharray:none;stroke-opacity:1"
             id="path2949" />
        </g>
        <g
           id="g2951"
           transform="translate(232.2734,394.2808)">
          <path
             d="m 0,0 c 0,0 14.454,-19.389 6.105,-47.373 -27.984,-8.348 -47.373,6.106 -47.373,6.106"
             style="fill:none;stroke:#000000;stroke-width:15;stroke-linecap:round;stroke-linejoin:round;stroke-miterlimit:10;stroke-dasharray:none;stroke-opacity:1"
             id="path2953" />
        </g>
        <g
           id="g2955"
           transform="translate(238.3789,346.9082)">
          <path
             d="M 0,0 4.161,-4.161"
             style="fill:none;stroke:#000000;stroke-width:15;stroke-linecap:round;stroke-linejoin:round;stroke-miterlimit:10;stroke-dasharray:none;stroke-opacity:1"
             id="path2957" />
        </g>
      </g>
    </g>
  </g>
</svg>
