<?xml version="1.0" encoding="UTF-8" standalone="no"?>
<!-- Created with Inkscape (http://www.inkscape.org/) -->

<svg
   version="1.1"
   id="svg1467"
   xml:space="preserve"
   width="682.66669"
   height="682.66669"
   viewBox="0 0 682.66669 682.66669"
   xmlns="http://www.w3.org/2000/svg"
   xmlns:svg="http://www.w3.org/2000/svg"><defs
     id="defs1471"><clipPath
       clipPathUnits="userSpaceOnUse"
       id="clipPath1481"><path
         d="M 0,512 H 512 V 0 H 0 Z"
         id="path1479" /></clipPath></defs><g
     id="g1473"
     transform="matrix(1.3333333,0,0,-1.3333333,0,682.66667)"><g
       id="g1475"><g
         id="g1477"
         clip-path="url(#clipPath1481)"><g
           id="g1483"
           transform="translate(464.4521,416.3833)"><path
             d="m 0,0 c -46.91,46.91 -119.944,54.191 -193.569,13.416 -9.251,-5.124 -20.484,-5.124 -29.735,0 -73.625,40.775 -146.661,33.494 -193.6,-13.416 -61.537,-61.567 -54.869,-168.034 38.935,-261.807 3.456,-3.456 6.973,-6.82 10.552,-10.124 47.192,-43.706 105.304,-75.575 158.98,-88.88 53.646,13.305 111.757,45.174 158.95,88.88 3.579,3.304 7.095,6.668 10.552,10.124 C 54.869,-168.034 61.537,-61.567 0,0"
             style="fill:#fb4a59;fill-opacity:1;fill-rule:nonzero;stroke:none"
             id="path1485" /></g><g
           id="g1487"
           transform="translate(417.5303,222.6211)"><path
             d="m 0,0 c -2.29,-7.92 -2.75,-16.26 -1.36,-24.39 l 7.73,-45.25 c -2.94,-2.91 -5.921,-5.74 -8.931,-8.53 -35.049,-32.45 -76.12,-58.38 -116.899,-75.03 -9.53,6.32 -17.74,14.6 -23.971,24.4 -12.609,19.83 -32.009,34.41 -54.299,41.87 0,0 -36.95,7.24 -53,11.31 -5.24,1.33 -8.6,6.01 -8.6,11.07 0,1.6 0.34,3.24 1.059,4.83 6.401,14.08 21.071,22.51 36.46,20.95 l 32.371,-3.28 c 14.24,-1.44 25.21,12.47 20.33,25.92 -0.02,0.07 -0.05,0.13 -0.07,0.19 -9.54,25.91 -31.56,77.36 -40.97,99.17 -2.46,5.7 -0.03,12.33 5.53,15.09 l 0.41,0.2 c 11.68,5.8 25.86,1.39 32.2,-10.01 l 47.789,-85.99 -21.059,112.84 c -1.191,6.41 3.09,12.56 9.519,13.66 l 1.511,0.26 c 12.56,2.14 24.649,-5.72 27.79,-18.06 l 25.68,-101.17 7.07,102.44 c 0.43,6.18 5.58,10.87 11.619,10.87 0.45,0 0.901,-0.03 1.361,-0.08 12.91,-1.48 22.389,-12.81 21.58,-25.78 l -5.52,-88.57 33.6,70.36 c 3.059,6.39 11.049,8.62 16.969,4.72 L 6.29,83.75 c 8.93,-5.89 13,-16.89 10.029,-27.16 z"
             style="fill:#f82f41;fill-opacity:1;fill-rule:nonzero;stroke:none"
             id="path1489" /></g><g
           id="g1491"
           transform="translate(425.5195,154.5806)"><path
             d="m 0,0 c -3.46,-3.46 -6.979,-6.82 -10.55,-10.13 -47.2,-43.7 -105.309,-75.57 -158.95,-88.88 -11.68,2.89 -23.569,6.67 -35.51,11.26 53.601,13.32 111.63,45.17 158.771,88.83 3.58,3.3 7.099,6.67 10.559,10.12 93.8,93.78 100.47,200.24 38.93,261.81 -11.22,11.22 -23.93,20.17 -37.79,26.74 28,-4.78 53.181,-17.66 73.471,-37.95 C 100.471,200.24 93.801,93.77 0,0"
             style="fill:#f82f41;fill-opacity:1;fill-rule:nonzero;stroke:none"
             id="path1493" /></g><g
           id="g1495"
           transform="translate(105.0146,137.2754)"><path
             d="m 0,0 c 45.67,-40.011 100.31,-69.139 151,-81.703 53.646,13.305 111.758,45.174 158.95,88.88 3.579,3.303 7.096,6.668 10.553,10.124 93.804,93.773 100.471,200.24 38.934,261.807 -46.91,46.91 -119.944,54.191 -193.569,13.416 -9.251,-5.123 -20.483,-5.123 -29.734,0 -73.626,40.775 -146.662,33.494 -193.6,-13.416 -59.821,-59.851 -55.178,-162.129 31.299,-253.932"
             style="fill:none;stroke:#000000;stroke-width:15;stroke-linecap:round;stroke-linejoin:round;stroke-miterlimit:10;stroke-dasharray:none;stroke-opacity:1"
             id="path1497" /></g><g
           id="g1499"
           transform="translate(422.8945,321.3408)"><path
             d="m 0,0 -33.607,-70.358 5.525,88.572 c 0.809,12.966 -8.675,24.295 -21.581,25.78 -6.615,0.761 -12.526,-4.155 -12.984,-10.798 L -69.711,-69.245 -95.399,31.926 c -3.134,12.344 -15.229,20.206 -27.782,18.06 l -1.518,-0.259 c -6.426,-1.098 -10.708,-7.245 -9.513,-13.653 l 21.056,-112.843 -47.793,85.985 c -6.337,11.401 -20.515,15.809 -32.199,10.011 l -0.405,-0.201 c -5.56,-2.759 -7.992,-9.383 -5.533,-15.082 9.413,-21.813 31.43,-73.26 40.972,-99.17 0.023,-0.063 0.047,-0.127 0.069,-0.191 4.884,-13.45 -6.091,-27.367 -20.328,-25.925 l -32.372,3.279 c -15.389,1.559 -30.058,-6.87 -36.462,-20.95 -2.995,-6.583 0.638,-14.151 7.542,-15.902 16.047,-4.068 53.004,-11.305 53.004,-11.305 22.29,-7.46 41.687,-22.035 54.298,-41.871 17.189,-27.039 49.456,-42.582 83.017,-36.847 44.638,7.628 74.641,49.998 67.013,94.636 l -7.966,46.617 c -1.389,8.132 -0.924,16.472 1.363,24.398 l 16.324,56.582 c 2.964,10.273 -1.1,21.279 -10.029,27.161 L 16.961,4.718 C 11.047,8.615 3.053,6.391 0,0"
             style="fill:#ffcec0;fill-opacity:1;fill-rule:nonzero;stroke:none"
             id="path1501" /></g><g
           id="g1503"
           transform="translate(433.96,242.0513)"><path
             d="M 0,0 C -2.29,-7.92 -2.75,-16.26 -1.36,-24.4 L 6.6,-71.01 c 0.8,-4.68 1.19,-9.33 1.19,-13.91 0,-39.22 -28.24,-73.9 -68.2,-80.73 -9.16,-1.56 -18.22,-1.54 -26.91,-0.13 0.27,0.04 0.54,0.08 0.81,0.13 39.97,6.83 68.21,41.51 68.21,80.73 0,4.59 -0.39,9.24 -1.19,13.91 l -7.97,46.61 c -1.39,8.14 -0.92,16.48 1.36,24.4 l 16.329,56.58 c 1.961,6.81 0.841,13.95 -2.739,19.69 l 1.44,3.02 c 3.06,6.39 11.049,8.61 16.97,4.72 l 0.39,-0.26 c 8.93,-5.89 13,-16.89 10.03,-27.17 z"
             style="fill:#fdb0a0;fill-opacity:1;fill-rule:nonzero;stroke:none"
             id="path1505" /></g><g
           id="g1507"
           transform="translate(389.5244,80.8169)"><path
             d="m 0,0 c 35.562,13.82 57.714,51.152 51.037,90.222 l -7.966,46.617 c -1.389,8.132 -0.924,16.472 1.364,24.398 l 16.324,56.582 c 2.963,10.273 -1.101,21.279 -10.03,27.161 l -0.398,0.263 c -5.914,3.896 -13.908,1.672 -16.961,-4.719 l -33.607,-70.358 5.525,88.572 c 0.809,12.966 -8.676,24.295 -21.581,25.78 -6.615,0.761 -12.526,-4.155 -12.984,-10.798 L -36.341,171.279 -62.029,272.45 c -3.134,12.343 -15.229,20.206 -27.782,18.061 l -1.518,-0.26 c -6.426,-1.098 -10.709,-7.244 -9.513,-13.653 l 21.056,-112.843 -47.793,85.985 c -6.337,11.401 -20.515,15.809 -32.199,10.01 l -0.405,-0.2 c -5.56,-2.759 -7.992,-9.383 -5.533,-15.082 3.532,-8.184 8.838,-20.541 14.594,-34.156"
             style="fill:none;stroke:#000000;stroke-width:15;stroke-linecap:round;stroke-linejoin:round;stroke-miterlimit:10;stroke-dasharray:none;stroke-opacity:1"
             id="path1509" /></g><g
           id="g1511"
           transform="translate(252.332,257.7026)"><path
             d="m 0,0 c 4.896,-11.968 9.337,-23.138 12.448,-31.587 0.024,-0.063 0.047,-0.127 0.07,-0.191 4.883,-13.451 -6.091,-27.368 -20.328,-25.926 l -32.372,3.279 c -15.389,1.559 -30.059,-6.869 -36.463,-20.95 -2.994,-6.583 0.638,-14.151 7.542,-15.901 16.048,-4.069 53.005,-11.306 53.005,-11.306 22.289,-7.46 41.687,-22.035 54.297,-41.871 13.766,-21.654 37.205,-35.922 63.233,-37.805"
             style="fill:none;stroke:#000000;stroke-width:15;stroke-linecap:round;stroke-linejoin:round;stroke-miterlimit:10;stroke-dasharray:none;stroke-opacity:1"
             id="path1513" /></g></g></g></g></svg>
