<?xml version="1.0" encoding="UTF-8" standalone="no"?>
<!-- Created with Inkscape (http://www.inkscape.org/) -->

<svg
   version="1.1"
   id="svg6375"
   xml:space="preserve"
   width="682.66669"
   height="682.66669"
   viewBox="0 0 682.66669 682.66669"
   xmlns="http://www.w3.org/2000/svg"
   xmlns:svg="http://www.w3.org/2000/svg"><defs
     id="defs6379"><clipPath
       clipPathUnits="userSpaceOnUse"
       id="clipPath6389"><path
         d="M 0,512 H 512 V 0 H 0 Z"
         id="path6387" /></clipPath></defs><g
     id="g6381"
     transform="matrix(1.3333333,0,0,-1.3333333,0,682.66667)"><g
       id="g6383"><g
         id="g6385"
         clip-path="url(#clipPath6389)"><g
           id="g6391"
           transform="translate(116.8813,235.4102)"><path
             d="M 0,0 C -10.062,10.063 -26.105,11.052 -41.889,0.91 -57.674,11.052 -73.716,10.063 -83.785,0 c -12.367,-12.373 -11.027,-33.77 7.825,-52.614 0.694,-0.696 1.401,-1.371 2.121,-2.035 9.484,-8.784 21.162,-15.189 31.95,-17.863 10.781,2.674 22.459,9.079 31.944,17.863 0.719,0.664 1.425,1.339 2.12,2.035 C 11.027,-33.77 12.367,-12.373 0,0"
             style="fill:#fb4a59;fill-opacity:1;fill-rule:nonzero;stroke:none"
             id="path6393" /></g><g
           id="g6395"
           transform="translate(109.0542,182.793)"><path
             d="m 0,0 c -0.693,-0.692 -1.396,-1.367 -2.117,-2.032 -9.488,-8.785 -21.168,-15.193 -31.948,-17.862 -6.454,1.602 -13.235,4.534 -19.669,8.533 11.061,2.923 22.938,9.526 32.622,18.508 0.759,0.693 1.499,1.405 2.23,2.135 17.786,17.778 20.709,37.728 11.661,51 C -1.48,59.374 3.681,56.761 7.831,52.62 20.194,40.247 18.854,18.846 0,0"
             style="fill:#f82f41;fill-opacity:1;fill-rule:nonzero;stroke:none"
             id="path6397" /></g><g
           id="g6399"
           transform="translate(116.8813,235.4102)"><path
             d="M 0,0 C -10.062,10.063 -26.105,11.052 -41.889,0.91 -57.674,11.052 -73.716,10.063 -83.785,0 c -12.367,-12.373 -11.027,-33.77 7.825,-52.614 0.694,-0.696 1.401,-1.371 2.121,-2.035 9.484,-8.784 21.162,-15.189 31.95,-17.863 10.781,2.674 22.459,9.079 31.944,17.863 0.719,0.664 1.425,1.339 2.12,2.035 C 11.027,-33.77 12.367,-12.373 0,0 Z"
             style="fill:none;stroke:#000000;stroke-width:15;stroke-linecap:round;stroke-linejoin:round;stroke-miterlimit:10;stroke-dasharray:none;stroke-opacity:1"
             id="path6401" /></g><g
           id="g6403"
           transform="translate(215.584,333.0059)"><path
             d="m 0,0 c 0.977,-16.858 14.352,-30.353 31.2,-31.479 l 18.513,-1.236 56.35,-60.943 47.116,14.165 -6.144,20.591 c -1.511,6.463 -4.968,12.308 -9.903,16.746 L 77.501,11.462 c -6.021,5.413 -13.848,8.381 -21.943,8.32 L 18.272,19.505 C 7.723,19.427 -0.609,10.531 0,0"
             style="fill:#ea806f;fill-opacity:1;fill-rule:nonzero;stroke:none"
             id="path6405" /></g><g
           id="g6407"
           transform="translate(240.4399,302.5703)"><path
             d="m 0,0 c 2.044,-0.54 4.165,-0.896 6.344,-1.043 l 18.513,-1.236 56.35,-60.944 47.116,14.165 -6.144,20.591 c -1.511,6.463 -4.968,12.309 -9.903,16.746 L 52.645,41.897 c -6.02,5.414 -13.848,8.381 -21.944,8.321 L -6.584,49.94 c -10.549,-0.078 -18.881,-8.973 -18.272,-19.504 0.072,-1.237 0.218,-2.452 0.419,-3.649"
             style="fill:none;stroke:#000000;stroke-width:15;stroke-linecap:round;stroke-linejoin:round;stroke-miterlimit:10;stroke-dasharray:none;stroke-opacity:1"
             id="path6409" /></g><g
           id="g6411"
           transform="translate(222.7192,372.1328)"><path
             d="m 0,0 c 0.976,-16.858 14.351,-30.353 31.2,-31.478 l 18.512,-1.236 56.35,-60.943 47.116,14.165 -6.143,20.59 c -1.511,6.464 -4.968,12.308 -9.904,16.747 L 77.5,11.462 c -6.02,5.414 -13.847,8.382 -21.943,8.321 L 18.271,19.506 C 7.723,19.427 -0.61,10.531 0,0"
             style="fill:#f69583;fill-opacity:1;fill-rule:nonzero;stroke:none"
             id="path6413" /></g><g
           id="g6415"
           transform="translate(222.7192,372.1328)"><path
             d="m 0,0 c 0.976,-16.858 14.351,-30.353 31.2,-31.478 l 18.512,-1.236 56.35,-60.943 47.116,14.165 -6.143,20.59 c -1.511,6.464 -4.968,12.308 -9.904,16.747 L 77.5,11.462 c -6.02,5.414 -13.847,8.382 -21.943,8.321 L 18.271,19.506 C 7.723,19.427 -0.61,10.531 0,0 Z"
             style="fill:none;stroke:#000000;stroke-width:15;stroke-linecap:round;stroke-linejoin:round;stroke-miterlimit:10;stroke-dasharray:none;stroke-opacity:1"
             id="path6417" /></g><g
           id="g6419"
           transform="translate(504.499,113.8076)"><path
             d="m 0,0 -76.635,30.476 -48.742,208.488 c -1.511,6.463 -4.968,12.308 -9.903,16.746 l -59.631,53.618 c -6.021,5.413 -13.848,8.381 -21.944,8.32 l -37.285,-0.277 c -10.549,-0.078 -18.882,-8.974 -18.272,-19.505 0.976,-16.858 14.351,-30.352 31.2,-31.478 l 18.513,-1.237 45.711,-49.437 0.426,-32.895 -21.287,-78.781 83.691,-156.772 68.985,-35.37 z"
             style="fill:#fdb0a0;fill-opacity:1;fill-rule:nonzero;stroke:none"
             id="path6421" /></g><g
           id="g6423"
           transform="translate(386.0801,323)"><path
             d="M 0,0 C -1.82,-0.64 -3.62,-1.189 -5.4,-1.63 -16.04,1.01 -27.561,7.33 -36.92,16 c -0.71,0.65 -1.41,1.32 -2.09,2 -18.6,18.6 -19.93,39.71 -7.72,51.92 0.62,0.62 1.25,1.2 1.91,1.74 l 27.96,-25.14 c 4.93,-4.44 8.39,-10.29 9.9,-16.75 z"
             style="fill:#f69583;fill-opacity:1;fill-rule:nonzero;stroke:none"
             id="path6425" /></g><g
           id="g6427"
           transform="translate(250.3613,431.1826)"><path
             d="m 0,0 37.279,0.271 c 8.099,0.063 15.931,-2.907 21.944,-8.317 l 59.63,-53.619 c 4.936,-4.435 8.394,-10.286 9.904,-16.746 l 48.745,-208.485 76.637,-30.476 -10.598,-20.67 -79.799,33.704 c -3.648,2.707 -6.191,6.647 -7.156,11.087 l -43.258,199.105 c -1.42,6.058 -4.662,11.548 -9.29,15.71 l -55.932,50.291 c -5.645,5.079 -12.984,7.856 -20.585,7.803 l -34.967,-0.259 c -3.86,-0.03 -7.394,-1.318 -10.254,-3.453 -0.296,1.479 -0.486,3.001 -0.573,4.547 C -18.887,-8.98 -10.548,-0.08 0,0"
             style="fill:#f69583;fill-opacity:1;fill-rule:nonzero;stroke:none"
             id="path6429" /></g><g
           id="g6431"
           transform="translate(504.499,113.8076)"><path
             d="m 0,0 -76.635,30.476 -48.742,208.488 c -1.511,6.463 -4.968,12.308 -9.903,16.746 l -59.631,53.618 c -6.021,5.413 -13.848,8.381 -21.944,8.32 l -37.285,-0.277 c -10.549,-0.078 -18.882,-8.974 -18.272,-19.505 0.976,-16.858 14.351,-30.352 31.2,-31.478 l 18.513,-1.237 45.711,-49.437 0.426,-32.895 -21.287,-78.781"
             style="fill:none;stroke:#000000;stroke-width:15;stroke-linecap:round;stroke-linejoin:round;stroke-miterlimit:10;stroke-dasharray:none;stroke-opacity:1"
             id="path6433" /></g><g
           id="g6435"
           transform="translate(390.3408,61.0732)"><path
             d="m 0,0 -46.678,39.839 c -7.913,6.754 -14.547,14.876 -19.585,23.978 l -23.866,43.122 c -6.357,11.488 -8.977,24.67 -7.495,37.715 l 5.594,49.214 c 2.207,19.419 20.185,33.062 39.481,29.959 7.072,-1.137 12.206,-7.339 12.002,-14.498 l -1.804,-63.316 c -0.245,-8.617 2.614,-17.034 8.055,-23.72 L 51.698,16.652 Z"
             style="fill:#fdb0a0;fill-opacity:1;fill-rule:nonzero;stroke:none"
             id="path6437" /></g><g
           id="g6439"
           transform="translate(366.8594,170.082)"><path
             d="m 0,0 -10.814,13.284 c -5.442,6.686 -8.3,15.103 -8.055,23.72 l 1.804,63.316 c 0.204,7.159 -4.93,13.362 -12.002,14.498 -19.296,3.103 -37.275,-10.54 -39.482,-29.959 l -5.594,-49.213 c -1.482,-13.045 1.138,-26.228 7.496,-37.715 l 23.866,-43.122 c 5.038,-9.103 11.672,-17.225 19.585,-23.979 l 46.677,-39.839 68.986,-35.37"
             style="fill:none;stroke:#000000;stroke-width:15;stroke-linecap:round;stroke-linejoin:round;stroke-miterlimit:10;stroke-dasharray:none;stroke-opacity:1"
             id="path6441" /></g><g
           id="g6443"
           transform="translate(254.1143,229.0527)"><path
             d="m 0,0 c -0.867,14.974 -12.747,26.959 -27.712,27.959 l -16.442,1.098 -50.051,54.131 -41.848,-12.583 5.457,-18.288 c 1.342,-5.741 4.412,-10.932 8.796,-14.875 l 52.964,-47.622 c 5.348,-4.808 12.299,-7.444 19.49,-7.391 l 33.117,0.247 C -6.86,-17.255 0.542,-9.354 0,0"
             style="fill:#f69583;fill-opacity:1;fill-rule:nonzero;stroke:none"
             id="path6445" /></g><g
           id="g6447"
           transform="translate(254.1143,229.0527)"><path
             d="m 0,0 c -0.867,14.974 -12.747,26.959 -27.712,27.959 l -16.442,1.098 -50.051,54.131 -41.848,-12.583 5.457,-18.288 c 1.342,-5.741 4.412,-10.932 8.796,-14.875 l 52.964,-47.622 c 5.348,-4.808 12.299,-7.444 19.49,-7.391 l 33.117,0.247 C -6.86,-17.255 0.542,-9.354 0,0 Z"
             style="fill:none;stroke:#000000;stroke-width:15;stroke-linecap:round;stroke-linejoin:round;stroke-miterlimit:10;stroke-dasharray:none;stroke-opacity:1"
             id="path6449" /></g><g
           id="g6451"
           transform="translate(247.7769,194.2998)"><path
             d="m 0,0 c -0.867,14.974 -12.747,26.959 -27.711,27.959 l -16.443,1.098 -50.051,54.13 -41.848,-12.582 5.457,-18.288 c 1.342,-5.741 4.412,-10.932 8.796,-14.875 l 52.965,-47.623 c 5.347,-4.807 12.298,-7.444 19.49,-7.39 l 33.116,0.247 C -6.859,-17.255 0.542,-9.354 0,0"
             style="fill:#fdb0a0;fill-opacity:1;fill-rule:nonzero;stroke:none"
             id="path6453" /></g><g
           id="g6455"
           transform="translate(247.7769,194.2998)"><path
             d="m 0,0 c -0.867,14.974 -12.747,26.959 -27.711,27.959 l -16.443,1.098 -50.051,54.13 -41.848,-12.582 5.457,-18.288 c 1.342,-5.741 4.412,-10.932 8.796,-14.875 l 52.965,-47.623 c 5.347,-4.807 12.298,-7.444 19.49,-7.39 l 33.116,0.247 C -6.859,-17.255 0.542,-9.354 0,0 Z"
             style="fill:none;stroke:#000000;stroke-width:15;stroke-linecap:round;stroke-linejoin:round;stroke-miterlimit:10;stroke-dasharray:none;stroke-opacity:1"
             id="path6457" /></g><g
           id="g6459"
           transform="translate(7.5,414.6738)"><path
             d="m 0,0 62.298,-24.773 39.624,-169.486 c 1.229,-5.255 4.039,-10.007 8.051,-13.614 l 48.476,-43.587 c 4.894,-4.401 11.257,-6.813 17.839,-6.765 l 30.31,0.226 c 8.575,0.064 15.349,7.296 14.853,15.856 -0.793,13.706 -11.666,24.674 -25.363,25.589 l -15.049,1.006 -37.161,40.189 -0.345,26.741 17.303,64.043 L 92.802,42.87 36.723,71.623 Z"
             style="fill:#ffcec0;fill-opacity:1;fill-rule:nonzero;stroke:none"
             id="path6461" /></g><g
           id="g6463"
           transform="translate(85.0215,324.7861)"><path
             d="m 0,0 24.401,-104.371 c 1.228,-5.255 4.038,-10.007 8.051,-13.614 l 48.475,-43.587 c 4.895,-4.402 11.257,-6.814 17.839,-6.765 l 30.31,0.226 c 8.575,0.064 15.349,7.296 14.854,15.856 -0.794,13.705 -11.667,24.674 -25.364,25.589 l -15.049,1.006 -37.16,40.188 -0.346,26.742 17.304,64.042"
             style="fill:none;stroke:#000000;stroke-width:15;stroke-linecap:round;stroke-linejoin:round;stroke-miterlimit:10;stroke-dasharray:none;stroke-opacity:1"
             id="path6465" /></g><g
           id="g6467"
           transform="translate(7.5,414.6738)"><path
             d="M 0,0 62.298,-24.773 69.25,-54.506"
             style="fill:none;stroke:#000000;stroke-width:15;stroke-linecap:round;stroke-linejoin:round;stroke-miterlimit:10;stroke-dasharray:none;stroke-opacity:1"
             id="path6469" /></g><g
           id="g6471"
           transform="translate(100.3022,457.5439)"><path
             d="m 0,0 37.946,-32.387 c 6.433,-5.49 11.825,-12.092 15.921,-19.492 l 19.402,-35.056 c 5.168,-9.337 7.297,-20.054 6.092,-30.659 l -4.547,-40.007 c -1.794,-15.787 -16.409,-26.877 -32.096,-24.355 v 10e-4 c -5.748,0.924 -9.922,5.965 -9.756,11.785 l 1.466,51.473 c 0.199,7.004 -2.124,13.846 -6.548,19.281 l -69.907,85.879 z"
             style="fill:#ffcec0;fill-opacity:1;fill-rule:nonzero;stroke:none"
             id="path6473" /></g><g
           id="g6475"
           transform="translate(119.3916,368.9277)"><path
             d="m 0,0 8.791,-10.8 c 4.423,-5.434 6.747,-12.277 6.547,-19.281 l -1.465,-51.473 c -0.166,-5.82 4.007,-10.861 9.756,-11.785 v -0.001 c 15.687,-2.521 30.302,8.569 32.096,24.356 l 4.546,40.006 c 1.206,10.605 -0.924,21.322 -6.092,30.66 L 34.777,36.737 c -4.095,7.4 -9.487,14.002 -15.921,19.492 l -37.945,32.387 -56.08,28.753"
             style="fill:none;stroke:#000000;stroke-width:15;stroke-linecap:round;stroke-linejoin:round;stroke-miterlimit:10;stroke-dasharray:none;stroke-opacity:1"
             id="path6477" /></g><g
           id="g6479"
           transform="translate(434.0967,412.5674)"><path
             d="M 0,0 C -9.928,9.928 -25.757,10.904 -41.332,0.897 -56.906,10.904 -72.736,9.928 -82.67,0 c -12.203,-12.209 -10.881,-33.321 7.72,-51.916 0.685,-0.686 1.383,-1.353 2.093,-2.008 9.358,-8.666 20.881,-14.986 31.525,-17.624 10.638,2.638 22.161,8.958 31.519,17.624 0.71,0.655 1.408,1.322 2.093,2.008 C 10.881,-33.321 12.203,-12.209 0,0"
             style="fill:#fb4a59;fill-opacity:1;fill-rule:nonzero;stroke:none"
             id="path6481" /></g><g
           id="g6483"
           transform="translate(426.374,360.6494)"><path
             d="m 0,0 c -0.684,-0.684 -1.377,-1.35 -2.089,-2.006 -9.361,-8.668 -20.886,-14.99 -31.523,-17.624 -6.367,1.581 -13.059,4.474 -19.409,8.42 10.916,2.883 22.634,9.398 32.19,18.262 0.749,0.683 1.478,1.386 2.2,2.106 C -1.081,26.699 1.803,46.385 -7.125,59.48 -1.46,58.584 3.632,56.006 7.727,51.921 19.926,39.712 18.604,18.595 0,0"
             style="fill:#f82f41;fill-opacity:1;fill-rule:nonzero;stroke:none"
             id="path6485" /></g><g
           id="g6487"
           transform="translate(438.1709,376.9404)"><path
             d="m 0,0 c 6.452,13.644 4.643,26.906 -4.073,35.627 -9.929,9.928 -25.758,10.904 -41.333,0.897 -15.574,10.007 -31.405,9.031 -41.339,-0.897 -12.202,-12.209 -10.88,-33.321 7.721,-51.916 0.685,-0.686 1.382,-1.353 2.092,-2.007 9.359,-8.667 20.882,-14.987 31.526,-17.625 6.816,1.691 13.993,4.899 20.733,9.261"
             style="fill:none;stroke:#000000;stroke-width:15;stroke-linecap:round;stroke-linejoin:round;stroke-miterlimit:10;stroke-dasharray:none;stroke-opacity:1"
             id="path6489" /></g><g
           id="g6491"
           transform="translate(197.5215,170.8789)"><path
             d="M 0,0 C -7.944,7.944 -20.611,8.726 -33.074,0.718 -45.537,8.726 -58.204,7.944 -66.153,0 c -9.764,-9.77 -8.706,-26.663 6.178,-41.543 0.549,-0.549 1.107,-1.082 1.675,-1.606 7.488,-6.936 16.709,-11.993 25.226,-14.104 8.512,2.111 17.733,7.168 25.222,14.104 0.567,0.524 1.125,1.057 1.674,1.606 C 8.707,-26.663 9.765,-9.77 0,0"
             style="fill:#fb4a59;fill-opacity:1;fill-rule:nonzero;stroke:none"
             id="path6493" /></g><g
           id="g6495"
           transform="translate(191.3418,129.334)"><path
             d="m 0,0 c -0.547,-0.547 -1.102,-1.079 -1.671,-1.604 -7.492,-6.937 -16.714,-11.996 -25.225,-14.103 -5.096,1.265 -10.45,3.579 -15.531,6.737 8.734,2.307 18.111,7.521 25.758,14.613 0.599,0.547 1.183,1.109 1.76,1.686 C -0.865,21.365 1.442,37.117 -5.702,47.596 -1.168,46.879 2.906,44.815 6.182,41.547 15.944,31.777 14.887,14.88 0,0"
             style="fill:#f82f41;fill-opacity:1;fill-rule:nonzero;stroke:none"
             id="path6497" /></g><g
           id="g6499"
           transform="translate(197.5215,170.8789)"><path
             d="M 0,0 C -7.944,7.944 -20.611,8.726 -33.074,0.718 -45.537,8.726 -58.204,7.944 -66.153,0 c -9.764,-9.77 -8.706,-26.663 6.178,-41.543 0.549,-0.549 1.107,-1.082 1.675,-1.606 7.488,-6.936 16.709,-11.993 25.226,-14.104 8.512,2.111 17.733,7.168 25.222,14.104 0.567,0.524 1.125,1.057 1.674,1.606 C 8.707,-26.663 9.765,-9.77 0,0 Z"
             style="fill:none;stroke:#000000;stroke-width:15;stroke-linecap:round;stroke-linejoin:round;stroke-miterlimit:10;stroke-dasharray:none;stroke-opacity:1"
             id="path6501" /></g></g></g></g></svg>
