<svg height="511pt" viewBox="-21 1 511 511.999" width="511pt" xmlns="http://www.w3.org/2000/svg"><path d="m188.8125 303.316406v43.101563c11.34375 1.152343 22.8125.816406 34.078125-1.023438v-3.394531c0-17.378906 4.976563-32.539062 13.585937-44.921875-15.039062 6.640625-31.644531 8.710937-47.664062 6.238281zm0 0" fill="#a2f9f9"/><path d="m250.285156 367.21875c3.636719 5.171875 5.503906 11.566406 4.828125 18.285156-.601562 5.96875-3.117187 11.285156-6.890625 15.441406v47.804688h15.300782c1.207031-10.511719 10.203124-18.6875 21.136718-18.6875 8.226563 0 15.347656 4.632812 18.890625 11.398438 3.546875-6.769532 10.667969-11.398438 18.894531-11.398438 10.9375 0 19.933594 8.175781 21.140626 18.6875h61.964843v-107.75c0-28.390625-13.269531-50.542969-33.980469-64.367188-13.433593 6.484376-28.5 10.132813-44.429687 10.132813h-30.082031c-15.324219 0-29.859375-2.640625-42.90625-7.808594-19.148438 14.183594-31.261719 35.914063-31.261719 63.042969v12.683594l2.542969.257812.050781.003906-.742187-1.96875c-1.613282-4.265624.539062-9.03125 4.808593-10.644531l2.105469-.796875c4.269531-1.609375 9.035156.539063 10.648438 4.8125zm0 0" fill="#48e5e1"/><path d="m225.433594 354.941406.050781.003906-.746094-1.96875c-1.609375-4.265624.542969-9.035156 4.8125-10.644531l2.105469-.796875c4.269531-1.613281 9.03125.539063 10.644531 4.808594l7.984375 20.875c.921875 1.3125 1.730469 2.703125 2.414063 4.160156.304687.078125.617187.140625.921875.214844v-29.59375c0-23.398438 9.019531-42.765625 23.78125-56.753906-8.140625-1.285156-15.929688-3.390625-23.25-6.289063-19.148438 14.183594-31.261719 35.914063-31.261719 63.042969v12.683594zm0 0" fill="#41ceca"/><path d="m301.160156 483.410156v-32.257812c0-3.496094.871094-6.789063 2.390625-9.691406-3.542969-6.765626-10.664062-11.398438-18.890625-11.398438-10.933594 0-19.929687 8.175781-21.136718 18.691406h-15.300782v49.347656c0 3.519532-2.90625 6.398438-6.457031 6.398438h44.347656v-.070312c7.59375-.507813 14.101563-4.960938 17.4375-11.304688-1.527343-2.90625-2.390625-6.210938-2.390625-9.714844zm0 0" fill="#a2f9f9"/><path d="m320.996094 504.429688v.070312h86.269531c15.539063 0 28.132813-12.476562 28.132813-27.875 0-15.394531-12.59375-27.875-28.132813-27.875h-63.683594c-1.207031-10.511719-10.203125-18.6875-21.136719-18.6875-11.757812 0-21.289062 9.441406-21.289062 21.089844v32.257812c.003906 11.160156 8.761719 20.277344 19.839844 21.019532zm0 0" fill="#a2f9f9"/><path d="m331.621094 483.410156v-32.257812c0-5.722656 2.3125-10.90625 6.046875-14.707032-3.863281-3.929687-9.246094-6.382812-15.222657-6.382812-11.757812 0-21.285156 9.441406-21.285156 21.089844v32.257812c0 11.160156 8.757813 20.277344 19.835938 21.019532v.070312h30.460937v-.070312c-11.074219-.742188-19.835937-9.859376-19.835937-21.019532zm0 0" fill="#91e0e0"/><path d="m327.140625 286.765625h-30.082031c-4.683594 0-9.292969-.25-13.808594-.738281.085938 13.238281 10.941406 23.949218 24.324219 23.949218 13.175781 0 23.894531-10.375 24.3125-23.324218-1.574219.070312-3.15625.113281-4.746094.113281zm0 0" fill="#ffd5b3"/><path d="m429.601562 130.824219c-.136718 0-.269531.011719-.40625.011719v-14.222657c0-1.097656-.023437-2.191406-.058593-3.28125-2.171875 1.730469-4.636719 3.097657-7.390625 4.074219-6.074219 2.148438-12.007813 3.238281-17.632813 3.238281-30.546875 0-44.367187-32.144531-44.503906-32.46875l-.945313-2.257812-.90625 2.273437c-.164062.417969-16.921874 41.679688-44.898437 41.679688-3.070313 0-6.210937-.5-9.335937-1.484375-13.257813-4.179688-17.640626-14.265625-13.027344-29.976563l-1.816406-.796875c-8.601563 14.355469-21.792969 31.464844-35.792969 31.464844-1.632813 0-3.265625-.234375-4.851563-.699219-5.207031-1.519531-8.9375-4.554687-11.078125-9.023437-3.496093-7.285157-2.648437-18.371094 2.324219-30.410157l-1.828125-.8125c-11.589844 24.304688-23.921875 36.117188-37.699219 36.117188-1.558594 0-3.140625-.160156-4.742187-.476562v61.3125c0 66.027343 45.6875 101.679687 102.046875 101.679687h30.078125c47.324219 0 87.109375-32.09375 98.660156-75.621094 1.246094.191407 2.515625.300781 3.804687.300781 17.476563 0 31.644532-18.050781 31.644532-40.3125 0-22.261718-14.167969-40.308593-31.644532-40.308593zm0 0" fill="#ffd5b3"/><path d="m225.621094 185.085938v-68.472657c0-2.382812.089844-4.742187.25-7.082031-8.050782 10.339844-18.246094 17.621094-30.859375 15.25v60.304688c0 66.03125 45.6875 101.679687 102.046875 101.679687h30.078125c.058593 0 .113281 0 .171875-.003906-56.191406-.152344-101.6875-35.785157-101.6875-101.675781zm0 0" fill="#e5bfa1"/><path d="m296.457031 254.496094c-18.933593 0-34.339843-15.265625-34.339843-34.027344 0-3.535156 2.890624-6.398438 6.457031-6.398438h55.769531c3.566406 0 6.457031 2.863282 6.457031 6.398438 0 18.761719-15.40625 34.027344-34.34375 34.027344zm0 0" fill="#fb8276"/><path d="m292.9375 220.46875c0-3.535156 2.890625-6.398438 6.457031-6.398438h-30.820312c-3.566407 0-6.457031 2.863282-6.457031 6.398438 0 18.761719 15.40625 34.027344 34.34375 34.027344 5.539062 0 10.769531-1.316406 15.410156-3.632813-11.21875-5.605469-18.933594-17.121093-18.933594-30.394531zm0 0" fill="#e1756a"/><path d="m325.152344 7.5h-32.539063c-60.96875 0-110.394531 49.246094-110.394531 109.988281v1.648438c2.035156 1.558593 4.421875 2.921875 7.238281 4.035156 23.390625 9.269531 39.195313-14.265625 48.898438-34.609375-7.226563 17.496094-6.984375 35.992188 9.398437 40.777344 15.804688 4.617187 30.980469-13.183594 41.78125-31.210938-3.699218 12.605469-2.882812 25.988282 13.683594 31.210938 34.867188 10.992187 55.46875-40.777344 55.46875-40.777344s19.019531 45.488281 63.394531 29.785156c5.746094-2.03125 9.992188-5.523437 13.050781-10.042968-4.6875-56.441407-52.121093-100.804688-109.980468-100.804688zm0 0" fill="#f7931e"/><path d="m212.710938 119.136719v-1.648438c0-60.742187 49.421874-109.988281 110.390624-109.988281h-30.488281c-60.96875 0-110.390625 49.246094-110.390625 109.988281v1.648438c2.03125 1.558593 4.417969 2.921875 7.234375 4.035156 9.628907 3.816406 17.972657 2.0625 25.136719-2.730469-.65625-.417968-1.289062-.851562-1.882812-1.304687zm0 0" fill="#de841b"/><path d="m163.628906 266.472656v-7.300781c0-7.773437-6.359375-14.078125-14.207031-14.078125h-41.328125c-7.847656 0-14.207031 6.304688-14.207031 14.078125v7.300781zm0 0" fill="#89c947"/><path d="m124.878906 266.472656v-7.300781c0-7.773437 6.363282-14.078125 14.207032-14.078125h-30.992188c-7.847656 0-14.207031 6.304688-14.207031 14.078125v7.300781zm0 0" fill="#7bb540"/><path d="m188.8125 379.089844c0 3.515625-2.90625 6.398437-6.457031 6.398437h-107.195313c-3.554687 0-6.457031-2.882812-6.457031-6.398437v-106.21875c0-3.519532 2.902344-6.398438 6.457031-6.398438h107.195313c3.550781 0 6.457031 2.882813 6.457031 6.398438zm0 0" fill="#d5e962"/><path d="m99.621094 379.089844v-45.363282l-6.042969-5.808593c-3.066406-2.9375-4.1875-7.441407-2.859375-11.472657 1.328125-4.007812 4.734375-6.871093 8.902344-7.519531v-36.054687c0-3.519532 2.90625-6.398438 6.457031-6.398438h-30.917969c-3.554687 0-6.457031 2.878906-6.457031 6.398438v106.21875c0 3.515625 2.902344 6.394531 6.457031 6.394531h30.917969c-3.550781.003906-6.457031-2.878906-6.457031-6.394531zm0 0" fill="#bfd158"/><path d="m145.703125 355.308594c-.585937 0-1.171875-.136719-1.710937-.417969l-15.234376-7.894531-15.234374 7.894531c-.539063.28125-1.125.417969-1.710938.417969-.765625 0-1.519531-.234375-2.160156-.695313-1.132813-.808593-1.699219-2.183593-1.460938-3.542969l2.90625-16.722656-12.324218-11.839844c-1.003907-.960937-1.363282-2.402343-.933594-3.710937.4375-1.3125 1.585937-2.273437 2.96875-2.472656l17.035156-2.4375 7.617188-15.210938c.617187-1.238281 1.898437-2.019531 3.296874-2.019531 1.398438 0 2.675782.78125 3.296876 2.019531l7.621093 15.210938 17.03125 2.4375c1.382813.199219 2.535157 1.160156 2.964844 2.472656.433594 1.308594.074219 2.75-.929687 3.710937l-12.324219 11.839844 2.910156 16.722656c.238281 1.359376-.332031 2.734376-1.460937 3.542969-.644532.460938-1.402344.695313-2.164063.695313zm0 0" fill="#89c947"/><path d="m128.113281 498.101562c0 3.519532-2.90625 6.398438-6.460937 6.398438h-107.195313c-3.550781 0-6.457031-2.878906-6.457031-6.398438v-106.214843c0-3.519531 2.90625-6.398438 6.457031-6.398438h107.195313c3.554687 0 6.460937 2.878907 6.460937 6.398438zm0 0" fill="#fb8276"/><path d="m38.621094 498.101562v-42.683593l-4.800782-4.695313c-4.601562-4.503906-7.136718-10.503906-7.132812-16.902344 0-6.398437 2.53125-12.398437 7.132812-16.898437 1.460938-1.425781 3.074219-2.644531 4.800782-3.648437v-21.386719c0-3.519531 2.90625-6.398438 6.457031-6.398438h-30.621094c-3.550781 0-6.457031 2.878907-6.457031 6.398438v106.214843c0 3.519532 2.90625 6.398438 6.457031 6.398438h30.621094c-3.550781 0-6.457031-2.878906-6.457031-6.398438zm0 0" fill="#e1756a"/><path d="m68.054688 472.480469c-.804688 0-1.578126-.3125-2.144532-.867188l-26.84375-26.253906c-6.507812-6.363281-6.507812-16.714844 0-23.078125 3.148438-3.078125 7.339844-4.777344 11.792969-4.777344 4.457031 0 8.644531 1.699219 11.796875 4.78125l5.398438 5.277344 5.398437-5.277344c3.148437-3.082031 7.339844-4.78125 11.796875-4.78125 4.453125 0 8.640625 1.699219 11.792969 4.777344 6.507812 6.363281 6.507812 16.714844 0 23.078125l-26.84375 26.253906c-.570313.554688-1.339844.867188-2.144531.867188zm0 0" fill="#ef5050"/><path d="m224.445312 409.996094-24.855468-2.5c-4.207032-.421875-7.269532-4.175782-6.847656-8.382813l.207031-2.078125c.421875-4.207031 4.175781-7.273437 8.382812-6.851562l17.953125 1.808594.136719-1.335938-21.914063-2.207031c-2.1875-.21875-4.058593-1.34375-5.300781-2.960938h-57.640625c-3.550781 0-6.457031 2.878907-6.457031 6.398438v106.214843c0 3.519532 2.90625 6.398438 6.457031 6.398438h107.199219c3.550781 0 6.457031-2.878906 6.457031-6.398438v-97.15625c-5.761718 6.351563-14.460937 9.988282-23.777344 9.050782zm0 0" fill="#ffc502"/><path d="m158.621094 498.101562v-34.628906l-5.335938-9.160156c-3.148437-5.398438-3.148437-13.234375 0-18.636719l5.335938-9.160156v-34.628906c0-3.519531 2.90625-6.398438 6.457031-6.398438h-30.507813c-3.554687 0-6.457031 2.878907-6.457031 6.398438v106.214843c0 3.519532 2.902344 6.398438 6.457031 6.398438h30.507813c-3.550781 0-6.457031-2.878906-6.457031-6.398438zm0 0" fill="#e5b102"/><path d="m178.808594 472.136719c-3.550782 0-7.910156-2.492188-9.6875-5.539063l-9.355469-16.0625c-1.777344-3.046875-1.777344-8.035156 0-11.082031l9.355469-16.0625c1.777344-3.046875 6.136718-5.539063 9.6875-5.539063h18.71875c3.550781 0 7.910156 2.492188 9.683594 5.539063l9.359374 16.0625c1.777344 3.046875 1.777344 8.035156 0 11.082031l-9.359374 16.0625c-1.773438 3.046875-6.132813 5.539063-9.683594 5.539063zm0 0" fill="#fcdb67"/><path d="m371.09375 320.144531c-10.0625-4.859375-22.222656-.703125-27.164062 9.292969-16.890626 34.171875-55.492188 50.953125-91.230469 41.945312 2.003906 4.277344 2.917969 9.109376 2.414062 14.121094-.609375 6.0625-3.203125 11.453125-7.078125 15.636719.0625-.066406.128906-.128906.1875-.195313v10.726563c52.351563 10.535156 107.523438-14.808594 132.144532-64.625 4.9375-9.996094.789062-22.039063-9.273438-26.902344zm0 0" fill="#a2f9f9"/><path d="m192.742188 399.113281.207031-2.078125c.425781-4.207031 4.179687-7.273437 8.386719-6.851562l17.949218 1.808594.136719-1.335938-21.910156-2.207031c-4.207031-.421875-7.273438-4.175781-6.851563-8.382813l.210938-2.074218c.421875-4.207032 4.175781-7.273438 8.382812-6.851563l21.910156 2.203125.132813-1.335938-17.953125-1.804687c-4.207031-.421875-7.273438-4.175781-6.851562-8.382813l.210937-2.078124c.421875-4.207032 4.175781-7.273438 8.382813-6.851563l20.347656 2.046875.046875.003906-.742188-1.964844c-1.613281-4.269531.542969-9.035156 4.808594-10.648437l2.105469-.796875c4.269531-1.609375 9.035156.542969 10.648437 4.8125l7.984375 20.871094c3.632813 5.175781 5.5 11.570312 4.828125 18.289062-1.519531 15.078125-15.25 26.042969-30.671875 24.488282l-24.851562-2.5c-4.203125-.417969-7.269532-4.171876-6.847656-8.378907zm0 0" fill="#ffd5b3"/><path d="m431.324219 218.898438c20.789062-1.101563 37.421875-22.105469 37.421875-47.761719 0-23.40625-13.84375-42.9375-32.050782-47.027344v-6.105469c1.710938-1.640625 3.269532-3.460937 4.648438-5.496094.957031-1.414062 1.402344-3.117187 1.261719-4.824218-2.433594-29.28125-15.726563-56.4375-37.441407-76.460938-21.832031-20.132812-50.246093-31.222656-80.011718-31.222656h-32.539063c-65.007812 0-117.894531 52.707031-117.894531 117.488281v1.648438c0 2.328125 1.085938 4.527343 2.9375 5.949219 2.640625 2.027343 5.683594 3.730468 9.035156 5.058593.273438.109375.546875.191407.820313.292969v54.648438c0 33.421874 11.164062 61.464843 32.28125 81.097656 6.152343 5.71875 13.101562 10.621094 20.679687 14.660156-3.199218 3.15625-6.128906 6.542969-8.769531 10.140625-9.289063 3.84375-19.351563 5.867187-29.742187 5.867187-1.894532 0-3.777344-.082031-5.648438-.222656v-23.757812c0-7.664063-6.261719-13.898438-13.957031-13.898438h-11.234375c-.105469-11.804687-9.796875-21.378906-21.699219-21.378906h-41.328125c-11.902344 0-21.597656 9.574219-21.703125 21.378906h-11.230469c-7.699218 0-13.957031 6.234375-13.957031 13.898438v105.117187h-46.746094c-7.695312 0-13.957031 6.234375-13.957031 13.898438v106.214843c0 7.664063 6.261719 13.898438 13.957031 13.898438h271.65625c.570313 0 1.128907-.066406 1.667969-.191406 6.015625-.648438 11.460938-3.144532 15.769531-6.886719 4.304688 3.734375 9.738281 6.230469 15.746094 6.882813.542969.128906 1.113281.191406 1.695313.191406h86.273437c19.648437 0 35.632813-15.867188 35.632813-35.375 0-17.550782-12.945313-32.148438-29.851563-34.898438v-14.726562c0-4.140625-3.355469-7.5-7.5-7.5s-7.5 3.359375-7.5 7.5v14.253906h-48.597656c-4.078125-11.011719-14.714844-18.6875-27.007813-18.6875-7.226562 0-13.832031 2.664062-18.894531 7.046875-5.058594-4.382813-11.664063-7.046875-18.886719-7.046875-12.292968 0-22.929687 7.675781-27.007812 18.6875h-1.933594v-20.761719c5.390625.691407 10.789062 1.042969 16.171875 1.042969 47.324219 0 92.972656-26.203125 115.195313-71.167969 3.277343-6.632812 3.765624-14.128906 1.367187-21.105469-2.402344-7-7.410156-12.636718-14.101563-15.871093-13.734374-6.632813-30.398437-.925781-37.148437 12.726562-6.429687 13.007813-16.546875 23.65625-29.253906 30.792969-3.613281 2.027344-4.898438 6.601562-2.871094 10.210938 2.03125 3.613281 6.601563 4.898437 10.214844 2.871093 15.355469-8.625 27.582031-21.496093 35.359375-37.230469 3.113281-6.304687 10.820312-8.929687 17.171875-5.863281 3.0625 1.476563 5.347656 4.046875 6.441406 7.234375 1.085937 3.164063.863281 6.570313-.628906 9.589844-22.148438 44.816406-70.664063 68.460938-117.917969 61.59375v-1.617188c3.738281-4.929687 6.191406-10.886718 6.851562-17.441406.1875-1.839844.214844-3.679687.101563-5.503906 5.121094.5625 10.292969.6875 15.460937.335938 4.132813-.285157 7.25-3.867188 6.96875-8-.285156-4.132813-3.863281-7.234376-8-6.96875-6.535156.453124-13.082031-.023438-19.457031-1.335938-.21875-.355469-.441406-.710938-.671875-1.0625l-7.660156-20.027344c-2.304688-6.097656-8.226562-10.191406-14.742188-10.191406-1.277343 0-2.539062.167969-3.777343.472656 1.925781-19.019531 10.722656-35.089844 24.527343-46.617187 6.734376 2.378906 13.820313 4.160156 21.171876 5.320312 3.144531 14.164063 15.882812 24.800781 31.078124 24.800781 14.839844 0 27.335938-10.140624 30.84375-23.808593 11.316407-1.164063 22.195313-4.058594 32.332032-8.449219 17.152344 12.96875 27.296875 32.460938 27.296875 55.78125v51c0 4.140625 3.359375 7.5 7.5 7.5 4.144531 0 7.5-3.359375 7.5-7.5v-51c0-25.417969-9.625-47.273438-27.859375-63.347656 21.382812-13.316406 38.023437-33.863282 46.140625-58.753906zm-122.664063 232.253906c0-7.492188 6.183594-13.589844 13.785156-13.589844 7.015626 0 12.898438 5.179688 13.6875 12.042969.4375 3.789062 3.640626 6.644531 7.449219 6.644531h63.683594c11.378906 0 20.632813 9.140625 20.632813 20.375s-9.253907 20.375-20.632813 20.375h-85.238281c-.175782-.023438-.351563-.042969-.53125-.054688-7.199219-.480468-12.835938-6.429687-12.835938-13.535156zm-52.9375 5.097656h7.800782c3.8125 0 7.015624-2.855469 7.449218-6.644531.789063-6.863281 6.675782-12.042969 13.691406-12.042969 4.160157 0 7.890626 1.835938 10.421876 4.722656-.921876 2.792969-1.425782 5.773438-1.425782 8.867188v32.257812c0 3.078125.503906 6.050782 1.425782 8.839844-2.332032 2.660156-5.679688 4.441406-9.476563 4.695312-.179687.011719-.355469.03125-.53125.054688h-29.355469zm-59.410156-144.582031c1.875.113281 3.757812.183593 5.648438.183593 6.597656 0 13.074218-.707031 19.371093-2.039062-3.503906 8.949219-5.542969 18.695312-5.882812 29.046875-4.445313.488281-8.945313.738281-13.488281.738281-1.890626 0-3.773438-.054687-5.648438-.144531zm1.214844 113.683593c.875 0 2.761718 1.066407 3.203125 1.8125l9.359375 16.0625c.417968.726563.417968 2.804688 0 3.535157l-9.359375 16.058593c-.441407.746094-2.328125 1.816407-3.203125 1.816407h-18.71875c-.878906 0-2.765625-1.070313-3.207032-1.816407l-9.359374-16.0625c-.417969-.726562-.417969-2.804687 0-3.53125l9.359374-16.0625c.441407-.746093 2.328126-1.816406 3.207032-1.816406h18.71875zm-89.433594-172.757812h41.328125c3.628906 0 6.589844 2.84375 6.695313 6.378906h-54.71875c.105468-3.535156 3.0625-6.378906 6.695312-6.378906zm-31.890625 21.378906h105.109375v104.015625h-105.109375zm44.410156 223.027344h-105.113281v-104.011719h105.113281zm120.109375 0h-105.109375v-104.011719h50.59375c-.351562 1.050781-.605469 2.148438-.71875 3.292969l-.210937 2.082031c-.457032 4.582031 1.1875 8.894531 4.148437 11.984375h-10.617187c-6.238282 0-13.039063 3.898438-16.167969 9.265625l-9.355469 16.0625c-3.148437 5.398438-3.148437 13.238281 0 18.636719l9.355469 16.0625c3.132813 5.367188 9.929687 9.265625 16.167969 9.265625h18.71875c6.238281 0 13.039062-3.898437 16.164062-9.269531l9.359375-16.058594c3.144531-5.398438 3.144531-13.234375 0-18.636719l-9.355469-16.0625c-.722656-1.230469-1.640624-2.382812-2.695312-3.433593l12.691406 1.277343c1.214844.121094 2.445313.183594 3.660156.183594 4.726563 0 9.242188-.90625 13.371094-2.554687zm-9.25-137.546875c1.546875-2.050781 1.933594-4.753906 1.027344-7.160156l-.746094-1.964844c-.074218-.195313-.066406-.390625.019532-.582031.085937-.1875.230468-.324219.429687-.398438l2.097656-.792968c.09375-.035157.183594-.054688.273438-.054688.050781 0 .527343.015625.722656.523438l7.984375 20.871093c.21875.582031.511719 1.128907.867188 1.636719 2.726562 3.875 3.96875 8.574219 3.503906 13.222656-1.027344 10.199219-9.753906 17.890625-20.300782 17.890625-.714843 0-1.4375-.039062-2.15625-.109375l-24.851562-2.5c-.085938-.007812-.148438-.085937-.140625-.167968l.210937-2.078126c.011719-.113281.117188-.140624.167969-.140624h.003907l17.949218 1.804687c4.113282.425781 7.796875-2.585937 8.214844-6.707031l.132812-1.332032c.203126-1.980468-.394531-3.960937-1.652343-5.5-1.257813-1.542968-3.078125-2.519531-5.058594-2.71875l-21.910156-2.207031c-.070313-.007812-.144531-.097656-.136719-.167969l.207031-2.078124c.011719-.113282.125-.128907.171875-.140626l21.910156 2.207032c1.980469.195312 3.957032-.398438 5.5-1.65625 1.539063-1.257813 2.515626-3.078125 2.714844-5.054688l.132813-1.335937c.414062-4.121094-2.589844-7.800781-6.710938-8.214844l-17.953125-1.804687c-.074218-.007813-.148437-.097657-.140625-.171876l.210938-2.078124c.011719-.113282.125-.125.167969-.136719l20.347656 2.046875c.050781.003906.144531.011718.191406.019531 2.566406.210937 5.054688-.914063 6.597656-2.96875zm76.101563-56.976563c-6.203125 0-11.621094-3.332031-14.535157-8.273437 1.335938.039063 2.671876.0625 4.019532.0625h25.011718c-2.921874 4.910156-8.320312 8.210937-14.496093 8.210937zm19.566406-23.210937h-30.082031c-57.433594 0-94.546875-36.964844-94.546875-94.179687v-52.484376c7.550781-.664062 14.828125-4.019531 21.539062-10.050781 1.242188-1.113281 2.460938-2.3125 3.667969-3.605469.425781 1.425782.953125 2.792969 1.574219 4.089844 3.1875 6.640625 8.84375 11.3125 16.359375 13.503906 12.207031 3.570313 24.539062-1.671874 36.792968-15.597656 3.066407 7.292969 9.324219 12.652344 18.519532 15.554688 4.035156 1.269531 8.035156 1.902344 11.988281 1.898437 13.125 0 25.691406-6.957031 36.871094-20.558593 3.792969-4.617188 6.933593-9.410157 9.390625-13.632813 3.167968 4.367187 7.390625 9.222656 12.746094 13.472656 3.246093 2.570313 7.964843 2.027344 10.539062-1.21875 2.574219-3.246093 2.027344-7.960937-1.21875-10.535156-10.535156-8.355469-15.632812-20.152344-15.671875-20.25-1.167969-2.792969-3.898437-4.609375-6.921875-4.609375-.019531 0-.042969 0-.0625 0-3.046875.027344-5.777344 1.898438-6.90625 4.726562-.179688.453126-18.351562 45.195313-46.242188 36.398438-6.875-2.167969-13.285156-6.46875-8.742187-21.945312 1.0625-3.621094-.730469-7.46875-4.191406-8.980469-3.453125-1.515625-7.5-.222657-9.441407 3.015625-12.175781 20.320312-24.28125 30.488281-33.246093 27.867187-3.453125-1.011719-5.6875-2.789062-7.039063-5.597656-2.660156-5.542969-1.734375-14.933594 2.472656-25.117187 1.550782-3.757813-.171874-8.066407-3.886718-9.71875-3.707032-1.648438-8.066406-.046876-9.816406 3.625-18.636719 39.078124-34.238282 32.894531-39.367188 30.863281-.867188-.34375-1.6875-.722657-2.46875-1.132813 1.296875-55.394531 46.941406-100.066406 102.863281-100.066406h32.539063c52.148437 0 96.507812 39.785156 102.230468 91.09375-2.085937 2.367188-4.65625 4.070312-7.804687 5.183594-3.105469 1.101562-6.171875 1.894531-9.125 2.359375-4.089844.644531-6.882813 4.484375-6.238281 8.578125.648437 4.089844 4.484375 6.886718 8.578125 6.238281 2.921875-.464844 5.902343-1.160156 8.902343-2.082031v4.464844c0 2 .796876 3.917968 2.214844 5.324218 1.40625 1.394532 3.304688 2.175782 5.285156 2.175782.152344.003906.300782-.003907.484376-.011719 13.277343.058593 24.066406 14.753906 24.066406 32.8125 0 18.089843-10.832032 32.808593-24.144532 32.808593-.855468 0-1.730468-.066406-2.675781-.210937-3.789062-.578125-7.394531 1.789063-8.378906 5.488281-10.945313 41.242188-48.53125 70.042969-91.40625 70.042969zm0 0"/><path d="m350.175781 156.597656c-4.144531 0-7.5 3.355469-7.5 7.5v12.300782c0 4.144531 3.355469 7.5 7.5 7.5 4.140625 0 7.5-3.355469 7.5-7.5v-12.300782c0-4.144531-3.359375-7.5-7.5-7.5zm0 0"/><path d="m239.359375 156.597656c-4.144531 0-7.5 3.355469-7.5 7.5v12.300782c0 4.144531 3.355469 7.5 7.5 7.5 4.140625 0 7.5-3.355469 7.5-7.5v-12.300782c0-4.144531-3.359375-7.5-7.5-7.5zm0 0"/><path d="m294.761719 194.695312h4.863281c4.144531 0 7.5-3.359374 7.5-7.5 0-4.144531-3.355469-7.5-7.5-7.5h-2.222656v-6.957031c0-4.144531-3.359375-7.5-7.5-7.5-4.144532 0-7.5 3.355469-7.5 7.5v9.457031c0 6.890626 5.542968 12.5 12.359375 12.5zm0 0"/><path d="m324.34375 206.566406h-55.769531c-7.695313 0-13.957031 6.234375-13.957031 13.898438 0 22.898437 18.769531 41.527344 41.839843 41.527344 23.074219 0 41.84375-18.628907 41.84375-41.527344 0-7.660156-6.261719-13.898438-13.957031-13.898438zm-27.886719 40.429688c-14.425781 0-26.234375-11.308594-26.820312-25.429688h53.644531c-.589844 14.121094-12.394531 25.429688-26.824219 25.429688zm0 0"/><path d="m157.765625 308.898438-13.144531-1.878907-5.859375-11.699219c-1.902344-3.800781-5.734375-6.164062-10.003907-6.164062-4.269531 0-8.101562 2.363281-10.003906 6.160156l-5.859375 11.703125-13.160156 1.882813c-4.222656.609375-7.675781 3.496094-9.015625 7.542968-1.332031 4.027344-.207031 8.535157 2.855469 11.472657l9.449219 9.074219-2.222657 12.789062c-.730469 4.175781 1.035157 8.46875 4.460938 10.910156 1.914062 1.382813 4.179687 2.113282 6.546875 2.113282 1.804687 0 3.601562-.4375 5.164062-1.257813l11.785156-6.105469 11.746094 6.085938c1.59375.835937 3.390625 1.277344 5.199219 1.277344 2.371094 0 4.636719-.730469 6.519531-2.089844 3.457032-2.46875 5.222656-6.761719 4.492188-10.933594l-2.222656-12.789062 9.441406-9.070313c3.066406-2.941406 4.191406-7.449219 2.859375-11.476563-1.328125-4.042968-4.785157-6.929687-9.027344-7.546874zm-16.542969 20.042968c-1.800781 1.726563-2.621094 4.234375-2.191406 6.691406l1.574219 9.054688-8.398438-4.351562c-1.078125-.5625-2.265625-.839844-3.449219-.839844-1.183593 0-2.367187.277344-3.449218.839844l-8.394532 4.351562 1.574219-9.054688c.425781-2.457031-.394531-4.964843-2.195312-6.695312l-6.574219-6.3125 9.1875-1.3125c2.433594-.351562 4.539062-1.871094 5.640625-4.066406l4.210937-8.40625 4.210938 8.40625c1.101562 2.199218 3.210938 3.71875 5.644531 4.066406l9.183594 1.3125zm0 0"/><path d="m60.664062 476.972656c1.980469 1.9375 4.605469 3.007813 7.390626 3.007813 2.78125 0 5.40625-1.066407 7.390624-3.003907l26.84375-26.257812c4.601563-4.5 7.136719-10.5 7.136719-16.898438 0-6.398437-2.535156-12.398437-7.136719-16.898437-4.5625-4.460937-10.613281-6.914063-17.039062-6.914063s-12.480469 2.457032-17.039062 6.914063l-.15625.152344-.152344-.152344c-4.558594-4.457031-10.613282-6.914063-17.039063-6.914063-6.429687 0-12.480469 2.453126-17.039062 6.914063-4.601563 4.5-7.136719 10.5-7.136719 16.898437 0 6.398438 2.535156 12.398438 7.136719 16.902344zm-16.355468-49.328125c1.738281-1.703125 4.066406-2.640625 6.550781-2.640625s4.8125.9375 6.554687 2.640625l5.394532 5.28125c2.914062 2.847657 7.574218 2.847657 10.488281 0l5.398437-5.277343c1.742188-1.703126 4.066407-2.644532 6.554688-2.644532 2.484375 0 4.808594.9375 6.550781 2.640625 1.691407 1.652344 2.621094 3.847657 2.621094 6.175781.003906 2.328126-.929687 4.523438-2.621094 6.175782l-23.746093 23.222656-23.746094-23.222656c-1.691406-1.652344-2.625-3.847656-2.621094-6.175782 0-2.328124.929688-4.523437 2.621094-6.175781zm0 0"/><path d="m428.964844 194.632812c1.203125 0 2.425781-.289062 3.558594-.902343 16.019531-8.65625 13.398437-26.789063 9.777343-35.167969-1.644531-3.800781-6.058593-5.554688-9.863281-3.90625-3.800781 1.644531-5.550781 6.058594-3.90625 9.859375.207031.472656 4.929688 11.660156-3.140625 16.019531-3.644531 1.96875-5 6.519532-3.03125 10.164063 1.355469 2.507812 3.9375 3.933593 6.605469 3.933593zm0 0"/></svg>