<?xml version="1.0" encoding="UTF-8"?>
<svg xmlns="http://www.w3.org/2000/svg" xmlns:xlink="http://www.w3.org/1999/xlink" version="1.1" id="Capa_1" x="0px" y="0px" viewBox="0 0 512 512" style="enable-background:new 0 0 512 512;" xml:space="preserve" width="512" height="512">
<g>
	<g>
		<g>
			<path style="fill:#D9B1EE;" d="M504.512,16.467V157.39c-13.093-3.384-26.828-5.175-40.972-5.176&#10;&#9;&#9;&#9;&#9;c-90.008,0-162.709,72.023-163.521,162.028c-0.272,30.137,7.6,58.411,21.569,82.749H172.559&#10;&#9;&#9;&#9;&#9;c-7.216-25.866-11.065-53.139-11.059-81.309C161.539,144.158,303,7.834,474.417,13.906&#10;&#9;&#9;&#9;&#9;C484.584,14.266,494.621,15.129,504.512,16.467z"/>
			<path style="fill:#D9B1EE;" d="M504.512,16.467v34.99c0,0-26.828,100.757-40.972,100.757&#10;&#9;&#9;&#9;&#9;c-90.008,0-162.709,72.023-163.521,162.028c-0.272,30.137,7.6,58.411,21.569,82.749H172.559&#10;&#9;&#9;&#9;&#9;c-7.216-25.866-11.065-53.139-11.059-81.309C161.539,144.158,303,7.834,474.417,13.906&#10;&#9;&#9;&#9;&#9;C484.584,14.266,494.621,15.129,504.512,16.467z"/>
			<path style="fill:#8795DE;" d="M504.5,51.457v35.105c0,0-26.828,65.652-40.972,65.652c-90.008,0-162.709,72.023-163.521,162.028&#10;&#9;&#9;&#9;&#9;c-0.272,30.137,7.6,58.411,21.569,82.749h-112.9c-8.161-25.612-12.563-52.917-12.563-81.238&#10;&#9;&#9;&#9;&#9;c0-147.691,119.734-267.414,267.414-267.414C477.461,48.339,491.141,49.4,504.5,51.457z"/>
			<path style="fill:#97DA7B;" d="M504.5,86.558v35.278c0,0-26.828,30.379-40.972,30.379c-90.008,0-162.709,72.023-163.521,162.028&#10;&#9;&#9;&#9;&#9;c-0.272,30.137,7.6,58.411,21.569,82.749h-76.262c-9.509-25.554-14.671-53.23-14.563-82.127&#10;&#9;&#9;&#9;&#9;c0.48-128.495,104.067-231.785,232.563-231.9C477.366,82.952,491.129,84.18,504.5,86.558z"/>
			<path style="fill:#FEF48B;" d="M504.5,121.836v35.554c-13.093-3.384-26.828-5.175-40.972-5.176&#10;&#9;&#9;&#9;&#9;c-90.008,0-162.709,72.023-163.521,162.028c-0.272,30.137,7.6,58.411,21.569,82.749h-38.839&#10;&#9;&#9;&#9;&#9;c-10.846-24.088-17.011-50.747-17.348-78.808c-1.314-109.386,85.399-198.757,194.778-200.566&#10;&#9;&#9;&#9;&#9;C475.386,117.365,490.233,118.827,504.5,121.836z"/>
			<path style="fill:#FEF48B;" d="M504.5,121.836v35.554c-13.093-3.384-26.828-5.175-40.972-5.176&#10;&#9;&#9;&#9;&#9;c-90.008,0-162.709,72.023-163.521,162.028c-0.272,30.137,7.6,58.411,21.569,82.749h-38.839&#10;&#9;&#9;&#9;&#9;c-10.846-24.088-17.011-50.747-17.348-78.808c-1.314-109.386,85.399-198.757,194.778-200.566&#10;&#9;&#9;&#9;&#9;C475.386,117.365,490.233,118.827,504.5,121.836z"/>
			<path style="fill:#FEF056;" d="M300.01,314.243c-0.28,30.14,7.6,58.41,21.57,82.75h-38.84c-10.85-24.09-17.01-50.75-17.35-78.81&#10;&#9;&#9;&#9;&#9;c-0.12-10.26,0.53-20.35,1.91-30.2c13.12-77.36,80.14-135.77,161.19-135.77c5.9,0,11.74,0.31,17.48,0.93&#10;&#9;&#9;&#9;&#9;C364.25,161.783,300.77,230.163,300.01,314.243z"/>
		</g>
		<g>
			<path style="fill:#EEF5F6;" d="M347.791,386.271c-1.038,0-2.068,0.033-3.092,0.089c0.649-2.909,1.003-5.93,1.003-9.035&#10;&#9;&#9;&#9;&#9;c0-22.824-18.502-41.326-41.326-41.326c-11.445,0-21.802,4.654-29.285,12.171c-17.26-24.669-45.866-40.817-78.259-40.817&#10;&#9;&#9;&#9;&#9;c-40.47,0-75.034,25.194-88.927,60.744c-9.442-4.862-20.143-7.624-31.494-7.624c-38.058,0-68.91,30.852-68.91,68.91&#10;&#9;&#9;&#9;&#9;s30.852,68.91,68.91,68.91h271.381c30.934,0,56.01-25.077,56.01-56.011C403.802,411.348,378.725,386.271,347.791,386.271z"/>
		</g>
		<path style="fill:#DEECF1;" d="M347.791,386.271c-1.038,0-2.068,0.033-3.092,0.089c0.649-2.909,1.003-5.93,1.003-9.035&#10;&#9;&#9;&#9;c0-22.824-18.502-41.326-41.326-41.326c-6.263,0-12.196,1.402-17.514,3.895c25.351,7.494,27.036,30.835,26.455,41.259&#10;&#9;&#9;&#9;c-0.158,2.827,1.828,5.335,4.615,5.836c13.869,2.492,50.838,13.093,50.838,55.292c0,30.934-25.077,56.01-56.011,56.01h34.198&#10;&#9;&#9;&#9;c30.783,0,56.441-24.487,56.841-55.267C404.202,411.751,378.972,386.271,347.791,386.271z"/>
	</g>
	<g>
		<g>
			<path style="fill:none;stroke:#000000;stroke-width:15;stroke-linecap:round;stroke-linejoin:round;stroke-miterlimit:10;" d="&#10;&#9;&#9;&#9;&#9;M310.043,498.292h37.748c30.934,0,56.01-25.077,56.01-56.011c0-30.934-25.077-56.011-56.01-56.011&#10;&#9;&#9;&#9;&#9;c-1.038,0-2.068,0.033-3.092,0.089c0.649-2.909,1.003-5.93,1.003-9.035c0-22.824-18.502-41.326-41.326-41.326&#10;&#9;&#9;&#9;&#9;c-11.445,0-21.802,4.654-29.285,12.171c-17.26-24.669-45.866-40.817-78.259-40.817c-40.47,0-75.034,25.194-88.927,60.744&#10;&#9;&#9;&#9;&#9;c-9.442-4.862-20.143-7.624-31.494-7.624c-38.058,0-68.91,30.852-68.91,68.91s30.852,68.91,68.91,68.91h198.55"/>
			<path style="fill:none;stroke:#000000;stroke-width:15;stroke-linecap:round;stroke-linejoin:round;stroke-miterlimit:10;" d="&#10;&#9;&#9;&#9;&#9;M7.5,429.382c0-38.058,30.852-68.91,68.91-68.91c29.519,0,54.703,18.561,64.518,44.649"/>
			<path style="fill:none;stroke:#000000;stroke-width:15;stroke-linecap:round;stroke-linejoin:round;stroke-miterlimit:10;" d="&#10;&#9;&#9;&#9;&#9;M263.05,377.325c0-22.824,18.502-41.326,41.326-41.326"/>
		</g>
		<g>
			<path style="fill:none;stroke:#000000;stroke-width:15;stroke-linecap:round;stroke-linejoin:round;stroke-miterlimit:10;" d="&#10;&#9;&#9;&#9;&#9;M395.296,21.391C262.033,52.001,162.248,170.591,161.5,314.113"/>
			<path style="fill:none;stroke:#000000;stroke-width:15;stroke-linecap:round;stroke-linejoin:round;stroke-miterlimit:10;" d="&#10;&#9;&#9;&#9;&#9;M504.5,16.463c-9.89-1.33-19.93-2.2-30.1-2.56c-15.007-0.531-29.785,0.029-44.258,1.609"/>
			<path style="fill:none;stroke:#000000;stroke-width:15;stroke-linecap:round;stroke-linejoin:round;stroke-miterlimit:10;" d="&#10;&#9;&#9;&#9;&#9;M301.26,336.123c-0.89-7.16-1.32-14.46-1.25-21.88c0.81-90.01,73.51-162.03,163.52-162.03c14.14,0,27.88,1.79,40.97,5.18"/>
			<path style="fill:none;stroke:#000000;stroke-width:15;stroke-linecap:round;stroke-linejoin:round;stroke-miterlimit:10;" d="&#10;&#9;&#9;&#9;&#9;M504.5,51.453c-13.36-2.05-27.04-3.11-40.97-3.11c-144.87,0-262.86,115.21-267.28,259.02"/>
			<path style="fill:none;stroke:#000000;stroke-width:15;stroke-linecap:round;stroke-linejoin:round;stroke-miterlimit:10;" d="&#10;&#9;&#9;&#9;&#9;M301.26,336.123c-0.89-7.16-1.32-14.46-1.25-21.88c0.81-90.01,73.51-162.03,163.52-162.03c14.14,0,27.88,1.79,40.97,5.18"/>
			<path style="fill:none;stroke:#000000;stroke-width:15;stroke-linecap:round;stroke-linejoin:round;stroke-miterlimit:10;" d="&#10;&#9;&#9;&#9;&#9;M504.5,86.563c-13.37-2.38-27.13-3.61-41.19-3.6c-128.06,0.12-231.39,102.72-232.55,230.61"/>
			<path style="fill:none;stroke:#000000;stroke-width:15;stroke-linecap:round;stroke-linejoin:round;stroke-miterlimit:10;" d="&#10;&#9;&#9;&#9;&#9;M301.26,336.123c-0.89-7.16-1.32-14.46-1.25-21.88c0.81-90.01,73.51-162.03,163.52-162.03c14.14,0,27.88,1.79,40.97,5.18"/>
			<path style="fill:none;stroke:#000000;stroke-width:15;stroke-linecap:round;stroke-linejoin:round;stroke-miterlimit:10;" d="&#10;&#9;&#9;&#9;&#9;M272.119,264.136c-4.601,17.204-6.953,35.333-6.729,54.047c0.08,6.58,0.48,13.08,1.19,19.49"/>
			<path style="fill:none;stroke:#000000;stroke-width:15;stroke-linecap:round;stroke-linejoin:round;stroke-miterlimit:10;" d="&#10;&#9;&#9;&#9;&#9;M504.5,121.833c-14.27-3.01-29.11-4.47-44.33-4.22c-78.202,1.294-144.816,47.346-175.959,113.472"/>
			<path style="fill:none;stroke:#000000;stroke-width:15;stroke-linecap:round;stroke-linejoin:round;stroke-miterlimit:10;" d="&#10;&#9;&#9;&#9;&#9;M301.26,336.123c-0.89-7.16-1.32-14.46-1.25-21.88c0.81-90.01,73.51-162.03,163.52-162.03c14.14,0,27.88,1.79,40.97,5.18"/>
		</g>
		<g>
			
				<line style="fill:none;stroke:#000000;stroke-width:15;stroke-linecap:round;stroke-linejoin:round;stroke-miterlimit:10;" x1="45.498" y1="203.034" x2="45.498" y2="229.286"/>
			
				<line style="fill:none;stroke:#000000;stroke-width:15;stroke-linecap:round;stroke-linejoin:round;stroke-miterlimit:10;" x1="58.624" y1="216.16" x2="32.372" y2="216.16"/>
		</g>
		<g>
			
				<line style="fill:none;stroke:#000000;stroke-width:15;stroke-linecap:round;stroke-linejoin:round;stroke-miterlimit:10;" x1="108.255" y1="264.698" x2="108.255" y2="290.95"/>
			
				<line style="fill:none;stroke:#000000;stroke-width:15;stroke-linecap:round;stroke-linejoin:round;stroke-miterlimit:10;" x1="121.381" y1="277.824" x2="95.129" y2="277.824"/>
		</g>
		
			<line style="fill:none;stroke:#000000;stroke-width:15;stroke-linecap:round;stroke-linejoin:round;stroke-miterlimit:10;" x1="70.464" y1="154.38" x2="70.464" y2="154.38"/>
	</g>
</g>















</svg>
