<?xml version="1.0" encoding="UTF-8"?>
<svg xmlns="http://www.w3.org/2000/svg" xmlns:xlink="http://www.w3.org/1999/xlink" version="1.1" id="Capa_1" x="0px" y="0px" viewBox="0 0 511.997 511.997" style="enable-background:new 0 0 511.997 511.997;" xml:space="preserve" width="512" height="512">
<g>
	<g>
		<path style="fill:#FFE8C2;" d="M234.962,501.497V366.239h37.928l0.324,130.997c0,1.657-1.343,3-3,3l-14.215,4.261h-18.036&#10;&#9;&#9;&#9;C236.305,504.497,234.962,503.154,234.962,501.497z"/>
		<path style="fill:#FFD185;" d="M277.039,366.237v135.26c0,1.66-1.35,3-3,3h-18.04v-138.26H277.039z"/>
		<g>
			<path style="fill:#FFDC64;" d="M450.369,14.657v116.462l-7.314,49.129c-33.89,21.54-66.996,37.829-106.796,32.458l-80.26-10.83&#10;&#9;&#9;&#9;&#9;l40.18-70.758l54.38-29.042l87.48-92.33C442.479,5.057,450.369,8.197,450.369,14.657z"/>
			<path style="fill:#FFC850;" d="M450.369,131.119v56.548c-33.89,21.54-77.82,37.481-117.62,32.111l-76.75-17.901&#10;&#9;&#9;&#9;&#9;C338.302,195.213,404.655,179.684,450.369,131.119z"/>
			<path style="fill:#FFF082;" d="M450.369,187.667c0,9.1-3.62,17.83-10.05,24.27l-84.51,84.51l-73.906-26.41l-25.904-68.16&#10;&#9;&#9;&#9;&#9;l80.26,10.83C376.059,218.077,416.479,209.207,450.369,187.667z"/>
		</g>
		<g>
			<path style="fill:#8CE1A4;" d="M68.779,7.507h116.462l49.129,7.314c21.54,33.89,37.829,66.996,32.458,106.796l-10.83,80.26&#10;&#9;&#9;&#9;&#9;l-66.497-35.181l-33.303-59.379l-92.33-87.48C59.179,15.397,62.319,7.507,68.779,7.507z"/>
			<path style="fill:#7AD396;" d="M185.241,7.507h56.548c21.54,33.89,37.481,77.82,32.111,117.62l-17.901,76.75&#10;&#9;&#9;&#9;&#9;C249.335,119.574,233.806,53.221,185.241,7.507z"/>
			<path style="fill:#AFEFA5;" d="M241.789,7.507c9.1,0,17.83,3.62,24.27,10.05l84.51,84.51l-94.57,99.81l10.83-80.26&#10;&#9;&#9;&#9;&#9;C272.199,81.817,263.329,41.397,241.789,7.507z"/>
		</g>
		<g>
			<path style="fill:#E84F74;" d="M61.629,389.097V272.635l7.314-49.129c33.89-21.54,66.996-37.829,106.796-32.458l80.26,10.83&#10;&#9;&#9;&#9;&#9;l-34.308,64.207l-60.252,35.593l-87.48,92.33C69.519,398.697,61.629,395.557,61.629,389.097z"/>
			<path style="fill:#D34071;" d="M61.629,272.635v-56.548c33.89-21.54,77.82-37.481,117.62-32.111l76.75,17.901&#10;&#9;&#9;&#9;&#9;C173.695,208.541,107.343,224.07,61.629,272.635z"/>
			<path style="fill:#FF6C88;" d="M61.629,216.087c0-9.1,3.62-17.83,10.05-24.27l84.51-84.51l99.81,94.57l-80.26-10.83&#10;&#9;&#9;&#9;&#9;C135.939,185.677,95.519,194.547,61.629,216.087z"/>
		</g>
		<g>
			<path style="fill:#70BDE8;" d="M443.219,396.247H326.756l-49.129-7.314c-21.54-33.89-37.829-66.996-32.458-106.796l10.83-80.26&#10;&#9;&#9;&#9;&#9;l99.8,94.56l92.33,87.48C452.818,388.357,449.678,396.247,443.219,396.247z"/>
			<path style="fill:#64ACDC;" d="M326.756,396.247h-56.548c-21.54-33.89-37.481-77.82-32.111-117.62l17.901-76.75&#10;&#9;&#9;&#9;&#9;C262.662,284.18,278.192,350.533,326.756,396.247z"/>
			<path style="fill:#84CBEF;" d="M270.209,396.247c-9.1,0-17.83-3.62-24.27-10.05l-84.51-84.51l94.57-99.81l-10.83,80.26&#10;&#9;&#9;&#9;&#9;C239.798,321.937,248.668,362.357,270.209,396.247z"/>
		</g>
		<g>
			<circle style="fill:#F8F7F7;" cx="255.999" cy="201.881" r="66.493"/>
			<circle style="fill:#E8E8E8;" cx="255.999" cy="201.881" r="28.261"/>
		</g>
	</g>
	<g>
		
			<line style="fill:none;stroke:#000000;stroke-width:15;stroke-linecap:round;stroke-linejoin:round;stroke-miterlimit:10;" x1="277.035" y1="398.41" x2="277.035" y2="504.497"/>
		
			<line style="fill:none;stroke:#000000;stroke-width:15;stroke-linecap:round;stroke-linejoin:round;stroke-miterlimit:10;" x1="234.962" y1="504.497" x2="234.962" y2="377.052"/>
		<path style="fill:none;stroke:#000000;stroke-width:15;stroke-linecap:round;stroke-linejoin:round;stroke-miterlimit:10;" d="&#10;&#9;&#9;&#9;M90.319,44.917l-26.46-25.07c-4.69-4.45-1.54-12.34,4.92-12.34h173c9.11,0,17.84,3.62,24.27,10.06l84.51,84.51l87.48-92.33&#10;&#9;&#9;&#9;c4.44-4.69,12.33-1.55,12.33,4.91v173.01c0,9.1-3.62,17.83-10.05,24.27l-84.51,84.51l92.33,87.47c4.69,4.44,1.54,12.33-4.92,12.33&#10;&#9;&#9;&#9;h-77.72"/>
		<path style="fill:none;stroke:#000000;stroke-width:15;stroke-linecap:round;stroke-linejoin:round;stroke-miterlimit:10;" d="&#10;&#9;&#9;&#9;M115.739,68.997l40.45,38.32c0,0-60.16,60.17-84.51,84.52c-6.44,6.43-10.05,15.16-10.05,24.26v89.21"/>
		<path style="fill:none;stroke:#000000;stroke-width:15;stroke-linecap:round;stroke-linejoin:round;stroke-miterlimit:10;" d="&#10;&#9;&#9;&#9;M61.629,340.307v48.8c0,6.46,7.89,9.6,12.33,4.91l87.48-92.33l84.51,84.51c6.43,6.44,15.16,10.05,24.27,10.05h60.28"/>
		<path style="fill:none;stroke:#000000;stroke-width:15;stroke-linecap:round;stroke-linejoin:round;stroke-miterlimit:10;" d="&#10;&#9;&#9;&#9;M246.749,270.437l-1.579,11.704c-5.37,39.8,3.501,80.217,25.044,114.11l0,0"/>
		<path style="fill:none;stroke:#000000;stroke-width:15;stroke-linecap:round;stroke-linejoin:round;stroke-miterlimit:10;" d="&#10;&#9;&#9;&#9;M449.059,188.487c-20.25,12.62-42.76,20.74-66.06,24.05"/>
		<path style="fill:none;stroke:#000000;stroke-width:15;stroke-linecap:round;stroke-linejoin:round;stroke-miterlimit:10;" d="&#10;&#9;&#9;&#9;M323.929,211.047l12.33,1.66c3.91,0.53,7.83,0.92,11.74,1.17"/>
		<path style="fill:none;stroke:#000000;stroke-width:15;stroke-linecap:round;stroke-linejoin:round;stroke-miterlimit:10;" d="&#10;&#9;&#9;&#9;M264.97,135.388l1.857-13.767c5.301-39.291-3.276-79.184-24.224-112.807"/>
		<path style="fill:none;stroke:#000000;stroke-width:15;stroke-linecap:round;stroke-linejoin:round;stroke-miterlimit:10;" d="&#10;&#9;&#9;&#9;M188.162,192.729l-12.424-1.676c-39.334-5.307-79.27,3.295-112.917,24.292"/>
		
			<line style="fill:none;stroke:#000000;stroke-width:15;stroke-linecap:round;stroke-linejoin:round;stroke-miterlimit:10;" x1="156.19" y1="107.32" x2="204.892" y2="156.022"/>
		
			<line style="fill:none;stroke:#000000;stroke-width:15;stroke-linecap:round;stroke-linejoin:round;stroke-miterlimit:10;" x1="161.437" y1="301.69" x2="210.262" y2="252.866"/>
		
			<line style="fill:none;stroke:#000000;stroke-width:15;stroke-linecap:round;stroke-linejoin:round;stroke-miterlimit:10;" x1="355.807" y1="296.442" x2="306.497" y2="247.132"/>
		
			<line style="fill:none;stroke:#000000;stroke-width:15;stroke-linecap:round;stroke-linejoin:round;stroke-miterlimit:10;" x1="350.56" y1="102.072" x2="301.867" y2="150.765"/>
		
			<circle style="fill:none;stroke:#000000;stroke-width:15;stroke-linecap:round;stroke-linejoin:round;stroke-miterlimit:10;" cx="255.999" cy="201.881" r="66.493"/>
		
			<circle style="fill:none;stroke:#000000;stroke-width:15;stroke-linecap:round;stroke-linejoin:round;stroke-miterlimit:10;" cx="255.999" cy="201.881" r="28.261"/>
	</g>
</g>















</svg>
