<?xml version="1.0" encoding="iso-8859-1"?>
<!-- Generator: Adobe Illustrator 19.0.0, SVG Export Plug-In . SVG Version: 6.00 Build 0)  -->
<svg version="1.1" id="Capa_1" xmlns="http://www.w3.org/2000/svg" xmlns:xlink="http://www.w3.org/1999/xlink" x="0px" y="0px"
	 viewBox="0 0 512 512" style="enable-background:new 0 0 512 512;" xml:space="preserve">
<g>
	<path style="fill:#F895C6;" d="M468.347,189.346c7.073,0,17.957,4.881,24.83,8.73c3.46,1.938,7.855,0.379,9.236-3.338
		c1.847-4.966,2.087-10.448,2.087-13.035c0-2.587-0.24-8.07-2.087-13.035c-1.383-3.717-5.777-5.276-9.236-3.338
		c-6.874,3.85-17.758,8.73-24.83,8.73V189.346z"/>
	<path style="fill:#F895C6;" d="M141.208,225.593l-31.689-34.985c-13.791-14.996-34.558-19.733-52.745-13.825
		c-4.118,1.338-8.635,0.141-11.566-3.046l-7.89-8.384c-6.628-7.204-17.975-7.48-24.94-0.44c-6.525,6.595-6.368,17.297-0.088,24.124
		l9.523,10.161c2.672,2.905,3.487,7.002,2.333,10.776c-5.059,16.555-1.461,35.277,11.103,48.938l31.689,34.985
		c9.948,10.816,23.526,16.298,37.148,16.298c12.206,0,24.446-4.403,34.139-13.317C158.735,278.018,160.07,246.101,141.208,225.593z"
		/>
</g>
<path style="opacity:0.15;fill:#893529;enable-background:new    ;" d="M24.147,209.975c-5.059,16.555-1.461,35.277,11.103,48.938
	l31.689,34.985c9.948,10.816,23.526,16.298,37.148,16.298c12.206,0,24.446-4.403,34.139-13.317c0.504-0.464,0.987-0.941,1.468-1.421
	c-103.851-38.012-84.646-86.183-101.141-98.075c-13.714-9.887-19.585-24.991-20.836-36.128c-1.934,0.849-3.754,2.054-5.341,3.657
	c-6.525,6.595-6.368,17.297-0.088,24.124l9.523,10.161C24.485,202.104,25.3,206.202,24.147,209.975z"/>
<path style="fill:#F895C6;" d="M86.704,479.943c-5.824,0-11.745-1.016-17.527-3.158c-26.126-9.682-39.457-38.713-29.774-64.839
	l24.987-67.424c9.683-26.126,38.712-39.459,64.84-29.774c26.126,9.681,39.457,38.712,29.774,64.839l-24.987,67.424
	C126.476,467.357,107.202,479.943,86.704,479.943z"/>
<path style="opacity:0.15;fill:#893529;enable-background:new    ;" d="M129.23,314.749c-26.127-9.684-55.157,3.647-64.84,29.774
	l-24.987,67.424c-9.682,26.126,3.648,55.157,29.774,64.839c5.781,2.143,11.702,3.158,17.527,3.158
	c13.551,0,26.564-5.505,36.009-15.111c-57.099,4.822-61.084-48.481-38.582-94.651c2.533-5.197,8.968-7.257,13.95-4.324
	c7.495,4.413,16.23,6.944,25.556,6.944h37.347C166.29,348.614,153.111,323.598,129.23,314.749z"/>
<path style="fill:#F895C6;" d="M323.02,479.943c-20.5,0-39.771-12.584-47.312-32.932l-24.988-67.424
	c-9.682-26.127,3.648-55.157,29.774-64.839c26.127-9.688,55.157,3.646,64.839,29.774l24.987,67.424
	c9.683,26.126-3.647,55.157-29.774,64.839C334.767,478.927,328.841,479.943,323.02,479.943z"/>
<path style="opacity:0.15;fill:#893529;enable-background:new    ;" d="M323.02,479.943c5.823,0,11.747-1.016,17.527-3.158
	c11.831-4.385,21.026-12.743,26.66-22.997c-56.952,1.183-73.445-86.827-73.64-141.989c-4.37,0.391-8.76,1.35-13.072,2.949
	c-26.126,9.681-39.458,38.712-29.774,64.839l24.988,67.424C283.248,467.359,302.52,479.943,323.02,479.943z"/>
<path style="fill:#F895C6;" d="M308.941,307.166c-9.563,0-19.228-2.714-27.799-8.386c-23.235-15.379-29.603-46.683-14.224-69.918
	l12.449-18.809c15.379-23.235,46.68-29.603,69.918-14.224c23.235,15.379,29.603,46.683,14.224,69.917l-12.449,18.809
	C341.353,299.218,325.301,307.166,308.941,307.166z"/>
<path style="opacity:0.15;fill:#893529;enable-background:new    ;" d="M349.283,195.829c-23.237-15.379-54.539-9.01-69.918,14.224
	l-12.449,18.809c-15.378,23.235-9.01,54.539,14.224,69.918c8.564,5.669,18.221,8.381,27.776,8.386
	c-16.874-18.654-11.401-49.513-2.867-67.282c1.879-3.913,6.83-5.283,10.426-2.853c15.263,10.313,40.81,14.941,54.078,12.444
	C375.261,229.494,367.4,207.821,349.283,195.829z"/>
<path style="fill:#D76976;" d="M274.174,355.192H135.551c-27.863,0-50.451-22.588-50.451-50.451
	c0-27.863,22.588-50.451,50.451-50.451h138.623c27.863,0,50.451,22.588,50.451,50.451
	C324.626,332.605,302.037,355.192,274.174,355.192z"/>
<path style="fill:#F895C6;" d="M354.094,194.326c-21.584,0-41.556-13.959-48.216-35.668l-18.817-61.342
	c-8.171-26.639,6.799-54.858,33.437-63.029c26.638-8.17,54.858,6.799,63.029,33.437l18.817,61.342
	c8.171,26.639-6.8,54.858-33.437,63.029C363.979,193.606,358.994,194.326,354.094,194.326z"/>
<path style="opacity:0.15;fill:#893529;enable-background:new    ;" d="M305.878,158.658c6.66,21.71,26.632,35.668,48.216,35.668
	c4.9,0,9.885-0.72,14.813-2.232c9.897-3.036,18.18-8.843,24.267-16.306c-55.005-4.827-93.451-90.878-77.242-139.853
	c-23.747,9.837-36.563,36.306-28.871,61.381L305.878,158.658z"/>
<path style="fill:#D76976;" d="M432.198,232.155h-73.309c-27.863,0-50.451-22.588-50.451-50.451s22.588-50.451,50.451-50.451h73.309
	c27.863,0,50.451,22.588,50.451,50.451S460.061,232.155,432.198,232.155z"/>
<g>
	<path style="opacity:0.2;fill:#893529;enable-background:new    ;" d="M358.889,232.155h73.309c9.848,0,19.03-2.832,26.795-7.711
		c-109.19,4.222-128.631-67.281-105.074-92.945c-25.53,2.497-45.481,24.02-45.481,50.205
		C308.438,209.567,331.025,232.155,358.889,232.155z"/>
	<path style="opacity:0.2;fill:#893529;enable-background:new    ;" d="M221.167,355.192
		c-58.196-17.354-83.598-77.869-72.955-100.903H135.55c-27.863,0-50.451,22.588-50.451,50.451c0,27.863,22.588,50.451,50.451,50.451
		L221.167,355.192L221.167,355.192z"/>
</g>
<path d="M509.443,166.055c-1.416-3.808-4.419-6.797-8.238-8.199c-3.849-1.416-8.111-1.075-11.692,0.933
	c-0.81,0.454-1.973,1.082-3.369,1.787c-8.463-21.532-29.445-36.823-53.945-36.823h-23.641l-13.649-44.494
	c-1.215-3.96-5.412-6.186-9.368-4.971c-3.96,1.215-6.186,5.409-4.971,9.368l12.3,40.096h-33.982
	c-19.967,0-37.607,10.15-48.032,25.562l-16.626-54.198c-6.945-22.644,5.825-46.715,28.466-53.661
	c16.541-5.072,34.417,0.217,45.534,13.476c2.66,3.172,7.39,3.588,10.565,0.928c3.174-2.662,3.589-7.393,0.928-10.565
	c-14.999-17.886-39.112-25.023-61.426-18.177c-30.549,9.37-47.778,41.849-38.407,72.397l18.817,61.342
	c0.924,3.012,2.099,5.954,3.502,8.782c-0.828,3.894-1.272,7.928-1.272,12.065c0,0.666,0.028,1.325,0.05,1.986
	c-11.354,4.275-21.107,11.998-27.876,22.225l-12.45,18.81c-4.432,6.697-7.404,14.219-8.765,22.066h-91.332
	c-2.223-9.787-6.928-18.763-13.796-26.231l-31.728-35.027c-15.296-16.632-39.077-22.864-60.582-15.881
	c-1.318,0.427-2.782,0.04-3.788-1.053l-7.833-8.322c-4.555-4.951-11.025-7.86-17.754-7.982c-6.831-0.118-13.228,2.485-18.037,7.346
	c-9.295,9.395-9.417,24.538-0.229,34.528l9.475,10.109c0.824,0.896,1.079,2.207,0.681,3.508
	c-5.99,19.603-1.102,41.139,12.717,56.164l31.727,35.026c4.779,5.196,10.349,9.375,16.584,12.503
	c0.122,1.052,0.275,2.095,0.453,3.129c-9.6,6.724-16.998,16.245-21.099,27.309l-17.965,48.476c-1.439,3.884,0.542,8.198,4.426,9.638
	c0.859,0.318,1.74,0.47,2.605,0.47c3.047,0,5.913-1.871,7.034-4.896l17.965-48.476c2.482-6.697,6.597-12.629,11.896-17.295
	c9.369,19.424,29.261,32.858,52.232,32.858h19.077c-0.076,4.858-0.957,9.706-2.655,14.289l-24.987,67.424
	c-6.216,16.771-22.404,28.039-40.28,28.039c-5.083,0-10.103-0.905-14.921-2.69c-17.743-6.576-28.986-23.676-27.978-42.551
	c0.221-4.137-2.953-7.669-7.089-7.89c-4.134-0.238-7.668,2.954-7.889,7.089c-1.36,25.472,13.808,48.546,37.744,57.415
	c6.492,2.406,13.265,3.626,20.133,3.626c24.119,0,45.959-15.201,54.346-37.826l24.987-67.424c2.316-6.25,3.507-12.87,3.584-19.502
	h70.483c0.077,6.632,1.268,13.252,3.584,19.502l24.988,67.424c8.384,22.625,30.224,37.826,54.345,37.826
	c6.87,0,13.644-1.22,20.133-3.626c14.515-5.379,26.065-16.088,32.525-30.155c6.46-14.066,7.055-29.807,1.675-44.321l-24.987-67.425
	c-4.1-11.063-11.497-20.585-21.098-27.309c0.265-1.538,0.472-3.095,0.613-4.671c10.388-4.433,19.114-11.696,25.432-21.241
	l12.449-18.809c5.969-9.017,9.256-19.517,9.581-30.231h52.855c24.499,0,45.482-15.29,53.946-36.823
	c1.396,0.705,2.558,1.333,3.368,1.787c2.124,1.189,4.486,1.794,6.859,1.794c1.631,0,3.268-0.285,4.835-0.861
	c3.82-1.403,6.823-4.393,8.237-8.197c2.227-5.983,2.559-12.373,2.559-15.65C512.001,178.426,511.669,172.036,509.443,166.055z
	 M78.562,294.291c-2.177-1.608-4.209-3.412-6.064-5.429L40.77,253.837c-10.27-11.167-13.892-27.134-9.45-41.67
	c1.939-6.348,0.412-13.262-4.034-18.096l-9.476-10.109c-3.647-3.965-3.692-10.144-0.101-13.773c1.898-1.917,4.441-2.932,7.103-2.898
	c2.688,0.049,5.169,1.164,7.045,3.203l7.831,8.32c4.905,5.336,12.522,7.337,19.404,5.103c15.944-5.179,33.571-0.558,44.87,11.728
	l31.728,35.027c4.317,4.694,7.478,10.166,9.349,16.12h-9.487C107.165,246.79,83.499,267.31,78.562,294.291z M135.551,347.693
	c-23.112,0-42.007-18.351-42.908-41.244c-0.001-0.051-0.003-0.102-0.004-0.154c-0.018-0.516-0.039-1.032-0.039-1.553
	c0-23.684,19.268-42.952,42.951-42.952h138.623c23.67,0,42.928,19.246,42.95,42.911c0,0.029-0.001,0.057,0,0.086
	c-0.025,23.663-19.283,42.906-42.95,42.906H135.551z M338.301,347.129l24.987,67.425c3.987,10.757,3.546,22.425-1.242,32.85
	c-4.788,10.426-13.349,18.363-24.107,22.351c-4.816,1.785-9.834,2.69-14.919,2.69c-17.878,0-34.065-11.268-40.28-28.039
	l-24.987-67.424c-1.699-4.583-2.58-9.431-2.655-14.289h19.078c22.971,0,42.862-13.434,52.232-32.858
	C331.704,334.501,335.819,340.432,338.301,347.129z M357.255,261.607l-12.449,18.809c-3.612,5.456-8.289,9.901-13.771,13.16
	c-5.22-26.628-28.726-46.786-56.86-46.786h-6.962c1.16-4.884,3.159-9.558,5.958-13.788l12.449-18.809
	c4.463-6.743,10.672-12.02,17.911-15.335c7.33,23.606,29.373,40.796,55.358,40.796h5.449
	C364.018,247.438,361.594,255.051,357.255,261.607z M432.198,224.655h-73.309c-23.683,0-42.951-19.269-42.951-42.951
	c0-23.685,19.269-42.952,42.951-42.952h44.037c0.008,0,0.016,0.002,0.023,0.002c0.01,0,0.021-0.002,0.031-0.002h29.218
	c23.684,0,42.951,19.269,42.951,42.952C475.149,205.388,455.882,224.655,432.198,224.655z M495.779,190.946
	c-1.933-1.052-3.952-2.064-5.972-3.004c0.221-2.051,0.341-4.131,0.341-6.239c0-2.109-0.12-4.19-0.341-6.241
	c2.02-0.94,4.039-1.952,5.972-3.004c1.095,3.639,1.223,7.598,1.223,9.243S496.874,187.308,495.779,190.946z M409.538,154.508
	c-11.852,0-21.495,9.642-21.495,21.495c0,4.143,3.357,7.5,7.5,7.5c4.142,0,7.5-3.357,7.5-7.5c0-3.582,2.914-6.496,6.496-6.496
	c3.582,0,6.496,2.914,6.496,6.496c0,4.143,3.357,7.5,7.5,7.5c4.143,0,7.5-3.357,7.5-7.5
	C431.033,164.151,421.391,154.508,409.538,154.508z"/>
<g>
</g>
<g>
</g>
<g>
</g>
<g>
</g>
<g>
</g>
<g>
</g>
<g>
</g>
<g>
</g>
<g>
</g>
<g>
</g>
<g>
</g>
<g>
</g>
<g>
</g>
<g>
</g>
<g>
</g>
</svg>
