<?xml version="1.0" encoding="UTF-8"?>
<svg xmlns="http://www.w3.org/2000/svg" xmlns:xlink="http://www.w3.org/1999/xlink" version="1.1" id="Capa_1" x="0px" y="0px" viewBox="0 0 512 512" style="enable-background:new 0 0 512 512;" xml:space="preserve" width="512" height="512">
<g>
	<path style="fill-rule:evenodd;clip-rule:evenodd;fill:#FFE177;" d="M126.726,302.453l23.024,2.797l6.966-16.566l-31.918-73.341&#10;&#9;&#9;l-10.233-23.495c-11.906-19.933-38.381-3.449-29.169,15.296l3.543,8.199L126.726,302.453z"/>
	<polygon style="fill-rule:evenodd;clip-rule:evenodd;fill:#FFD15B;" points="112.496,228.886 141.551,295.639 149.75,305.25 &#10;&#9;&#9;156.716,288.684 124.798,215.343 110.75,205 106.6,215.343 &#9;"/>
	<path style="fill-rule:evenodd;clip-rule:evenodd;fill:#554E56;" d="M113.658,372.458l-32.825-17.247&#10;&#9;&#9;c-3.628-0.65-7.37-0.99-11.197-0.99c-34.328,0-62.136,27.736-62.136,61.975c0,34.211,27.808,61.975,62.136,61.975&#10;&#9;&#9;c34.299,0,62.136-27.764,62.136-61.975C131.771,399.119,124.855,383.654,113.658,372.458L113.658,372.458z"/>
	<path style="fill-rule:evenodd;clip-rule:evenodd;fill:#433F43;" d="M105.607,410.429c0,34.239-27.808,61.975-62.136,61.975h-0.028&#10;&#9;&#9;c7.937,3.704,16.838,5.768,26.192,5.768c34.299,0,62.136-27.764,62.136-61.975c0-17.077-6.917-32.542-18.113-43.739l-14.939,7.634&#10;&#9;&#9;l4.054,11.818C104.615,397.762,105.607,403.982,105.607,410.429L105.607,410.429z"/>
	<path style="fill-rule:evenodd;clip-rule:evenodd;fill:#62DBFB;" d="M125.195,351.818c5.754-10.037,5.272-10.178,13.72-14.165&#10;&#9;&#9;l191.453-91.577l13.133-20.258l-13.133-16.837l-213.364,98.419c-8.164,3.76-13.295,5.768-18.369,15.381l-44.136,80.353&#10;&#9;&#9;c-12.472,19.622,17.263,39.413,31.096,19.48L125.195,351.818z"/>
	<path style="fill-rule:evenodd;clip-rule:evenodd;fill:#01D0FB;" d="M96.168,363.269l-25.767,46.085&#10;&#9;&#9;c-4.932,7.097-11.877,9.161-18.227,7.973c3.798,12.864,23.074,20.187,33.421,5.287l28.063-50.157l11.537-20.639&#10;&#9;&#9;c5.754-10.037,5.272-10.178,13.72-14.165l191.453-91.577l10.466-13.909l-10.466-4.638l-206.675,96.864&#10;&#9;&#9;c-8.447,3.987-7.965,4.128-13.691,14.165L96.168,363.269z"/>
	<path style="fill-rule:evenodd;clip-rule:evenodd;fill:#FFE177;" d="M382.326,115.736l-16.358,14.431l16.358,19.299&#10;&#9;&#9;c11.452,21.94,30.104,24.541,52.356,22.195c0-26.04,0-52.079,0-78.119C412.43,91.195,393.778,93.796,382.326,115.736&#10;&#9;&#9;L382.326,115.736z"/>
	<path style="fill-rule:evenodd;clip-rule:evenodd;fill:#FFD15B;" d="M434.682,148.42c-22.252,2.347-40.904-0.254-52.356-22.195&#10;&#9;&#9;l-12.66,12.441l12.66,10.8c11.452,21.94,30.104,24.541,52.356,22.195C434.682,163.914,434.682,156.167,434.682,148.42&#10;&#9;&#9;L434.682,148.42z"/>
	<path style="fill-rule:evenodd;clip-rule:evenodd;fill:#62DBFB;" d="M349.813,105.416v106.771h32.514v-62.721v-33.73V96.567&#10;&#9;&#9;c0-7.04-1.077-10.8-6.661-14.843L330.707,49.69c0.652,1.866,1.021,3.873,1.021,5.966c0,10.15-8.33,11.47-18.478,11.47l-7.233,6.965&#10;&#9;&#9;L349.813,105.416z"/>
	<path style="fill-rule:evenodd;clip-rule:evenodd;fill:#01D0FB;" d="M365.914,101.006l0.17,111.181h16.243&#10;&#9;&#9;c0-31.892,0-83.756,0-115.62c0-7.04-1.077-10.8-6.661-14.843L339.466,55.91c-9.865-2.375-11.934,4.552-10.743,9.754l30.671,24.372&#10;&#9;&#9;C364.978,94.079,365.914,93.966,365.914,101.006L365.914,101.006z"/>
	<path style="fill-rule:evenodd;clip-rule:evenodd;fill:#554E56;" d="M364.61,309.437c-25.88,16.116-43.115,44.785-43.115,77.469&#10;&#9;&#9;c0,50.411,40.961,91.266,91.503,91.266s91.503-40.855,91.503-91.266c0-50.411-40.961-91.266-91.503-91.266&#10;&#9;&#9;c-6.35,0-12.529,0.65-18.51,1.866L364.61,309.437z"/>
	<path style="fill-rule:evenodd;clip-rule:evenodd;fill:#EAF6FF;" d="M375.693,346.786c-10.8,9.98-17.575,24.259-17.575,40.12&#10;&#9;&#9;c0,30.224,24.576,54.737,54.879,54.737s54.879-24.513,54.879-54.737c0-30.224-24.576-54.737-54.879-54.737&#10;&#9;&#9;c-2.495,0-4.932,0.17-7.313,0.481L375.693,346.786z"/>
	<path style="fill-rule:evenodd;clip-rule:evenodd;fill:#D8ECFE;" d="M406.903,332.508c22.252,6.955,38.438,27.708,38.438,52.249&#10;&#9;&#9;c0,28.16-21.345,51.344-48.784,54.37c5.187,1.64,10.715,2.516,16.441,2.516c30.302,0,54.879-24.513,54.879-54.737&#10;&#9;&#9;c0-30.224-24.576-54.737-54.879-54.737C410.928,332.168,408.887,332.281,406.903,332.508L406.903,332.508z"/>
	<path style="fill-rule:evenodd;clip-rule:evenodd;fill:#433F43;" d="M405.315,295.95c25.143,10.687,44.504,32.288,52.129,58.837&#10;&#9;&#9;c6.548,9.019,10.432,20.131,10.432,32.118c0,18.264-8.958,34.409-22.734,44.361c-15.109,22.138-39.742,37.292-68.003,39.639&#10;&#9;&#9;c11.027,4.665,23.131,7.266,35.858,7.266c50.542,0,91.503-40.855,91.503-91.266c0-50.411-40.961-91.266-91.503-91.266&#10;&#9;&#9;C410.418,295.639,407.838,295.752,405.315,295.95L405.315,295.95z"/>
	<path style="fill-rule:evenodd;clip-rule:evenodd;fill:#62DBFB;" d="M383.829,259.449h-34.016l14.797,49.987l11.083,37.349&#10;&#9;&#9;l10.602,35.851c1.871,6.39,2.013,5.542,6.633,9.924l11.452,9.358c20.239,12.242,38.977-15.409,16.469-30.139l-3.515-2.545&#10;&#9;&#9;L383.829,259.449z"/>
	<path style="fill-rule:evenodd;clip-rule:evenodd;fill:#01D0FB;" d="M366.821,259.449l37.219,119.539l3.515,2.545&#10;&#9;&#9;c10.318,6.757,11.962,16.229,8.759,23.325c14.258-1.498,22.422-21.375,4.535-33.08l-3.515-2.545l-33.506-109.785l-8.249-6.729&#10;&#9;&#9;L366.821,259.449z"/>
	<path style="fill-rule:evenodd;clip-rule:evenodd;fill:#FFE177;" d="M330.367,208.981v37.095v3.449c0,5.457,4.479,9.924,9.95,9.924&#10;&#9;&#9;h9.496h32.514h5.953c5.471,0,9.95-4.467,9.95-9.924v-47.414c0-5.457-4.479-9.924-9.95-9.924h-5.953h-32.514h-9.496&#10;&#9;&#9;c-5.471,0-9.95,4.467-9.95,9.924V208.981z"/>
	<path style="fill-rule:evenodd;clip-rule:evenodd;fill:#FE646F;" d="M149.091,215.343c31.465,0,34.413-41.59,0-46.142&#10;&#9;&#9;l-52.555-6.927l-22.904-6.503c-17.433-4.948-31.833,11.027-31.833,28.245c0,17.247,12.161,31.327,29.424,31.327&#10;&#9;&#9;C97.188,215.343,123.154,215.343,149.091,215.343L149.091,215.343z"/>
	<path style="fill-rule:evenodd;clip-rule:evenodd;fill:#FD4755;" d="M119.781,165.328c26.901,7.097,26.504,41.618,4.45,48.743&#10;&#9;&#9;c-2.551,0.82-5.414,1.272-8.532,1.272h9.099h24.293c31.465,0,34.413-41.59,0-46.142L119.781,165.328z"/>
	<path style="fill-rule:evenodd;clip-rule:evenodd;fill:#FFD15B;" d="M374.248,202.111v47.414c0,5.457-4.479,9.924-9.95,9.924&#10;&#9;&#9;c7.994,0,15.987,0,23.981,0c5.471,0,9.95-4.467,9.95-9.924v-47.414c0-5.457-4.479-9.924-9.95-9.924h-23.981&#10;&#9;&#9;C369.769,192.187,374.248,196.654,374.248,202.111L374.248,202.111z"/>
	<path style="fill-rule:evenodd;clip-rule:evenodd;fill:#FFE177;" d="M311.46,74.09h7.909c11.112,0,20.183-9.076,20.183-20.131&#10;&#9;&#9;c0-2.29-0.369-4.495-1.077-6.531c-2.75-7.888-10.29-13.599-19.106-13.599h-52.356c-11.083,0-20.183,9.047-20.183,20.131&#10;&#9;&#9;c0,11.055,9.099,20.131,20.183,20.131H311.46z"/>
	<path style="fill-rule:evenodd;clip-rule:evenodd;fill:#FFD15B;" d="M293.205,33.828c26.532,0,26.532,40.261,0,40.261&#10;&#9;&#9;c8.702,0,17.433,0,26.164,0c10.432,0,19.106-8.001,20.098-18.18c0.057-0.65,0.085-1.301,0.085-1.951&#10;&#9;&#9;c0-2.29-0.369-4.495-1.077-6.531c-2.75-7.888-10.29-13.599-19.106-13.599H293.205z"/>
	<path style="fill:none;stroke:#000000;stroke-width:15;stroke-linecap:round;stroke-linejoin:round;stroke-miterlimit:10;" d="&#10;&#9;&#9;M395.394,297.336c5.698-1.103,11.594-1.696,17.603-1.696c50.542,0,91.503,40.855,91.503,91.266&#10;&#9;&#9;c0,50.411-40.961,91.266-91.503,91.266s-91.503-40.855-91.503-91.266c0-32.684,17.235-61.353,43.115-77.469"/>
	<path style="fill:none;stroke:#000000;stroke-width:15;stroke-linecap:round;stroke-linejoin:round;stroke-miterlimit:10;" d="&#10;&#9;&#9;M406.166,332.592c2.239-0.283,4.507-0.424,6.832-0.424c30.302,0,54.879,24.513,54.879,54.737c0,30.224-24.576,54.737-54.879,54.737&#10;&#9;&#9;s-54.879-24.513-54.879-54.737c0-15.861,6.775-30.139,17.575-40.12"/>
	<path style="fill:none;stroke:#000000;stroke-width:15;stroke-linecap:round;stroke-linejoin:round;stroke-miterlimit:10;" d="&#10;&#9;&#9;M383.829,259.449l33.506,109.785l3.515,2.545c22.507,14.73,3.77,42.382-16.469,30.139l-11.452-9.358&#10;&#9;&#9;c-4.62-4.382-4.762-3.534-6.633-9.924l-36.482-123.187"/>
	
		<line style="fill:none;stroke:#000000;stroke-width:15;stroke-linecap:round;stroke-linejoin:round;stroke-miterlimit:10;" x1="156.716" y1="288.684" x2="126.726" y2="302.453"/>
	<path style="fill:none;stroke:#000000;stroke-width:15;stroke-linecap:round;stroke-linejoin:round;stroke-miterlimit:10;" d="&#10;&#9;&#9;M234.244,292.048l-95.329,45.605c-8.447,3.987-7.965,4.128-13.72,14.165l-39.6,70.796c-13.833,19.933-43.569,0.141-31.096-19.48&#10;&#9;&#9;l44.136-80.353c5.074-9.613,10.346-11.309,18.369-15.381l9.723-4.948l-12.614-29.093 M101.1,243.39L88.94,215.343 M124.798,215.343&#10;&#9;&#9;l31.918,73.341l173.651-79.702v37.095l-65.282,31.214"/>
	<path style="fill:none;stroke:#000000;stroke-width:15;stroke-linecap:round;stroke-linejoin:round;stroke-miterlimit:10;" d="&#10;&#9;&#9;M434.682,93.542c0,26.04,0,52.079,0,78.119c-22.252,2.347-40.904-0.254-52.356-22.195v-33.73&#10;&#9;&#9;C393.778,93.796,412.43,91.195,434.682,93.542L434.682,93.542z"/>
	<path style="fill:none;stroke:#000000;stroke-width:15;stroke-linecap:round;stroke-linejoin:round;stroke-miterlimit:10;" d="&#10;&#9;&#9;M73.632,155.771l22.904,6.503l52.555,6.927c34.413,4.552,31.465,46.142,0,46.142H71.223c-17.263,0-29.424-14.08-29.424-31.327&#10;&#9;&#9;C41.799,166.798,56.199,150.823,73.632,155.771L73.632,155.771z"/>
	<path style="fill:none;stroke:#000000;stroke-width:15;stroke-linecap:round;stroke-linejoin:round;stroke-miterlimit:10;" d="&#10;&#9;&#9;M246.83,53.959L246.83,53.959c0-11.083,9.099-20.131,20.183-20.131h52.356c11.112,0,20.183,9.047,20.183,20.131l0,0&#10;&#9;&#9;c0,11.055-9.071,20.131-20.183,20.131h-52.356C255.929,74.09,246.83,65.014,246.83,53.959L246.83,53.959z"/>
	
		<polyline style="fill:none;stroke:#000000;stroke-width:15;stroke-linecap:round;stroke-linejoin:round;stroke-miterlimit:10;" points="&#10;&#9;&#9;349.813,192.187 349.813,105.416 306.017,74.09 &#9;"/>
	<path style="fill:none;stroke:#000000;stroke-width:15;stroke-linecap:round;stroke-linejoin:round;stroke-miterlimit:10;" d="&#10;&#9;&#9;M340.317,192.187h47.962c5.471,0,9.95,4.467,9.95,9.924v47.414c0,5.457-4.479,9.924-9.95,9.924h-47.962&#10;&#9;&#9;c-5.471,0-9.95-4.467-9.95-9.924v-47.414C330.367,196.654,334.846,192.187,340.317,192.187L340.317,192.187z"/>
	<path style="fill:none;stroke:#000000;stroke-width:15;stroke-linecap:round;stroke-linejoin:round;stroke-miterlimit:10;" d="&#10;&#9;&#9;M339.466,55.91l36.199,25.814c5.584,4.043,6.661,7.803,6.661,14.843v95.62"/>
	<path style="fill:none;stroke:#000000;stroke-width:15;stroke-linecap:round;stroke-linejoin:round;stroke-miterlimit:10;" d="&#10;&#9;&#9;M80.833,355.211c-3.628-0.65-7.37-0.99-11.197-0.99c-34.328,0-62.136,27.736-62.136,61.975c0,34.211,27.808,61.975,62.136,61.975&#10;&#9;&#9;c34.299,0,62.136-27.764,62.136-61.975c0-17.077-6.917-32.542-18.113-43.739"/>
</g>















</svg>
