<?xml version="1.0" encoding="UTF-8" standalone="no"?>
<!-- Created with Inkscape (http://www.inkscape.org/) -->

<svg
   version="1.1"
   id="svg1137"
   xml:space="preserve"
   width="682.66669"
   height="682.66669"
   viewBox="0 0 682.66669 682.66669"
   xmlns="http://www.w3.org/2000/svg"
   xmlns:svg="http://www.w3.org/2000/svg"><defs
     id="defs1141"><clipPath
       clipPathUnits="userSpaceOnUse"
       id="clipPath1151"><path
         d="M 0,512 H 512 V 0 H 0 Z"
         id="path1149" /></clipPath></defs><g
     id="g1143"
     transform="matrix(1.3333333,0,0,-1.3333333,0,682.66667)"><g
       id="g1145"><g
         id="g1147"
         clip-path="url(#clipPath1151)"><g
           id="g1153"
           transform="translate(467.8262,218.125)"><path
             d="M 0,0 -129.175,-22.244 -2.292,56.221 c 18.574,11.486 24.903,35.504 14.402,54.652 -5.382,9.815 -17.869,13.149 -27.428,7.324 L -162.721,28.368 -48.878,161.896 c 13.89,16.291 12.927,40.522 -2.211,55.66 l -1.831,1.831 c -7.749,7.749 -20.342,7.654 -27.972,-0.213 L -215.25,80.663 l 71.536,149.101 c 9.485,19.77 1.758,43.503 -17.547,53.9 l -0.669,0.36 c -9.188,4.948 -20.637,1.849 -26.068,-7.063 -20.781,-34.105 -69.974,-114.289 -96.249,-152.549 -0.064,-0.093 -0.128,-0.187 -0.194,-0.281 -13.708,-19.765 -43.435,-18.279 -55.287,2.652 l -26.979,47.648 c -12.812,22.627 -38.626,34.565 -64.165,29.672 -11.94,-2.288 -18.794,-14.623 -14.488,-25.795 10.008,-25.969 35.982,-83.702 35.982,-83.702 11.419,-37.827 10.267,-78.599 -4.696,-115.169 -20.397,-49.85 -10.374,-109.217 30.098,-149.689 53.83,-53.831 141.106,-53.831 194.936,0 l 65.379,65.378 c 3.775,3.775 8.355,6.649 13.396,8.406 l 105.723,36.836 c 16.972,5.914 28.125,22.181 27.52,40.145 l -0.027,0.801 C 22.551,-6.786 11.734,2.021 0,0"
             style="fill:#f69583;fill-opacity:1;fill-rule:nonzero;stroke:none"
             id="path1155" /></g><g
           id="g1157"
           transform="translate(418.9502,380.02)"><path
             d="m 0,0 -61.11,-71.69 -82.45,-50.24 113.84,133.53 c 12.13,14.22 12.93,34.49 2.86,49.49 7.37,3.78 16.64,2.58 22.82,-3.6 l 1.83,-1.83 C 12.93,40.52 13.89,16.29 0,0"
             style="fill:#ea806f;fill-opacity:1;fill-rule:nonzero;stroke:none"
             id="path1159" /></g><g
           id="g1161"
           transform="translate(465.5303,274.3501)"><path
             d="m 0,0 -89.42,-55.3 -67.18,-11.57 126.89,78.46 c 17.17,10.62 23.88,31.96 16.49,50.26 l 0.2,0.12 c 3.2,1.95 6.72,2.87 10.19,2.87 6.92,0 13.65,-3.66 17.24,-10.19 C 24.91,35.5 18.58,11.48 0,0"
             style="fill:#ea806f;fill-opacity:1;fill-rule:nonzero;stroke:none"
             id="path1163" /></g><g
           id="g1165"
           transform="translate(324.1099,447.8901)"><path
             d="m 0,0 -31.44,-65.53 -69.81,-71.97 71.53,149.1 c 7.07,14.72 4.59,31.63 -5.11,43.6 5.23,2.09 11.3,1.92 16.62,-0.94 l 0.66,-0.36 C 1.76,43.5 9.49,19.77 0,0"
             style="fill:#ea806f;fill-opacity:1;fill-rule:nonzero;stroke:none"
             id="path1167" /></g><g
           id="g1169"
           transform="translate(335.5474,184.7744)"><path
             d="M 0,0 -66.537,58.723 6.978,32.736 c 6.677,-2.361 13.902,1.72 15.329,8.657 l 0.096,0.467 c 2.155,10.473 -2.755,21.129 -12.114,26.297 l -15.826,8.739 -24.905,-15.177 16.77,19.669 -38.564,21.295 -17.607,24.865 -13.129,-13.534 9.174,19.119 -13.012,18.375 c -11.965,16.897 -29.162,27.876 -47.832,32.338 -6.379,-9.825 -12.276,-18.73 -17.326,-26.083 -0.064,-0.094 -0.129,-0.187 -0.194,-0.282 -13.709,-19.766 -43.463,-18.229 -55.316,2.703 l -2.195,3.877 c -21.585,-20.099 -30.287,-49.937 -24.087,-77.777 5.109,-22.943 1.699,-46.965 -8.787,-68.001 0,0 -21.015,-31.25 -29.486,-45.475 -3.644,-6.12 -0.861,-14.039 5.911,-16.577 14.485,-5.428 30.818,-1.015 40.597,10.97 l 20.572,25.208 c 9.048,11.087 26.648,9.006 32.706,-3.958 0.029,-0.061 0.058,-0.123 0.086,-0.184 11.573,-25.068 32.384,-77.015 41.152,-99.095 2.291,-5.769 8.694,-8.733 14.577,-6.752 l 0.428,0.144 c 12.362,4.162 19.271,17.305 15.69,29.847 l -27.006,94.595 64.903,-94.68 c 3.687,-5.377 11.061,-6.695 16.381,-2.928 l 1.257,0.89 c 10.393,7.36 13.386,21.471 6.874,32.416 l -53.374,89.703 77.431,-67.443 c 5.021,-4.373 12.677,-3.669 16.817,1.547 C 11.044,-23.314 9.74,-8.596 0,0"
             style="fill:#ea806f;fill-opacity:1;fill-rule:nonzero;stroke:none"
             id="path1171" /></g><g
           id="g1173"
           transform="translate(463.2803,158.4902)"><path
             d="m 0,0 -105.72,-36.83 c -5.04,-1.76 -9.62,-4.63 -13.39,-8.41 l -65.38,-65.38 c -26.91,-26.91 -62.19,-40.37 -97.47,-40.37 -35.28,0 -70.561,13.46 -97.47,40.37 -4.82,4.82 -9.22,9.92 -13.171,15.23 25.281,-20.64 56.161,-30.95 87.041,-30.95 35.28,0 70.56,13.45 97.47,40.37 l 65.38,65.38 c 3.78,3.77 8.36,6.64 13.4,8.4 L -23.59,24.65 C -8.31,29.98 2.26,43.7 3.75,59.49 l 0.8,0.14 C 16.28,61.66 27.1,52.85 27.5,40.95 l 0.02,-0.8 C 28.13,22.18 16.98,5.92 0,0"
             style="fill:#ea806f;fill-opacity:1;fill-rule:nonzero;stroke:none"
             id="path1175" /></g><g
           id="g1177"
           transform="translate(325.2378,373.6963)"><path
             d="M 0,0 -72.662,-74.908 -1.126,74.193 c 9.485,19.769 1.759,43.503 -17.547,53.9 l -0.668,0.36 c -9.188,4.947 -20.638,1.848 -26.068,-7.063 -20.782,-34.105 -69.974,-114.289 -96.249,-152.549 -0.064,-0.093 -0.129,-0.187 -0.195,-0.281 -13.708,-19.766 -43.435,-18.28 -55.287,2.652 l -26.979,47.647 c -12.812,22.628 -38.626,34.565 -64.164,29.673 -11.941,-2.288 -18.795,-14.623 -14.489,-25.795 10.008,-25.969 35.982,-83.702 35.982,-83.702 11.419,-37.827 10.268,-78.599 -4.695,-115.169 -9.843,-24.055 -12.58,-50.323 -8.253,-75.617"
             style="fill:none;stroke:#000000;stroke-width:15;stroke-linecap:round;stroke-linejoin:round;stroke-miterlimit:10;stroke-dasharray:none;stroke-opacity:1"
             id="path1179" /></g><g
           id="g1181"
           transform="translate(56.2568,87.3452)"><path
             d="m 0,0 c 6.622,-14.29 15.807,-27.686 27.594,-39.473 53.83,-53.83 141.105,-53.83 194.935,0 l 65.379,65.379 c 3.776,3.776 8.355,6.649 13.397,8.406 l 105.722,36.836 c 16.973,5.914 28.125,22.181 27.52,40.144 l -0.026,0.802 c -0.401,11.9 -11.217,20.706 -22.952,18.686 L 282.395,108.536 409.277,187 c 18.574,11.487 24.904,35.504 14.403,54.653 -5.383,9.815 -17.87,13.149 -27.429,7.324 L 248.848,159.148 362.691,292.676 c 13.89,16.291 12.927,40.522 -2.211,55.66 l -1.831,1.831 c -7.749,7.749 -20.341,7.653 -27.972,-0.213 L 294.259,312.41"
             style="fill:none;stroke:#000000;stroke-width:15;stroke-linecap:round;stroke-linejoin:round;stroke-miterlimit:10;stroke-dasharray:none;stroke-opacity:1"
             id="path1183" /></g><g
           id="g1185"
           transform="translate(364.7529,243.1743)"><path
             d="m 0,0 -73.515,25.987 66.537,-58.723 c 9.741,-8.597 11.045,-23.314 2.969,-33.489 -4.139,-5.216 -11.795,-5.92 -16.816,-1.546 l -77.431,67.442 53.373,-89.703 c 6.512,-10.945 3.52,-25.056 -6.873,-32.416 l -1.258,-0.89 c -5.319,-3.767 -12.694,-2.449 -16.38,2.927 l -64.904,94.682 27.006,-94.596 c 3.581,-12.543 -3.328,-25.685 -15.689,-29.846 l -0.428,-0.144 c -5.883,-1.981 -12.286,0.982 -14.577,6.752 -8.768,22.079 -29.579,74.026 -41.153,99.094 -0.028,0.061 -0.056,0.123 -0.085,0.184 -6.058,12.964 -23.659,15.045 -32.706,3.958 l -20.572,-25.208 c -9.78,-11.985 -26.113,-16.398 -40.597,-10.97 -6.773,2.538 -9.555,10.458 -5.911,16.577 8.47,14.225 29.486,45.475 29.486,45.475 10.486,21.036 13.896,45.058 8.786,68.001 -6.965,31.274 4.861,65.08 32.648,84.757 36.958,26.17 88.133,17.425 114.303,-19.533 L -59.213,69.947 3.312,35.421 C 12.671,30.253 17.58,19.597 15.426,9.125 L 15.33,8.657 C 13.903,1.72 6.678,-2.36 0,0"
             style="fill:#ffcec0;fill-opacity:1;fill-rule:nonzero;stroke:none"
             id="path1187" /></g><g
           id="g1189"
           transform="translate(380.1802,252.3003)"><path
             d="m 0,0 -0.1,-0.47 c -1.42,-6.94 -8.65,-11.02 -15.33,-8.66 l -9.7,3.43 c -0.33,8.39 -4.99,16.2 -12.59,20.4 l -58.999,32.57 c -2.324,1.283 -4.328,3.075 -5.862,5.242 L -134.82,98.05 c -15.98,22.57 -41.28,34.62 -66.98,34.62 -6.83,0 -13.69,-0.85 -20.41,-2.59 14.08,9.58 30.11,14.18 46.01,14.18 25.7,0 51.01,-12.04 66.99,-34.61 L -74.64,60.82 -12.12,26.3 C -2.76,21.13 2.15,10.47 0,0"
             style="fill:#fdb0a0;fill-opacity:1;fill-rule:nonzero;stroke:none"
             id="path1191" /></g><g
           id="g1193"
           transform="translate(148.375,374.7529)"><path
             d="m 0,0 c -21.785,-20.101 -30.586,-50.073 -24.36,-78.03 5.11,-22.943 1.7,-46.966 -8.786,-68.002 0,0 -21.016,-31.25 -29.486,-45.474 -3.644,-6.12 -0.862,-14.039 5.911,-16.577 14.484,-5.428 30.817,-1.015 40.597,10.969 l 20.572,25.209 c 9.047,11.086 26.648,9.006 32.706,-3.958 0.029,-0.062 0.057,-0.123 0.085,-0.184 11.574,-25.068 32.385,-77.015 41.153,-99.095 2.291,-5.769 8.694,-8.733 14.577,-6.752 l 0.427,0.144 c 12.362,4.162 19.271,17.304 15.69,29.847 l -27.006,94.595 64.904,-94.681 c 3.686,-5.377 11.06,-6.695 16.38,-2.928 l 1.258,0.891 c 10.393,7.359 13.385,21.471 6.873,32.415 l -53.373,89.703 77.431,-67.442 c 5.021,-4.374 12.677,-3.67 16.816,1.546 8.076,10.176 6.772,24.893 -2.969,33.49 l -66.537,58.722 73.515,-25.986 c 6.678,-2.361 13.903,1.719 15.33,8.657 l 0.096,0.467 c 2.154,10.473 -2.755,21.128 -12.115,26.297 l -62.524,34.526 -34.574,48.824 C 101.569,16.881 64.416,28.344 31.454,18.147"
             style="fill:none;stroke:#000000;stroke-width:15;stroke-linecap:round;stroke-linejoin:round;stroke-miterlimit:10;stroke-dasharray:none;stroke-opacity:1"
             id="path1195" /></g></g></g></g></svg>
