<?xml version="1.0" encoding="UTF-8"?>
<svg xmlns="http://www.w3.org/2000/svg" xmlns:xlink="http://www.w3.org/1999/xlink" version="1.1" id="Capa_1" x="0px" y="0px" viewBox="0 0 512.003 512.003" style="enable-background:new 0 0 512.003 512.003;" xml:space="preserve" width="512" height="512">
<g>
	<g>
		<path style="fill:#FFE177;" d="M116.594,5.747l52.222,8.059c3.863,0.596,6.74,4.291,6.74,8.655v0.209&#10;&#9;&#9;&#9;c0,4.364-2.877,8.059-6.74,8.655l-51.619,7.966c-2.404,0.371-4.546-1.719-4.546-4.435V9.594&#10;&#9;&#9;&#9;C112.651,7.239,114.51,5.426,116.594,5.747z"/>
		<rect x="40.931" y="145.324" style="fill:#FFE177;" width="140.517" height="150.675"/>
		<rect x="165.415" y="143.297" style="fill:#FFD15B;" width="18.956" height="154.241"/>
		<path style="fill:#C1E9AF;" d="M189.016,146.942l-13.459,2H30.286c-3.411,0-4.775-4.407-1.959-6.333l68.986-47.193l13.379-7.153&#10;&#9;&#9;&#9;c1.181-0.808,2.737-0.808,3.918,0l76.365,52.346C193.791,142.535,192.428,146.942,189.016,146.942z"/>
		<path style="fill:#C59191;" d="M148.77,220.661c0,21.025-15.094,35.824-36.119,35.824c-12.912,0-22.804-5.556-29.688-15.387&#10;&#9;&#9;&#9;c-1.485-2.121-4.279-3.028-5.312-5.436c-1.975-4.603-3.069-9.674-3.069-15.001c0-21.025,17.044-38.069,38.069-38.069&#10;&#9;&#9;&#9;c5.256,0,10.264,1.065,14.818,2.992c1.708,0.722,2.279,1.883,3.849,2.837C142.307,195.098,148.77,206.864,148.77,220.661z"/>
		<path style="fill:#B98080;" d="M150.739,220.757c0,21.03-17.05,38.07-38.07,38.07c-15.7,0-29.198-9.595-35.018-23.165&#10;&#9;&#9;&#9;c4.6,1.98,9.698,3.165,15.018,3.165c21.02,0,38.07-17.04,38.07-38.07c0-5.33-1.273-10.478-3.253-15.078&#10;&#9;&#9;&#9;C141.046,191.5,150.739,205.057,150.739,220.757z"/>
		<rect x="50.004" y="297.538" style="fill:#B98080;" width="25.922" height="180.173"/>
		<rect x="149.375" y="297.538" style="fill:#B98080;" width="25.922" height="180.173"/>
		<path style="fill:#C59191;" d="M331.369,315.192l-29.309,2H29.529c-1.952,0-3.535-1.791-3.535-4v-17.298c0-2.209,1.583-4,3.535-4&#10;&#9;&#9;&#9;H302.06l29.309,2c1.952,0,3.535,1.791,3.535,4v13.298C334.904,313.402,333.321,315.192,331.369,315.192z"/>
		<path style="fill:#B98080;" d="M333.369,291.894H302.06v25.299h31.309c1.952,0,3.535-1.791,3.535-4v-17.299&#10;&#9;&#9;&#9;C336.904,293.685,335.321,291.894,333.369,291.894z"/>
		<rect x="324.443" y="191.514" style="fill:#C59191;" width="26.922" height="283.1"/>
		<rect x="458.185" y="191.514" style="fill:#C59191;" width="26.922" height="283.1"/>
		<path style="fill:#FFE177;" d="M209.153,401.151c0-23.314,18.968-42.281,42.281-42.281c7.075,0,13.747,1.751,19.613,4.836&#10;&#9;&#9;&#9;c2.587,1.36,2.84,3.772,5.077,5.618c9.407,7.761,14.71,18.708,14.71,31.828c0,23.314-16.086,40.656-39.4,40.656&#10;&#9;&#9;&#9;c-13.323,0-23.877-5.824-31.632-15.484c-1.697-2.114-4.541-3.142-5.813-5.56C210.905,414.898,209.153,408.226,209.153,401.151z&#10;&#9;&#9;&#9; M234.365,401.151c0,9.412,7.657,17.069,17.069,17.069s17.069-7.657,17.069-17.069c0-9.412-7.657-17.069-17.069-17.069&#10;&#9;&#9;&#9;S234.365,391.739,234.365,401.151z"/>
		<g>
			<path style="fill:#FFD15B;" d="M271.047,363.706c3.085,5.866,4.838,12.54,4.838,19.615c0,11.409-4.55,21.77-11.922,29.384&#10;&#9;&#9;&#9;&#9;c-0.312,0.338-0.637,0.663-0.976,0.976c-7.614,7.371-17.975,11.922-29.384,11.922c-7.075,0-13.749-1.753-19.615-4.838&#10;&#9;&#9;&#9;&#9;c7.081,13.464,21.207,22.669,37.445,22.669c23.314,0,42.281-18.967,42.281-42.281&#10;&#9;&#9;&#9;&#9;C293.716,384.912,284.511,370.787,271.047,363.706z"/>
		</g>
		<circle style="fill:#C1E9AF;" cx="337.904" cy="191.514" r="16.126"/>
		<circle style="fill:#C1E9AF;" cx="471.646" cy="191.514" r="16.126"/>
		<path style="fill:#C1E9AF;" d="M11.5,469.429h393.278l93.722,2c2.209,0,4,1.791,4,4v23.072c0,2.209-1.791,4-4,4l-93.722,2H11.5&#10;&#9;&#9;&#9;c-2.209,0-4-1.791-4-4v-27.072C7.5,471.22,9.291,469.429,11.5,469.429z"/>
		<path style="fill:#ADE194;" d="M165.415,148.942h29.601c3.411,0,4.775-4.407,1.959-6.333L114.61,86.263&#10;&#9;&#9;&#9;c-1.181-0.808-2.737-0.808-3.918,0l-18.45,12.622L165.415,148.942z"/>
		<path style="fill:#ADE194;" d="M500.5,469.429h-95.722v35.072H500.5c2.209,0,4-1.791,4-4v-27.072&#10;&#9;&#9;&#9;C504.5,471.22,502.709,469.429,500.5,469.429z"/>
	</g>
	<g>
		
			<line style="fill:none;stroke:#000000;stroke-width:15;stroke-linecap:round;stroke-linejoin:round;stroke-miterlimit:10;" x1="140.553" y1="504.501" x2="7.503" y2="504.501"/>
		
			<line style="fill:none;stroke:#000000;stroke-width:15;stroke-linecap:round;stroke-linejoin:round;stroke-miterlimit:10;" x1="504.503" y1="504.501" x2="175.553" y2="504.501"/>
		
			<line style="fill:none;stroke:#000000;stroke-width:15;stroke-linecap:round;stroke-linejoin:round;stroke-miterlimit:10;" x1="504.5" y1="469.429" x2="7.5" y2="469.429"/>
		
			<line style="fill:none;stroke:#000000;stroke-width:15;stroke-linecap:round;stroke-linejoin:round;stroke-miterlimit:10;" x1="231.325" y1="235.098" x2="231.325" y2="290.356"/>
		
			<line style="fill:none;stroke:#000000;stroke-width:15;stroke-linecap:round;stroke-linejoin:round;stroke-miterlimit:10;" x1="249.37" y1="318.227" x2="249.37" y2="357.324"/>
		
			<line style="fill:none;stroke:#000000;stroke-width:15;stroke-linecap:round;stroke-linejoin:round;stroke-miterlimit:10;" x1="40.933" y1="174.011" x2="40.933" y2="150.421"/>
		
			<line style="fill:none;stroke:#000000;stroke-width:15;stroke-linecap:round;stroke-linejoin:round;stroke-miterlimit:10;" x1="40.933" y1="291.031" x2="40.933" y2="209.011"/>
		
			<line style="fill:none;stroke:#000000;stroke-width:15;stroke-linecap:round;stroke-linejoin:round;stroke-miterlimit:10;" x1="184.371" y1="151.259" x2="184.371" y2="290.872"/>
		<path style="fill:none;stroke:#000000;stroke-width:15;stroke-linecap:round;stroke-linejoin:round;stroke-miterlimit:10;" d="&#10;&#9;&#9;&#9;M195.016,148.942H30.286c-3.411,0-4.775-4.407-1.959-6.333l82.365-56.346c1.181-0.808,2.737-0.808,3.918,0l82.365,56.346&#10;&#9;&#9;&#9;C199.791,144.535,198.428,148.942,195.016,148.942z"/>
		<path style="fill:none;stroke:#000000;stroke-width:15;stroke-linecap:round;stroke-linejoin:round;stroke-miterlimit:10;" d="&#10;&#9;&#9;&#9;M112.651,84.757V10.971c0-2.105,1.859-3.725,3.944-3.437l52.222,7.201c3.863,0.533,6.74,3.834,6.74,7.733v0.186&#10;&#9;&#9;&#9;c0,3.899-2.877,7.201-6.74,7.733l-53.58,7.388"/>
		
			<circle style="fill:none;stroke:#000000;stroke-width:15;stroke-linecap:round;stroke-linejoin:round;stroke-miterlimit:10;" cx="112.651" cy="220.661" r="38.069"/>
		
			<line style="fill:none;stroke:#000000;stroke-width:15;stroke-linecap:round;stroke-linejoin:round;stroke-miterlimit:10;" x1="50.004" y1="468.034" x2="50.004" y2="318.485"/>
		
			<line style="fill:none;stroke:#000000;stroke-width:15;stroke-linecap:round;stroke-linejoin:round;stroke-miterlimit:10;" x1="75.927" y1="318.227" x2="75.927" y2="468.034"/>
		
			<line style="fill:none;stroke:#000000;stroke-width:15;stroke-linecap:round;stroke-linejoin:round;stroke-miterlimit:10;" x1="149.375" y1="468.034" x2="149.375" y2="318.227"/>
		
			<line style="fill:none;stroke:#000000;stroke-width:15;stroke-linecap:round;stroke-linejoin:round;stroke-miterlimit:10;" x1="175.298" y1="318.485" x2="175.298" y2="468.034"/>
		
			<line style="fill:none;stroke:#000000;stroke-width:15;stroke-linecap:round;stroke-linejoin:round;stroke-miterlimit:10;" x1="76.769" y1="358.864" x2="148.533" y2="358.864"/>
		
			<line style="fill:none;stroke:#000000;stroke-width:15;stroke-linecap:round;stroke-linejoin:round;stroke-miterlimit:10;" x1="184.371" y1="234.033" x2="324.443" y2="234.033"/>
		
			<line style="fill:none;stroke:#000000;stroke-width:15;stroke-linecap:round;stroke-linejoin:round;stroke-miterlimit:10;" x1="277.488" y1="235.098" x2="277.488" y2="290.356"/>
		
			<line style="fill:none;stroke:#000000;stroke-width:15;stroke-linecap:round;stroke-linejoin:round;stroke-miterlimit:10;" x1="76.769" y1="398.74" x2="148.533" y2="398.74"/>
		
			<line style="fill:none;stroke:#000000;stroke-width:15;stroke-linecap:round;stroke-linejoin:round;stroke-miterlimit:10;" x1="76.769" y1="438.616" x2="148.533" y2="438.616"/>
		<path style="fill:none;stroke:#000000;stroke-width:15;stroke-linecap:round;stroke-linejoin:round;stroke-miterlimit:10;" d="&#10;&#9;&#9;&#9;M322.705,317.192H29.529c-1.952,0-3.535-1.791-3.535-4v-17.298c0-2.209,1.583-4,3.535-4h293.177"/>
		
			<line style="fill:none;stroke:#000000;stroke-width:15;stroke-linecap:round;stroke-linejoin:round;stroke-miterlimit:10;" x1="351.365" y1="201.517" x2="351.365" y2="468.034"/>
		
			<polyline style="fill:none;stroke:#000000;stroke-width:15;stroke-linecap:round;stroke-linejoin:round;stroke-miterlimit:10;" points="&#10;&#9;&#9;&#9;324.443,201.515 324.443,234.031 324.443,357.321 &#9;&#9;"/>
		
			<line style="fill:none;stroke:#000000;stroke-width:15;stroke-linecap:round;stroke-linejoin:round;stroke-miterlimit:10;" x1="324.443" y1="468.031" x2="324.443" y2="392.321"/>
		
			<line style="fill:none;stroke:#000000;stroke-width:15;stroke-linecap:round;stroke-linejoin:round;stroke-miterlimit:10;" x1="458.185" y1="467.743" x2="458.185" y2="201.329"/>
		
			<line style="fill:none;stroke:#000000;stroke-width:15;stroke-linecap:round;stroke-linejoin:round;stroke-miterlimit:10;" x1="485.103" y1="467.741" x2="485.103" y2="273.501"/>
		
			<line style="fill:none;stroke:#000000;stroke-width:15;stroke-linecap:round;stroke-linejoin:round;stroke-miterlimit:10;" x1="485.103" y1="238.501" x2="485.103" y2="201.324"/>
		<path style="fill:none;stroke:#000000;stroke-width:15;stroke-linecap:round;stroke-linejoin:round;stroke-miterlimit:10;" d="&#10;&#9;&#9;&#9;M249.373,358.871c-23.32,0-42.28,18.97-42.28,42.28c0,23.31,18.96,42.28,42.28,42.28c23.31,0,42.28-18.97,42.28-42.28&#10;&#9;&#9;&#9;C291.653,377.841,272.683,358.871,249.373,358.871z M249.373,418.221c-9.41,0-17.07-7.66-17.07-17.07&#10;&#9;&#9;&#9;c0-9.41,7.66-17.07,17.07-17.07c9.41,0,17.07,7.66,17.07,17.07C266.443,410.561,258.783,418.221,249.373,418.221z"/>
		<path style="fill:none;stroke:#000000;stroke-width:15;stroke-linecap:round;stroke-linejoin:round;stroke-miterlimit:10;" d="&#10;&#9;&#9;&#9;M352.199,234.033c16.022,7.098,36.554,7.098,52.576,0"/>
		<path style="fill:none;stroke:#000000;stroke-width:15;stroke-linecap:round;stroke-linejoin:round;stroke-miterlimit:10;" d="&#10;&#9;&#9;&#9;M404.775,234.033c16.022,7.098,36.554,7.098,52.576,0"/>
		<path style="fill:none;stroke:#000000;stroke-width:15;stroke-linecap:round;stroke-linejoin:round;stroke-miterlimit:10;" d="&#10;&#9;&#9;&#9;M352.199,282.882c16.022,7.098,36.554,7.098,52.576,0"/>
		<path style="fill:none;stroke:#000000;stroke-width:15;stroke-linecap:round;stroke-linejoin:round;stroke-miterlimit:10;" d="&#10;&#9;&#9;&#9;M404.775,282.882c16.022,7.098,36.554,7.098,52.576,0"/>
		<path style="fill:none;stroke:#000000;stroke-width:15;stroke-linecap:round;stroke-linejoin:round;stroke-miterlimit:10;" d="&#10;&#9;&#9;&#9;M352.199,331.731c16.022,7.098,36.554,7.098,52.576,0"/>
		<path style="fill:none;stroke:#000000;stroke-width:15;stroke-linecap:round;stroke-linejoin:round;stroke-miterlimit:10;" d="&#10;&#9;&#9;&#9;M404.775,331.731c16.022,7.098,36.554,7.098,52.576,0"/>
		<path style="fill:none;stroke:#000000;stroke-width:15;stroke-linecap:round;stroke-linejoin:round;stroke-miterlimit:10;" d="&#10;&#9;&#9;&#9;M352.199,380.58c16.022,7.098,36.554,7.098,52.576,0"/>
		<path style="fill:none;stroke:#000000;stroke-width:15;stroke-linecap:round;stroke-linejoin:round;stroke-miterlimit:10;" d="&#10;&#9;&#9;&#9;M404.775,380.58c16.022,7.098,36.554,7.098,52.576,0"/>
		<path style="fill:none;stroke:#000000;stroke-width:15;stroke-linecap:round;stroke-linejoin:round;stroke-miterlimit:10;" d="&#10;&#9;&#9;&#9;M351.199,429.429c16.022,7.098,36.554,7.098,52.576,0"/>
		<path style="fill:none;stroke:#000000;stroke-width:15;stroke-linecap:round;stroke-linejoin:round;stroke-miterlimit:10;" d="&#10;&#9;&#9;&#9;M403.775,429.429c16.022,7.098,36.554,7.098,52.576,0"/>
		
			<line style="fill:none;stroke:#000000;stroke-width:15;stroke-linecap:round;stroke-linejoin:round;stroke-miterlimit:10;" x1="404.775" y1="234.033" x2="404.775" y2="429.429"/>
		
			<circle style="fill:none;stroke:#000000;stroke-width:15;stroke-linecap:round;stroke-linejoin:round;stroke-miterlimit:10;" cx="337.904" cy="191.514" r="16.126"/>
		
			<circle style="fill:none;stroke:#000000;stroke-width:15;stroke-linecap:round;stroke-linejoin:round;stroke-miterlimit:10;" cx="471.646" cy="191.514" r="16.126"/>
	</g>
</g>















</svg>
