<?xml version="1.0" encoding="UTF-8"?>
<svg xmlns="http://www.w3.org/2000/svg" xmlns:xlink="http://www.w3.org/1999/xlink" version="1.1" id="Capa_1" x="0px" y="0px" viewBox="0 0 512 512" style="enable-background:new 0 0 512 512;" xml:space="preserve" width="512" height="512">
<g>
	<path style="fill-rule:evenodd;clip-rule:evenodd;fill:#9BE69D;" d="M492.987,308.59v171.414c0,13.488-11.065,24.496-24.559,24.496&#10;&#9;&#9;H296.57v-53.811c24.445,0,44.258-19.762,44.258-44.144s-19.813-44.144-44.258-44.144V308.59h53.95&#10;&#9;&#9;c0-24.382,19.813-44.144,44.258-44.144c24.445,0,44.258,19.762,44.258,44.144H492.987z"/>
	<path style="fill-rule:evenodd;clip-rule:evenodd;fill:#CB97E7;" d="M492.987,137.176V308.59h-53.95&#10;&#9;&#9;c0-24.382-19.813-44.144-44.258-44.144c-24.445,0-44.258,19.762-44.258,44.144h-53.95v-53.782&#10;&#9;&#9;c-24.445,0-44.258-19.762-44.258-44.172c0-24.382,19.813-44.144,44.258-44.144v-53.782h171.858&#10;&#9;&#9;C481.923,112.709,492.987,123.717,492.987,137.176L492.987,137.176z"/>
	<path style="fill-rule:evenodd;clip-rule:evenodd;fill:#FE646F;" d="M340.828,406.545c0,24.382-19.813,44.144-44.258,44.144V504.5&#10;&#9;&#9;H124.712c-13.495,0-24.559-11.007-24.559-24.496V308.59h53.95c0,24.382,19.813,44.144,44.258,44.144s44.258-19.762,44.258-44.144&#10;&#9;&#9;h53.95v53.811C321.015,362.401,340.828,382.163,340.828,406.545L340.828,406.545z"/>
	<path style="fill-rule:evenodd;clip-rule:evenodd;fill:#6FD7A3;" d="M460.537,308.59v171.414c0,13.488-11.065,24.496-24.559,24.496&#10;&#9;&#9;h32.45c13.495,0,24.559-11.007,24.559-24.496V308.59H460.537z"/>
	<path style="fill-rule:evenodd;clip-rule:evenodd;fill:#BD80E1;" d="M460.537,137.176V308.59h32.45V137.176&#10;&#9;&#9;c0-13.46-11.065-24.467-24.559-24.467h-32.393C449.501,112.738,460.537,123.745,460.537,137.176L460.537,137.176z"/>
	<path style="fill-rule:evenodd;clip-rule:evenodd;fill:#FFE177;" d="M189.041,131.701c-5.375,23.783,9.578,47.423,33.422,52.784&#10;&#9;&#9;l-11.894,52.471l-52.607-11.863c-5.375,23.783-29.077,38.726-52.921,33.336c-23.845-5.361-38.826-29.001-33.422-52.784&#10;&#9;&#9;l-52.607-11.863L56.895,26.589C59.869,13.443,73.077,5.116,86.229,8.11l167.655,37.785l-11.894,52.471&#10;&#9;&#9;C218.146,92.976,194.444,107.918,189.041,131.701L189.041,131.701z"/>
	<path style="fill-rule:evenodd;clip-rule:evenodd;fill:#FFD15B;" d="M220.147,77.463c-69.675,5.532-79.482,88.858-26.561,116.234&#10;&#9;&#9;l-8.491,37.528l25.474,5.732l11.894-52.471c-23.845-5.361-38.797-29.001-33.422-52.784c5.404-23.783,29.105-38.726,52.95-33.336&#10;&#9;&#9;l11.894-52.471l-25.503-5.76L220.147,77.463z"/>
	<path style="fill:none;stroke:#000000;stroke-width:15;stroke-linecap:round;stroke-linejoin:round;stroke-miterlimit:10;" d="&#10;&#9;&#9;M398.381,112.709h70.047c13.495,0,24.559,11.007,24.559,24.467V308.59h-53.95c0-24.382-19.813-44.144-44.258-44.144&#10;&#9;&#9;c-24.445,0-44.258,19.762-44.258,44.144h-53.95v-53.782c-24.445,0-44.258-19.762-44.258-44.172&#10;&#9;&#9;c0-24.382,19.813-44.144,44.258-44.144v-53.782h66.873"/>
	<path style="fill:none;stroke:#000000;stroke-width:15;stroke-linecap:round;stroke-linejoin:round;stroke-miterlimit:10;" d="&#10;&#9;&#9;M492.987,308.59v171.414c0,13.488-11.065,24.496-24.559,24.496H296.57v-53.811c24.445,0,44.258-19.762,44.258-44.144&#10;&#9;&#9;s-19.813-44.144-44.258-44.144V308.59h53.95c0-24.382,19.813-44.144,44.258-44.144c24.445,0,44.258,19.762,44.258,44.144H492.987z"/>
	<path style="fill:none;stroke:#000000;stroke-width:15;stroke-linecap:round;stroke-linejoin:round;stroke-miterlimit:10;" d="&#10;&#9;&#9;M100.153,386.926V308.59h53.95c0,24.382,19.813,44.144,44.258,44.144s44.258-19.762,44.258-44.144h53.95v53.811&#10;&#9;&#9;c24.445,0,44.258,19.762,44.258,44.144s-19.813,44.144-44.258,44.144V504.5H124.712c-13.495,0-24.559-11.007-24.559-24.496v-58.26"/>
	<path style="fill:none;stroke:#000000;stroke-width:15;stroke-linecap:round;stroke-linejoin:round;stroke-miterlimit:10;" d="&#10;&#9;&#9;M189.041,131.701c-5.375,23.783,9.578,47.423,33.422,52.784l-11.894,52.471l-52.607-11.863&#10;&#9;&#9;c-5.375,23.783-29.077,38.726-52.921,33.336c-23.845-5.361-38.826-29.001-33.422-52.784l-52.607-11.863L56.895,26.589&#10;&#9;&#9;C59.869,13.443,73.077,5.116,86.229,8.11l167.655,37.785l-11.894,52.471C218.146,92.976,194.444,107.918,189.041,131.701&#10;&#9;&#9;L189.041,131.701z"/>
</g>















</svg>
