<svg height="512pt" viewBox="0 -26 512.00053 512" width="512pt" xmlns="http://www.w3.org/2000/svg"><path d="m502.210938 248.015625c-10.140626-6.804687-14.929688-19.070313-20.003907-32.054687-6.195312-15.859376-13.214843-33.835938-31.347656-44.953126-8.6875-5.328124-18.015625-7.707031-27.71875-7.074218-16.488281 1.074218-30.578125 10.707031-37.910156 16.761718 10.363281 5.375 17.074219 13.816407 22.195312 24.476563 20.996094.574219 31.605469 18.097656 36.160157 28.90625 5.660156 13.441406 17.035156 29.160156 39.070312 27.726563 5.957031-.390626 12.25-1.984376 18.707031-4.738282 1.742188-.746094 2.933594-2.386718 3.113281-4.273437.175782-1.886719-.691406-3.722657-2.265624-4.777344zm0 0" fill="#ffc987"/><path d="m450.859375 171.007812c-8.6875-5.328124-18.015625-7.707031-27.71875-7.074218-16.488281 1.074218-30.578125 10.707031-37.910156 16.761718 6.925781 3.59375 12.226562 8.554688 16.503906 14.632813 7.597656-6.0625 21.101563-14.8125 36.765625-15.832031 9.707031-.632813 19.03125 1.746094 27.71875 7.074218.871094.535157 1.707031 1.089844 2.53125 1.65625-4.484375-6.519531-10.179688-12.492187-17.890625-17.21875zm0 0" fill="#e5b579"/><path d="m204.191406 171.457031c0-2.761719 2.242188-5 5-5h19.726563l-51-118.246093c-5.1875-12.035157-14.714844-20.847657-25.953125-25.417969.421875 6.5625-1.007813 13.316406-4.539063 19.441406-2.199219 3.8125-5.027343 7.03125-8.261719 9.632813 2.300782 2.359374 4.347657 5.039062 6.070313 8.023437 1.445313 2.511719 2.585937 5.113281 3.445313 7.761719h.269531l41.320312 106.46875h13.921875zm0 0" fill="#775436"/><path d="m70.617188 56.46875 19.605468-11.332031c7.0625-4.082031 14.847656-5.769531 22.421875-5.332031.328125-5.136719 1.800781-10.28125 4.546875-15.042969 2.507813-4.347657 5.828125-7.933594 9.644532-10.695313-6.078126-2.503906-13.777344-4.695312-22.160157-4.695312-6.574219 0-12.90625 1.335937-18.816406 3.964844-17.191406 7.648437-30.214844 13.402343-38.117187 16.878906-1.523438.671875-2.632813 2.039062-2.976563 3.671875-.339844 1.632812.125 3.328125 1.253906 4.558593 5.003907 5.441407 13.570313 13.328126 24.597657 18.023438zm0 0" fill="#775436"/><path d="m70.617188 56.46875 19.605468-11.332031c3.628906-2.097657 7.445313-3.550781 11.328125-4.421875-11.226562-4.671875-19.941406-12.683594-25.003906-18.191406-1.113281-1.210938-1.578125-2.875-1.265625-4.484376-12.011719 5.328126-21.351562 9.453126-27.539062 12.175782-1.523438.671875-2.632813 2.039062-2.976563 3.671875-.339844 1.632812.125 3.328125 1.253906 4.558593 5.003907 5.441407 13.570313 13.328126 24.597657 18.023438zm0 0" fill="#6b4b30"/><path d="m67.898438 151.144531 19.847656-11.472656 18.933594 103.714844c4.175781 20.59375-33.554688 107.359375-43.929688 130.65625 11.167969 6.40625 23.039062 12.210937 35.46875 17.398437l65.578125-84.441406h189.089844c.148437 0 49.164062 55.808594 70.847656 80.507812 11.265625-5.09375 22.019531-10.714843 32.15625-16.84375-5.304687-20.652343-24.949219-89.136718-36.40625-129.867187-10.855469-38.605469-18.929687-66.675781-66.601563-66.675781h-6.195312v40.925781c0 17.847656-14.503906 32.367187-32.332031 32.367187h-77.832031c-17.828126 0-32.332032-14.519531-32.332032-32.367187v-40.925781h-13.921875l-41.320312-106.46875h-.269531c-.859376-2.648438-2-5.25-3.445313-7.757813-1.722656-2.988281-3.769531-5.667969-6.070313-8.027343 3.234376-2.601563 6.058594-5.820313 8.261719-9.632813 6.421875-11.140625 5.933594-24.371094-.125-34.734375-11.992187-.070312-23.683593 6.121094-30.109375 17.261719-2.746094 4.761719-4.21875 9.90625-4.542968 15.042969-7.578126-.4375-15.359376 1.25-22.425782 5.332031l-62.59375 36.179687c-19.265625 11.132813-25.863281 35.789063-14.742187 55.074219 11.121093 19.28125 35.75 25.886719 55.011719 14.753906zm0 0" fill="#c6a07d"/><path d="m98.21875 391.441406 15.460938-19.910156c-14.679688-5.328125-28.667969-11.496094-41.8125-18.433594-3.777344 8.871094-7.011719 16.214844-9.121094 20.945313 11.171875 6.40625 23.039062 12.210937 35.472656 17.398437zm0 0" fill="#775436"/><path d="m455.886719 370.664062c-1.285157-5.007812-3.414063-12.828124-6.066407-22.382812-13.328124 7.621094-27.644531 14.390625-42.730468 20.273438 6.289062 7.160156 12.074218 13.746093 16.644531 18.953124 11.265625-5.09375 22.015625-10.714843 32.152344-16.84375zm0 0" fill="#775436"/><path d="m242.960938 247.414062v59.585938h64.957031v-59.585938zm0 0" fill="#ffca51"/><path d="m242.960938 247.414062v59.585938h23.03125v-59.585938zm0 0" fill="#e5b549"/><path d="m31.71875 78.949219-4.089844 2.367187c-19.265625 11.132813-25.863281 35.789063-14.742187 55.074219 11.121093 19.28125 35.75 25.886719 55.011719 14.753906l4.089843-2.363281zm0 0" fill="#ffc987"/><path d="m236.523438 247.414062c-17.828126 0-32.332032-14.519531-32.332032-32.367187v-43.589844c0-2.761719 2.242188-5 5-5h132.496094c2.761719 0 5 2.238281 5 5v43.589844c0 17.847656-14.503906 32.367187-32.332031 32.367187zm0 0" fill="#fb8276"/><path d="m228.140625 166.457031v48.589844c0 4.628906 3.761719 8.394531 8.382813 8.394531h77.832031c4.625 0 8.382812-3.765625 8.382812-8.394531v-48.589844zm0 0" fill="#ffca51"/><path d="m258.992188 215.046875v-48.589844h-30.851563v48.589844c0 4.628906 3.761719 8.394531 8.382813 8.394531h30.851562c-4.621094 0-8.382812-3.765625-8.382812-8.394531zm0 0" fill="#e5b549"/><path d="m256.445312 453.414062c-91.855468 0-179.566406-26.316406-240.632812-72.207031-1.140625-.855469-1.886719-2.132812-2.070312-3.542969-.1875-1.410156.203124-2.839843 1.082031-3.960937l13.089843-16.6875c1.042969-1.335937 2.601563-2.035156 4.179688-2.035156 1.105469 0 2.222656.347656 3.175781 1.0625 55.632813 41.671875 136.246094 65.574219 221.175781 65.574219 84.929688 0 165.542969-23.902344 221.175782-65.574219.953125-.714844 2.070312-1.0625 3.179687-1.0625 1.574219 0 3.132813.699219 4.179688 2.035156l13.085937 16.6875c.878906 1.121094 1.269532 2.550781 1.082032 3.960937-.183594 1.410157-.929688 2.691407-2.070313 3.542969-61.070313 45.890625-148.777344 72.207031-240.632813 72.207031zm0 0" fill="#ffc987"/><path d="m191.988281 443.746094c-55.515625-11.5-105.984375-32.941406-145.371093-62.535156-1.140626-.855469-1.886719-2.136719-2.070313-3.546876-.1875-1.410156.203125-2.835937 1.082031-3.957031l5.335938-6.804687c-5.421875-3.476563-10.664063-7.089844-15.695313-10.859375-.953125-.714844-2.070312-1.058594-3.179687-1.058594-1.574219 0-3.132813.699219-4.179688 2.03125l-13.085937 16.691406c-.878907 1.121094-1.269531 2.546875-1.085938 3.957031.1875 1.410157.933594 2.691407 2.074219 3.546876 46.558594 34.984374 108.613281 58.570312 176.175781 67.8125zm0 0" fill="#e5b579"/><path d="m191.988281 416.945312v32.085938c21.054688 2.882812 42.632813 4.382812 64.457031 4.382812 21.507813 0 42.78125-1.460937 63.546876-4.257812v-32.074219c-20.679688 2.984375-41.972657 4.535157-63.546876 4.535157-21.890624 0-43.492187-1.601563-64.457031-4.671876zm0 0" fill="#c6a07d"/><path d="m25.234375 112.296875c-3.585937 2.074219-4.816406 6.660156-2.746094 10.246094l5 8.660156c1.390625 2.40625 3.910157 3.753906 6.503907 3.753906 1.269531 0 2.5625-.324219 3.742187-1.007812 3.585937-2.070313 4.816406-6.65625 2.746094-10.246094l-5-8.660156c-2.074219-3.589844-6.660157-4.816407-10.246094-2.746094zm0 0"/><path d="m101.449219 71.355469c-4.144531 0-7.5 3.359375-7.5 7.5v6.371093c0 4.140626 3.355469 7.5 7.5 7.5 4.140625 0 7.5-3.359374 7.5-7.5v-6.371093c0-4.140625-3.359375-7.5-7.5-7.5zm0 0"/><path d="m506.390625 241.789062c-8.1875-5.5-12.363281-16.183593-17.199219-28.5625-6.296875-16.117187-14.132812-36.179687-34.410156-48.613281-10.007812-6.136719-20.863281-8.902343-32.128906-8.167969-15.96875 1.042969-29.738282 9.046876-38.40625 15.496094-8.289063-3.386718-18.429688-5.285156-31.03125-5.316406-1.894532-4.5-6.347656-7.667969-11.527344-7.667969h-107.835938l-49.046874-113.71875c-5.261719-12.203125-14.558594-21.804687-25.933594-27.542969-.851563-4.859374-2.535156-9.597656-5.097656-13.980468-1.335938-2.285156-3.78125-3.6953128-6.425782-3.714844-7.652344-.0625-15.015625 1.984375-21.40625 5.710938-6.132812-2.160157-13.414062-3.839844-21.265625-3.839844-7.632812 0-14.992187 1.554687-21.867187 4.613281-17.425782 7.753906-30.332032 13.449219-38.089844 16.867187-3.734375 1.640626-6.457031 5.007813-7.296875 9.003907-.832031 3.992187.316406 8.164062 3.078125 11.167969 3.488281 3.796874 8.5625 8.664062 14.945312 13.050781l-31.570312 18.25c-22.808594 13.179687-30.652344 42.480469-17.484375 65.3125 6.378906 11.0625 16.679687 18.972656 29.003906 22.28125 12.332031 3.308593 25.207031 1.609375 36.257813-4.78125l10.628906-6.144531 17.019531 93.238281c.007813.050781.015625.097656.027344.144531.605469 2.988281.875 17.066406-21.0625 72.878906-6.921875 17.617188-14.09375 34.390625-18.960937 45.515625-6.804688-4.183593-13.335938-8.585937-19.53125-13.226562-2.234376-1.675781-4.890626-2.5625-7.679688-2.5625-3.964844 0-7.640625 1.789062-10.082031 4.90625l-13.089844 16.691406c-2.109375 2.691406-3.0625 6.175781-2.617187 9.5625.445312 3.390625 2.269531 6.511719 5 8.566406 62.34375 46.839844 151.691406 73.707031 245.140624 73.707031 49.914063 0 100.019532-7.828124 144.902344-22.636718 3.933594-1.296875 6.070313-5.539063 4.769532-9.472656-1.296876-3.933594-5.535157-6.070313-9.472657-4.773438-21.96875 7.25-45.25 12.761719-69.152343 16.441406v-16.945312c58.617187-9.359375 112.109374-30.175782 152.902343-60.203125l10.375 13.230469c-18.1875 13.433593-38.957031 25.257812-61.761719 35.164062-3.800781 1.652344-5.539062 6.066406-3.890624 9.867188 1.648437 3.800781 6.066406 5.542968 9.867187 3.890624 24.636719-10.699218 47.042969-23.578124 66.597656-38.269531 2.730469-2.054687 4.554688-5.175781 5.003907-8.566406.445312-3.386719-.511719-6.871094-2.617188-9.5625l-13.085938-16.6875c-2.445312-3.121094-6.121093-4.910156-10.085937-4.910156-2.789063 0-5.441406.886719-7.675781 2.558593-4.0625 3.042969-8.28125 5.980469-12.609375 8.828126-1.132813-4.164063-2.507813-9.152344-4.15625-15.082032-5.035157-18.109375-26.316407-93.164062-29.648438-105.015625-2.207031-7.84375-4.351562-15.46875-6.816406-22.644531 6.007813 3.355469 12.050781 9.628906 16.78125 20.863281 8.804687 20.902344 24.148437 32.410157 43.210937 32.410157 1.050782 0 2.132813-.035157 3.207032-.105469.019531 0 .039062-.003907.058594-.003907 6.804687-.445312 13.925781-2.238281 21.164062-5.328124 4.273438-1.828126 7.199219-5.835938 7.632812-10.46875.433594-4.628907-1.695312-9.113282-5.554687-11.703126zm-270.75-67.832031h79.597656v41.089844c0 .484375-.402343.894531-.882812.894531h-77.832031c-.480469 0-.882813-.410156-.882813-.894531zm.882813 56.984375h77.832031c8.757812 0 15.882812-7.128906 15.882812-15.894531v-41.089844h8.949219v41.089844c0 13.710937-11.140625 24.867187-24.832031 24.867187h-77.832031c-13.691407 0-24.832032-11.15625-24.832032-24.867187v-41.089844h8.949219v41.089844c0 8.765625 7.125 15.894531 15.882813 15.894531zm63.894531 23.972656v44.585938h-49.953125v-44.585938zm-246.609375-219.179687c7.921875-3.488281 19.761718-8.722656 35.097656-15.546875 4.945312-2.199219 10.25-3.316406 15.769531-3.316406 2.832031 0 5.582031.296875 8.199219.785156-.769531 1.085938-1.511719 2.195312-2.183594 3.359375-2.078125 3.605469-3.589844 7.421875-4.515625 11.398437-6.914062.605469-13.625 2.710938-19.707031 6.226563l-16.210938 9.371094c-6.808593-3.496094-12.449218-8.269531-16.449218-12.277344zm-14.527344 112.195313c-8.453125-2.269532-15.519531-7.699219-19.898438-15.289063-8.570312-14.859375-4.167968-33.703125 9.652344-43.328125l32.652344 56.617188c-6.996094 3.304687-14.851562 4.027343-22.40625 2zm36.3125 215.496093c8.347656 4.140625 17.023438 7.992188 25.9375 11.519531l-5.695312 7.339844c-8.097657-3.546875-15.9375-7.367187-23.46875-11.453125.980468-2.230469 2.0625-4.710937 3.226562-7.40625zm108.894531 76.9375c-62.121093-9.6875-118.984375-31.765625-162.371093-63.808593l10.378906-13.230469c40.582031 29.871093 93.734375 50.621093 151.992187 60.050781zm128.003907 2.164063c-18.5 2.230468-37.28125 3.386718-56.046876 3.386718-19.25 0-38.304687-1.179687-56.957031-3.457031v-16.921875c18.621094 2.359375 37.679688 3.582032 56.957031 3.582032 18.960938 0 37.71875-1.179688 56.046876-3.460938zm-56.046876-28.410156c-52.09375 0-102.480468-9.125-146.21875-25.914063l57.242188-73.703125h19.519531c4.144531 0 7.5-3.355469 7.5-7.5 0-4.140625-3.355469-7.5-7.5-7.5h-23.191406c-2.316406 0-4.503906 1.070312-5.925781 2.902344l-46.734375 60.179687c-10.246094-3.902343-20.167969-8.257812-29.648438-12.984375 3.402344-8.09375 7.09375-17.082031 10.71875-26.300781 22.582031-57.449219 23.300781-73.953125 21.835938-81.320313l-18.917969-103.652343c-.4375-2.398438-2.015625-4.4375-4.230469-5.460938-2.214843-1.023437-4.789062-.90625-6.902343.3125l-9.253907 5.351563-32.777343-56.832032 52.015624-30.066406c5.546876-3.207031 11.859376-4.707031 18.238282-4.335937 4.125.242187 7.65625-2.894531 7.917968-7.015625.265626-4.175782 1.460938-8.136719 3.554688-11.769532 4.082031-7.078124 11.148438-11.867187 19.082031-13.160156 2.851563 7.53125 2.242188 16.058594-1.84375 23.140625-1.664062 2.890625-3.839843 5.425781-6.460937 7.535157-1.644532 1.324218-2.65625 3.28125-2.785156 5.390624-.128907 2.109376.640624 4.171876 2.117187 5.6875 1.902344 1.953126 3.566406 4.152344 4.941406 6.539063 1.148438 1.988281 2.09375 4.117187 2.808594 6.324219.25.769531.613281 1.476562 1.070313 2.105468l8.1875 21.097657c1.5 3.859375 5.84375 5.777343 9.707031 4.277343s5.777343-5.84375 4.277343-9.707031l-8.847656-22.796875c-.207031-.535156-.472656-1.039062-.785156-1.5-.9375-2.527344-2.085938-4.976562-3.425781-7.296875-.738281-1.277343-1.53125-2.519531-2.382813-3.722656 1.722656-1.992187 3.25-4.144531 4.574219-6.4375 2.011719-3.488281 3.460937-7.199219 4.390625-11.011719 5.453125 4.128906 9.890625 9.648438 12.71875 16.207032l46.484375 107.777343h-8.320313c-5.179687 0-9.632812 3.164063-11.527343 7.664063h-2.265625l-17.804688-45.878906c-1.5-3.863282-5.839844-5.78125-9.707031-4.28125-3.859375 1.5-5.777344 5.847656-4.277344 9.707031l19.664063 50.667969c1.121094 2.886718 3.898437 4.789062 6.992187 4.789062h6.425781v33.425781c0 21.625 17.296876 39.269531 38.769532 39.839844v44.609375h-13.476563c-4.140625 0-7.5 3.359375-7.5 7.5 0 4.144531 3.359375 7.5 7.5 7.5h127.554688c8.296875 9.355469 39.15625 44.480469 61.769531 70.230469-45.683594 18.992187-99.296875 29.386719-154.867188 29.386719zm190.746094-47.035157c-6.90625 3.992188-14.089844 7.75-21.515625 11.269531-1.871093-2.132812-3.878906-4.421874-5.996093-6.828124 8.804687-3.742188 17.3125-7.785157 25.4375-12.089844.828124 3.019531 1.511718 5.539062 2.074218 7.648437zm-6.179687-22.476562c-10 5.449219-20.652344 10.480469-31.785157 15.015625-3.316406-3.773438-49.199218-55.902344-49.808593-56.582032-1.40625-1.578124-3.160157-3.539062-6.535157-3.539062h-37.464843v-44.613281c21.472656-.566407 38.769531-18.210938 38.769531-39.839844v-33.402344c40.980469.480469 47.457031 23.417969 58.078125 61.183594 3.335937 11.863281 23.59375 83.304687 28.746094 101.777344zm41.203125-90.289063c-.015625 0-.03125.003906-.046875.003906-14.144531.921876-24.800781-6.851562-31.667969-23.15625-10.382812-24.644531-26.722656-31.574218-38.304688-33.128906-3.660156-6.761718-8.113281-12.734375-13.851562-17.605468 6.765625-4.277344 15.605469-8.382813 25.285156-9.011719 8.125-.535157 15.972656 1.484375 23.308594 5.984375 15.984375 9.800781 22.234375 25.804687 28.28125 41.289062 4.746094 12.144532 9.636719 24.664063 19.390625 32.960938-4.296875 1.507812-8.453125 2.402344-12.394531 2.664062zm0 0"/></svg>