<svg id="Capa_1" enable-background="new 0 0 512 512" viewBox="0 0 512 512" xmlns="http://www.w3.org/2000/svg"><g><g><g><path d="m195.806 173.068-114.21-7.519c-3.893-.256-6.841-3.62-6.585-7.513l1.748-26.554c.256-3.893 3.62-6.841 7.513-6.585l114.21 7.519c3.893.256 6.841 3.62 6.585 7.513l-1.748 26.554c-.256 3.893-3.62 6.841-7.513 6.585z" fill="#62dbfb"/></g><g><path d="m167.731 251.847-67.803-4.464c-5.665-.373-10.164-4.908-10.493-10.575l-4.118-71.014 107.595 7.084-13.392 69.861c-1.069 5.575-6.124 9.481-11.789 9.108z" fill="#01c0fa"/></g><g><path d="m458.232 398.741h-404.464c-18.978 0-34.363-15.385-34.363-34.363v-45.05h473.189v45.05c0 18.978-15.384 34.363-34.362 34.363z" fill="#ff8f3e"/></g><g><path d="m497.057 319.328h-482.114c-4.111 0-7.443-3.332-7.443-7.443v-27.327c0-4.111 3.332-7.443 7.443-7.443h482.114c4.111 0 7.443 3.332 7.443 7.443v27.327c0 4.11-3.333 7.443-7.443 7.443z" fill="#cd7cbb"/></g><g><path d="m462.594 319.328v15.05c0 18.978-15.385 34.363-34.363 34.363h-404.463c-1.392 0-2.761-.093-4.11-.253 2.032 17.039 16.523 30.253 34.11 30.253h404.464c18.978 0 34.363-15.385 34.363-34.363v-45.05z" fill="#ff7e21"/></g><g><path d="m497.057 277.115h-30c4.111 0 7.443 3.332 7.443 7.443v27.326c0 4.111-3.332 7.443-7.443 7.443h30c4.111 0 7.443-3.333 7.443-7.443v-27.326c0-4.111-3.333-7.443-7.443-7.443z" fill="#c365af"/></g><g><path d="m256 188.324c-48.384 0-96.001 12.693-138.528 36.927l-91.013 51.864h459.082l-91.013-51.864c-42.527-24.234-90.144-36.927-138.528-36.927z" fill="#fddeb0"/></g><g><path d="m360.645 160.651-45.742-14.566c-4.3-1.369-6.676-5.966-5.307-10.266l5.369-16.86c1.369-4.3 5.966-6.676 10.266-5.307l45.742 14.566c4.3 1.369 6.676 5.966 5.307 10.266l-5.369 16.86c-1.369 4.3-5.965 6.676-10.266 5.307z" fill="#e7b9db"/></g><g><path d="m309.19 151.291h30.435v88.106h-30.435z" fill="#c365af" transform="matrix(.953 .303 -.303 .953 74.569 -89.227)"/></g><g><path d="m347.042 257.088c-.479-13.207-15.03-26.211-34.963-30.305-22.11-4.541-42.463 3.6-45.458 18.183-.833 4.055-.232 8.18 1.539 12.122z" fill="#fddeb0"/></g></g><g><path d="m497.057 269.615h-9.529l-58.612-33.4c-3.599-2.051-8.179-.796-10.229 2.803-2.051 3.599-.796 8.179 2.803 10.229l35.742 20.368h-402.464l66.417-37.848c41.264-23.514 87.882-35.943 134.814-35.943 14.453 0 28.994 1.191 43.292 3.517l-6.075 19.076c-10.844 1.194-20.43 5.242-26.708 11.681-2.892 2.965-2.832 7.714.134 10.605 2.965 2.892 7.713 2.832 10.605-.134 6.456-6.62 19.845-9.208 33.322-6.44 11.316 2.324 21.334 8.216 26.145 15.377 1.447 2.155 3.818 3.319 6.232 3.319 1.438 0 2.892-.413 4.175-1.275 3.438-2.31 4.354-6.969 2.043-10.408-2.934-4.368-6.975-8.319-11.783-11.677l6.068-19.056c14.602 4.992 28.891 11.25 42.517 18.66 1.138.619 2.366.913 3.576.913 2.66 0 5.236-1.418 6.596-3.918 1.979-3.639.633-8.193-3.006-10.172-14.459-7.863-29.629-14.495-45.131-19.776l9.142-28.708 1.224.39c1.567.499 3.174.747 4.773.747 2.47 0 4.921-.591 7.179-1.758 3.718-1.922 6.466-5.177 7.736-9.167l5.369-16.859c2.622-8.233-1.943-17.066-10.177-19.688l-45.742-14.566c-3.989-1.27-8.234-.911-11.952 1.012-3.719 1.922-6.466 5.178-7.736 9.166l-5.369 16.86c-2.622 8.233 1.944 17.065 10.178 19.688l1.224.39-9.962 31.283c-15.797-2.697-31.894-4.079-47.891-4.079-19.541 0-39.026 2.049-58.132 6.042l1.259-6.569c2.476-.491 4.794-1.618 6.743-3.326 2.925-2.564 4.677-6.114 4.933-9.996l1.749-26.555c.526-8.013-5.564-14.961-13.577-15.489l-114.21-7.519c-8.02-.534-14.962 5.562-15.49 13.576l-1.748 26.554c-.461 7.011 4.143 13.208 10.67 15.001l3.73 64.33-57.455 32.741h-9.529c-8.237-.002-14.94 6.701-14.94 14.941v27.327c0 7.199 5.117 13.224 11.905 14.632v37.862c0 23.083 18.78 41.863 41.863 41.863h50.347c4.142 0 7.5-3.358 7.5-7.5s-3.358-7.5-7.5-7.5h-50.347c-14.812 0-26.863-12.051-26.863-26.863v-37.55h458.189v37.55c0 14.812-12.051 26.863-26.863 26.863h-319.116c-4.142 0-7.5 3.358-7.5 7.5s3.358 7.5 7.5 7.5h319.116c23.083 0 41.863-18.78 41.863-41.863v-37.862c6.788-1.407 11.906-7.433 11.906-14.632v-27.327c0-8.24-6.704-14.943-14.943-14.943zm-180.314-131.521 5.369-16.86c.091-.285.356-.468.641-.468.067 0 .136.01.203.032l45.742 14.566c.176.056.308.167.393.332.084.164.099.336.043.513l-5.369 16.859c-.113.353-.488.548-.844.436l-45.742-14.566c-.352-.112-.548-.491-.436-.844zm26.11 24.762-18.968 59.564c-3.291-1.24-6.737-2.252-10.296-2.983-1.572-.323-3.14-.567-4.706-.777l19.262-60.488zm-258.64-30.447 113.342 7.462-1.691 25.685-110.194-7.255c-.009 0-.017-.001-.026-.002l-3.122-.206zm9.084 41.426 90.652 5.968-2.07 10.798c-.006.029-.007.058-.012.086-23.659 6.375-46.577 15.778-68.108 28.047l-17.287 9.851zm-66.875 110.779c.015 0 .029.003.043.003.015 0 .03-.003.044-.003l458.124-.054c.3.036.6.057.899.057.295 0 .589-.023.881-.057l10.587-.002.061 27.27-482.061.057-.057-27.27z"/><path d="m383.176 247.703c-5.272-8.158-17.991.33-12.469 8.331 5.274 8.171 18.002-.329 12.469-8.331z"/><path d="m231.006 221.363c-5.275-8.156-18.002.321-12.47 8.331 5.271 8.163 17.993-.329 12.47-8.331z"/><path d="m168.396 247.713c-5.258-8.176-18.006.318-12.47 8.32 5.265 8.17 17.994-.323 12.47-8.32z"/></g></g><g/><g/><g/><g/><g/><g/><g/><g/><g/><g/><g/><g/><g/><g/><g/></svg>